<?xml version="1.0" encoding="UTF-8"?>
<svg id="Layer_2" data-name="Layer 2" xmlns="http://www.w3.org/2000/svg" width="53.3" height="51.8" viewBox="0 0 53.3 51.8">
  <defs>
    <style>
      .cls-1 {
        fill: #1f1f1f;
        fill-rule: evenodd;
      }
    </style>
  </defs>
  <path class="cls-1" d="m32.9,49.2c0-.2-.1-.3-.3-.3-.2,0-.3.1-.3.3,0,.2.1.3.3.3.2,0,.3-.1.3-.3Z"/>
  <path class="cls-1" d="m30.7,51.5c0-.3.4-1.3.4-1.3-.1,0-.7.9-.8,1.1-.2.5.3.6.4.1Z"/>
  <path class="cls-1" d="m21,48.8c-.2,0-.3.2-.3.3,0,.2.2.3.3.3.2,0,.3-.2.3-.3,0-.2-.2-.3-.3-.3Z"/>
  <path class="cls-1" d="m24.2,51.2c-.2-.2-1.1-.8-1.1-.8,0,.1.6.9.8,1.1.4.4.7,0,.3-.3Z"/>
  <path class="cls-1" d="m29.4,51.2c-.4.2-.1.7.3.3.2-.2.8-1,.8-1.1,0,0-.8.6-1.1.8Z"/>
  <path class="cls-1" d="m26.8,49.1c-.2,0-.4.2-.4.4,0,.2.2.4.4.4.2,0,.4-.2.4-.4,0-.2-.2-.4-.4-.4Z"/>
  <path class="cls-1" d="m22.6,50.1s.3,1,.4,1.3c0,.4.6.4.4-.1-.1-.2-.7-1.1-.8-1.1Z"/>
  <path class="cls-1" d="m52.3,3.7c-.6-.2-1.4-.6-2.2-1.5-.4-.5-.7-1-.9-1.6v-.2h-5c-1.1-.3-2.2-.5-3.4-.5H12.5c-1.2,0-2.3.2-3.4.5h-4.9v.2c-.4.7-.8,1.3-1.3,1.8-.5.6-1.2,1-1.9,1.3h-.2v4.3c-.5,1.4-.8,2.9-.8,4.5v24.4c0,1.6.3,3.1.8,4.5v4.2h.2c.5.2,1.2.5,1.9,1.1.7.7,1.1,1.5,1.2,2v.2h5c1.1.3,2.2.5,3.4.5h3.7s0,0,0,.1c0,.6.4,1.2.9,1.5.6.4,1.3.4,2,.2.5-.2.9-.6,1.1-1.1,0,0,0-.1,0-.2.7,0,1.7.2,2,.9h0c0-.8-1.3-1.2-2.1-1.2,0-.3-.1-.6-.3-.8-.3-.4-.9-.5-1.3-.4-.4,0-.7.2-.9.6-.1.2-.2.3-.2.5,0,.7.9,1.1,1.1.2-.5.2-1.1-.4-.5-.8.1,0,.3-.2.5-.2.4,0,.8,0,1.1.3.1.2.2.4.2.6,0,0,0,0-.1,0-.5,0-.8.2-.8.4h.1c.2-.1.5-.1.7-.1,0,0,0,0,0,0,0,0,0,0,0,.1-.1.4-.5.8-.9.9-.6.2-1.2.2-1.8-.2-.4-.3-.8-.8-.8-1.3,0-.3,0-.6.2-.8.3-.6,1-1,1.7-1,1,0,2.1.5,2.9,1,.8.5,1.5,1,2.2,1.5.3.2,1,.7,1.5.8.5,0,1,0,1.5,0,.1,0,.2,0,.3,0,.2,0,.3,0,.5.1.4,0,1,.2,1.5,0,.4,0,1.2-.5,1.5-.8.7-.6,1.4-1.1,2.2-1.5.8-.5,2-1,2.9-1,.7,0,1.3.4,1.7,1,.1.3.2.5.2.8,0,.5-.4,1-.8,1.3-.5.3-1.2.4-1.8.2-.4-.2-.8-.5-.9-.9,0,0,0,0,0-.1,0,0,0,0,0,0,.2,0,.5,0,.7.1h.1c0-.2-.3-.3-.8-.4,0,0,0,0-.1,0,0-.2,0-.4.2-.6.3-.3.7-.4,1.1-.3.2,0,.3,0,.5.2.6.4,0,1-.5.8.3.9,1.2.5,1.1-.2,0-.2,0-.4-.2-.5-.2-.3-.5-.5-.9-.6-.5,0-1,0-1.3.4-.2.2-.3.5-.3.8-.8,0-2.2.4-2.1,1.3h0c.3-.8,1.3-1,2-1.1,0,0,0,.1,0,.2.2.5.6.9,1.1,1.1.7.2,1.4.2,2-.2.5-.3.9-.9.9-1.5,0,0,0-.1,0-.2h3.4c1.2,0,2.3-.2,3.4-.5h4.9v-.2c.3-.7.7-1.3,1.2-1.8.5-.6,1.2-1,2-1.3h.2v-4.3c.5-1.4.8-2.9.8-4.5V12.5c0-1.6-.3-3.1-.8-4.5V3.8h-.2Zm-3.5-2.8c.2.6.5,1.1,1,1.6.7.9,1.6,1.3,2.2,1.6v2.7c-1.3-2.6-3.6-4.8-6.3-5.9h3.1ZM12.5.2h28.3c.8,0,1.6,0,2.3.2H10.2c.8-.1,1.5-.2,2.3-.2ZM1.3,4.1c.7-.3,1.4-.8,1.9-1.3.5-.5.9-1.1,1.2-1.8h3.1c-2.7,1.2-5,3.3-6.3,5.9v-2.7ZM.2,36.9V12.5c0-1.3.2-2.6.6-3.8v31.9c-.4-1.2-.6-2.4-.6-3.8Zm4.3,11.5c-.2-.6-.6-1.4-1.3-2.1-.7-.6-1.4-1-1.9-1.1v-2.7c1.3,2.6,3.6,4.8,6.3,5.9h-3.1Zm8,.7c-.8,0-1.6,0-2.3-.2h6.1c0,0,0,.2,0,.2h-3.7Zm11,.7c-.5-.4-1-.7-1.5-1.1h0c.3.1.5.3.8.4.4.2.7.3,1.1.5,0,.2,0,.4,0,.5,0,0,0,0,0,0-.2-.2-.4-.3-.5-.4Zm1.3.7c-.3,0-.5-.3-.6-.5,0,0,0-.2,0-.3.3.1.7.3,1,.4.3.1.7.3,1,.4-.4,0-1,.2-1.4,0Zm-.6-1.1s0,0,0,0c0,0,0,0,0-.1.2-.2.5-.3.7-.1.2.2.4.5.3.8,0,0,0,0,0,0-.4-.1-.7-.3-1-.4Zm5.1.6c0,.2-.3.4-.6.5-.4.1-1.1,0-1.5,0,0,0,0,0,0,0,.3-.1.6-.2,1-.3,0,0,0,0,.1,0h0s0,0,0,0c.3-.1.7-.3,1-.4,0,.1,0,.3,0,.4Zm-1.1-.2c0-.3.1-.6.3-.7.2-.2.5,0,.7.1,0,0,0,0,0,.1-.3.1-.7.3-1,.4,0,0,0,0,0,0Zm1.2-.8c-.4-.4-1-.4-1.4,0-.4.4-.4.7-.2.9-.3.1-.7.2-1.1.3-.3,0-.6-.2-1-.3.2-.2.3-.5-.1-1-.4-.4-1-.4-1.4,0,0,0-.1.1-.1.2,0,0,0,0,0,0-.3-.2-.7-.3-1-.5-.2,0-.4-.2-.6-.3h8.6c-.1.1-.3.2-.4.2-.4.2-.7.3-1.1.5h0c0,0,0-.1-.1-.2Zm.7.7c-.2.1-.3.3-.5.4,0,0,0,0,0,0,0-.2,0-.4,0-.6.4-.2.7-.3,1.1-.5.3-.1.5-.3.8-.4,0,0,0,0,.1,0h.1c-.6.4-1.2.8-1.7,1.2Zm5.9-2.4c-.2,0-.4-.1-.7-.1-1,0-2.2.5-3.1,1h0s-.2,0-.2,0c0,0,0-.1-.2-.1h-9.7c0,0-.4,0-.4,0,0,0,0,0,0,0h-.3s0,0,0,0c-.9-.5-2-1.1-3.1-1-.2,0-.5,0-.7.1-.5.2-.9.5-1.2,1h0s-8,0-8,0c-3.1-1.1-5.7-3.5-7-6.5V7.5c1.4-3,3.9-5.4,7-6.5h36.6c3.1,1.1,5.7,3.5,7,6.5v34.5c-1.4,3-3.9,5.4-7,6.5h-7.8c-.3-.4-.7-.7-1.1-.9Zm4.8,1.6h-3.5c0,0,0-.2,0-.2h5.8c-.8.1-1.5.2-2.3.2Zm11.1-3.9c-.8.3-1.5.8-2,1.4-.5.5-.9,1.1-1.1,1.8h-3.1c2.7-1.2,5-3.3,6.3-5.9v2.7Zm1.1-32.7v24.4c0,1.3-.2,2.6-.6,3.8V8.7c.4,1.2.6,2.4.6,3.8Z"/>
</svg>