<?xml version="1.0" encoding="UTF-8"?>
<svg id="Layer_2" data-name="Layer 2" xmlns="http://www.w3.org/2000/svg" width="100%" height="100%" preserveAspectRatio="none" viewBox="0 0 185.4 203.9">
  <defs>
    <style>
      .cls-1 {
        fill: #1f1f1f;
        fill-rule: evenodd;
      }
    </style>
  </defs>
  <path class="cls-1" d="m14.3,3.7c-2.9,1-8.3,6.7-6.5,5.3,3.6-2.7,5.8-3.6,7.1-4,1.8-.5,1-1.9-.6-1.4Z"/>
  <path class="cls-1" d="m15.1,8.1c.6.1,1.4-1.4-.8-1.2-2,.1-6.4,3.1-5,2.5,3.5-1.5,5.2-1.4,5.8-1.2Z"/>
  <path class="cls-1" d="m16.6,1.8c1.5-.7,3,.3,3,.3-.7-1.9-3-.7-3-.3Z"/>
  <path class="cls-1" d="m185.2,4h.2c-1.6-.8-3.2,0-3.8.8-1,1.3-1.1,3.3-.4,4.8-.4-.3-.8-.7-1.2-1-.2-.2-.5-.4-.7-.6,0-.1-.2-.2-.3-.3-1-.8-2.3-2.7-3.1-3.1-.3-.1-.6,0-.7.2h-.2c-1.2-1.1-2.5-2-3.8-2.8-1-.6-2.2-1.3-3.4-1.6-1.7-.5-3,.1-3.6,1.1-.2.4-.4.7-.4,1H21.5c0-.3-.2-.7-.4-1-.7-.9-2-1.6-3.6-1.1-1.2.3-2.3,1-3.4,1.6-1.3.8-2.6,1.7-3.8,2.7h-.2c0-.1-.4-.2-.7,0-.8.5-2.1,2.4-3.1,3.1-.1.1-.2.2-.3.3-.2.2-.5.4-.7.6-.4.3-.8.7-1.2,1,.7-1.5.7-3.5-.4-4.8-.6-.8-2.2-1.6-3.8-.7h.2c1.2-.3,2.5,0,3.3,1,.2.2.3.5.4.8-.9-.5-1.6.4-1.2.5.9.1,1.4,1.1,1.4,1.7-.2,1.9-1.1,2.7-1.5,3.1h.2c.1-.1.3-.3.4-.3,0,0,.2-.1.3-.2l-.8,6.7h0c.3,1.4.6,2.8.9,4.2,0,0,0,0,0,.1-.2.3-.4.5-.7.7-.3.3-.7.5-1.1.7h0s0,.1,0,.1c1.1,6.8,2,13.6,2.8,20.5v116.9c-.8,6.7-1.7,13.5-2.7,20.1h0c0,0,0,.1,0,.1.3.1.6.3.9.5.2.1.5.4.8.7-.3,1.4-.5,2.7-.8,4.1h0s.7,7.1.7,7.1c0,0-.2-.1-.2-.2-.1,0-.3-.2-.4-.3h-.2c.3.3,1.2,1.2,1.5,3,0,.7-.6,1.6-1.4,1.7-.4,0,.2,1,1.2.5-.1.3-.3.5-.4.8-.8,1-2.1,1.2-3.3,1h-.2c1.6.8,3.2,0,3.8-.8,1-1.3,1.1-3.3.4-4.8.4.3.8.7,1.2,1,.2.2.5.4.7.6,0,.1.2.2.3.3,1,.8,2.3,2.7,3.1,3.1.3.1.6,0,.7-.2h.2c1.2,1.1,2.5,2,3.8,2.8,1,.6,2.2,1.3,3.4,1.6,1.7.5,3-.1,3.6-1.1.3-.4.4-.7.4-1.1h142.4c0,.3.2.7.4,1.1.7.9,2,1.6,3.6,1.1,1.2-.3,2.3-1,3.4-1.6,1.3-.8,2.6-1.7,3.8-2.7h.2c0,.1.4.2.7,0,.8-.5,2.1-2.4,3.1-3.1.1-.1.2-.2.3-.3.2-.2.5-.4.7-.6.4-.3.8-.7,1.2-1-.7,1.5-.7,3.5.4,4.8.6.8,2.2,1.6,3.8.7h-.2c-1.2.3-2.5,0-3.3-1-.2-.2-.3-.5-.4-.8.9.5,1.6-.4,1.2-.5-.9-.1-1.4-1.1-1.4-1.7.1-.9.4-1.6.7-2.1h0s0,0,0,0c.3-.5.6-.9.8-1.1h-.2c-.1.1-.3.3-.4.3,0,0-.1,0-.2.1l.7-7h0c-.3-1.4-.6-2.8-.8-4.2.3-.3.6-.6.8-.7.3-.2.5-.3.9-.5h0s0-.1,0-.1c-1.1-6.7-2-13.4-2.7-20.1V43.7c.8-6.9,1.7-13.7,2.8-20.5h0c0,0,0-.1,0-.1-.4-.2-.8-.5-1.1-.7-.2-.2-.5-.4-.7-.7,0,0,0,0,0-.1.3-1.4.6-2.8.9-4.2h0s-.7-6.7-.7-6.7c0,0,.1.1.2.2.1,0,.3.2.4.3h.2c-.3-.3-1.2-1.2-1.5-3,0-.7.6-1.6,1.4-1.7.4,0-.2-1-1.2-.5.1-.3.3-.5.4-.8.8-1,2.1-1.2,3.3-1Zm-4.7,15.6c-.2-.7-.4-1.4-.2-2.1,0-.3.1-.5.2-.7v2.8Zm.8-9.5l.3,2.9c-.2.6-.3,1.2-.6,1.8-.1.4-.2.6-.3.9v-6c.2.2.4.3.6.5Zm-17-6.5H21.1c.2-.3.4-.6.4-.9h142.4c0,.4.2.7.4.9ZM4.7,9.6v6.1c-.1-.2-.2-.5-.3-.9-.2-.6-.4-1.2-.6-1.8l.3-2.9c.2-.2.4-.3.6-.5Zm.2,7.2c.1.2.2.4.2.7.1.7,0,1.4-.2,2.1v-2.8Zm-1.6.4l.4-3.6c.1.4.3.8.4,1.2.2.7.4,1.1.6,1.4v3.9c-.2.3-.3.6-.5.9-.3-1.3-.6-2.6-.8-3.9Zm1.4,3.5v3c-.2-.8-.3-1.5-.5-2.3.2-.2.3-.5.5-.7Zm-2.5,2.5c.4-.2.7-.4,1.1-.7.2-.2.4-.4.6-.6.3,1.4.6,2.8.9,4.3v15.3c-.7-6.1-1.6-12.2-2.5-18.2Zm2.8,4.2c9.2,47.2,9.2,96.8,0,147.8v-14.6c2.4-20.6,3.5-41.4,3.4-62-.1-18.3-1.3-36.7-3.4-54.9v-16.2Zm0,18.5c1.9,17.5,3,35.1,3.1,52.7.1,19.9-.9,39.9-3.1,59.7V46Zm-1.9,135.2c-.3-.2-.5-.3-.8-.5.9-6,1.8-12,2.5-18.1v14c-.3,1.7-.6,3.5-1,5.2-.2-.2-.5-.5-.7-.6Zm1.7-1.9v3.8c-.2-.3-.4-.6-.6-.8.2-1,.4-2,.6-3Zm-.6,3.3c.2.3.4.6.6,1v3.9c0,0,0,.1,0,.2-.3.8-.6,1.5-.9,2.3l-.4-3.7c.3-1.2.5-2.4.7-3.7Zm.9,1.6c.2.5.3,1.1.3,1.8,0,.2,0,.3-.3.9v-2.7Zm-.9,9.6l-.3-3.2c.3-.8.6-1.6.9-2.3v6c-.2-.2-.4-.3-.6-.5Zm17,6.4h143.3c-.2.3-.4.6-.4.9H21.5c0-.4-.2-.7-.4-.9Zm158.7-5.1c-1.6,1.4-3.2,2.7-4.9,4-1.2.9-2.5,1.8-3.7,2.6-1,.6-2.1,1.3-3.3,1.6-2.9.9-3.8-2.9-1.5-3.1h.3c.2,0,.4,0,.7,0-.7-1-1.9-.9-2.7-.3H20.8c-.8-.6-1.9-.6-2.7.3,3.4-.8,2.7,4-.6,3.1-1.1-.3-2.3-1-3.3-1.6-1.3-.8-2.5-1.7-3.7-2.6-1.7-1.3-3.3-2.7-4.9-4-.2-.2-.5-.4-.7-.6v-6.9c.4-1.1.5-1.3.5-1.6,0-.9-.2-1.8-.5-2.4v-5.6c9.9-52.8,9.9-104.2,0-153.1v-4.6c.4-.9.6-1.9.5-2.9,0-.4-.2-.6-.3-.9,0,0,0-.2-.1-.3v-6.8c.2-.2.5-.4.7-.6,1.6-1.4,3.2-2.7,4.9-4,1.2-.9,2.5-1.8,3.7-2.6,1-.6,2.1-1.3,3.3-1.6,3.3-1,4,3.9.6,3.1.7,1,1.9.9,2.7.3h143.7c.8.6,1.9.7,2.7-.3-.2,0-.5,0-.7,0h0s-.4,0-.4,0c-2.1-.4-1.2-4,1.6-3.1,1.1.3,2.3,1,3.3,1.6,1.3.8,2.5,1.7,3.7,2.6,1.7,1.3,3.3,2.7,4.9,4,.2.2.5.4.7.6v6.8c0,.1-.1.2-.1.3-.2.3-.3.5-.3.9-.2,1,0,2,.5,2.9v4.6c-9.9,48.8-9.9,100.2,0,153.1v5.6c-.3.7-.6,1.5-.5,2.4,0,.3,0,.5.5,1.6v6.8c-.2.2-.5.4-.7.6Zm1-174.3c.1.2.3.5.5.7-.2.8-.3,1.5-.5,2.3v-3Zm-.2,6.7v16.2c-2.1,18.2-3.3,36.6-3.4,54.9-.1,20.7,1,41.4,3.4,62v14.6c-9.2-50.9-9.2-100.6,0-147.8Zm.2,151.8c.2,1,.4,2,.6,3-.2.2-.4.5-.6.8v-3.8Zm-.2,4.9v2.7c-.2-.6-.3-.7-.3-.9,0-.7,0-1.3.3-1.8Zm.2,10v-6c.3.8.6,1.6.9,2.3l-.3,3.1c-.2.2-.4.3-.6.5Zm1-4.2c-.3-.8-.6-1.5-.9-2.3,0,0,0-.1,0-.2v-3.9c.2-.4.4-.8.6-1,.2,1.2.5,2.4.7,3.7l-.4,3.7Zm1.5-9.3c-.3.1-.6.3-.8.5-.2.2-.5.4-.7.6-.3-1.7-.7-3.5-1-5.2v-14c.7,6.1,1.5,12.1,2.5,18.1Zm-2.7-22.4c-2.2-19.8-3.3-39.8-3.1-59.7.1-17.5,1.2-35.2,3.1-52.7v112.3Zm1.7-135.8c.3.3.7.5,1.1.7-1,6.1-1.8,12.1-2.5,18.2v-15.3c.3-1.4.6-2.8.9-4.3.2.2.4.4.6.6Zm-.9-1.4c-.2-.3-.4-.6-.5-.9v-3.9c.1-.3.3-.7.6-1.4.1-.4.3-.8.4-1.2l.4,3.6c-.3,1.3-.6,2.6-.8,3.9Z"/>
  <path class="cls-1" d="m165.8,2.2s1.5-1.1,3-.3c0-.4-2.3-1.6-3,.3Z"/>
  <path class="cls-1" d="m170.5,5.1c1.3.3,3.5,1.2,7.1,4,1.8,1.4-3.6-4.4-6.5-5.3-1.6-.5-2.4.9-.6,1.4Z"/>
  <path class="cls-1" d="m171.1,6.8c-2.1-.1-1.4,1.4-.8,1.2.7-.1,2.3-.2,5.8,1.2,1.4.6-3-2.4-5-2.5Z"/>
  <path class="cls-1" d="m170.3,195.8c-.6-.1-1.4,1.4.8,1.2,2-.1,6.4-3.1,5-2.5-3.5,1.5-5.2,1.4-5.8,1.2Z"/>
  <path class="cls-1" d="m165.8,201.7c.7,1.9,3,.7,3,.3-1.5.7-3-.3-3-.3Z"/>
  <path class="cls-1" d="m170.5,198.8c-1.8.5-1,1.9.6,1.4,2.9-1,8.3-6.7,6.5-5.3-3.6,2.7-5.8,3.6-7.1,4Z"/>
  <path class="cls-1" d="m14.9,198.8c-1.3-.3-3.5-1.2-7.1-4-1.8-1.4,3.6,4.4,6.5,5.3,1.6.5,2.4-.9.6-1.4Z"/>
  <path class="cls-1" d="m16.6,202c0,.4,2.3,1.6,3-.3,0,0-1.5,1.1-3,.3Z"/>
  <path class="cls-1" d="m14.3,197c2.1.1,1.4-1.4.8-1.2-.7.1-2.3.2-5.8-1.2-1.4-.6,3,2.4,5,2.5Z"/>
</svg>