<?xml version="1.0" encoding="UTF-8"?>
<svg id="Layer_2" data-name="Layer 2" xmlns="http://www.w3.org/2000/svg" width="185.4" height="188.1" viewBox="0 0 185.4 188.1">
  <defs>
    <style>
      .cls-1 {
        fill: #1f1f1f;
        fill-rule: evenodd;
      }
    </style>
  </defs>
  <path class="cls-1" d="m80.9,181.1c-.4,0-.7.4-.7.8,0,.4.4.7.8.7.4,0,.7-.4.7-.8,0-.4-.4-.7-.8-.7Z"/>
  <path class="cls-1" d="m88.6,186.7c-.6-.4-2.5-1.9-2.5-1.9,0,.3,1.5,2.3,1.9,2.7,1,.9,1.6-.2.7-.8Z"/>
  <path class="cls-1" d="m109.4,182c0-.4-.3-.7-.7-.8s-.7.3-.8.7c0,.4.3.7.7.8s.7-.3.8-.7Z"/>
  <path class="cls-1" d="m103,187c-.5,1.2.8,1.4,1,.3.1-.7.9-3,.8-3-.3,0-1.6,2.2-1.8,2.7Z"/>
  <path class="cls-1" d="m84.7,184.2s.7,2.4.8,3c.2,1.1,1.5.9,1-.3-.2-.5-1.6-2.6-1.8-2.7Z"/>
  <path class="cls-1" d="m101,186.8c-.9.6-.3,1.8.7.8.4-.4,1.9-2.4,1.9-2.7,0,0-2,1.5-2.6,1.9Z"/>
  <path class="cls-1" d="m94.7,181.6c-.5,0-.9.5-.9,1,0,.5.4.9,1,.9.5,0,.9-.5.9-1,0-.5-.4-.9-1-.9Z"/>
  <path class="cls-1" d="m47.9,30.6l.3.2c1.4.9,2.5,2.9,2.8,4.1.2.7.3,1.5.2,2.2,0,.7-.3,1.3-.6,1.9l-.2.2c.6,0,1.4-1.4,1.5-2.1,0-.8,0-1.6-.2-2.4,0-.2-.1-.5-.2-.7.8.7,1.7,1.3,2.8,1.6,1,.3,2.2.3,3-.3.4-.4.6-.8.6-1,.3-1-.3-2.4-1.4-2.8-1.1-.4-2.6.3-2.6,1.2,0,.8,1,1.5,1.1,1.5-.2-.4-.1-.9.1-1.2.4-.5,1.2-.5,1.6-.1.4.3.6.9.5,1.4,0,.3-.2.5-.4.7-.6.5-1.5.4-2.2.2-1.6-.5-2.9-1.8-3.8-2.8-.4-.6-2.1-2-2.7-1.8Z"/>
  <path class="cls-1" d="m54.6,38.4c-.2-.8-.9-1.8-1.4-2.2,0,.5,0,1.3.2,2.1.2,1,1.3.8,1.2.1Z"/>
  <path class="cls-1" d="m47.5,31.3c-.4-.7-1.5-2.2-1.6-2.2-.3.2,0,1.8.2,2.4.4,1.4,2,.9,1.4-.2Z"/>
  <path class="cls-1" d="m48.8,30.4c1.4,1.1,2.4.1,1-.6-.9-.4-3-1.4-3-1.4,0,.3,1.4,1.5,2,2Z"/>
  <path class="cls-1" d="m57.8,44.8c0-.1-.2-.6-.6-1-.8-.6-2-.6-3-.3-1,.3-2,.9-2.8,1.6,0-.2.2-.5.2-.7.2-.8.3-1.6.2-2.4,0-.7-.8-2.1-1.5-2.1l.2.2c.4.6.6,1.3.6,1.9,0,.7,0,1.5-.2,2.2-.3,1.3-1.4,3.3-2.8,4.1l-.3.2c.6.2,2.3-1.2,2.7-1.8.9-1,2.3-2.3,3.8-2.8.7-.2,1.6-.3,2.2.2.2.2.4.4.4.7.1.6-.1,1.1-.5,1.4-.5.3-1.3.3-1.6-.1-.3-.3-.3-.8-.1-1.2,0,0-1.2.7-1.1,1.5,0,.9,1.5,1.5,2.6,1.2,1.1-.4,1.7-1.8,1.4-2.8Z"/>
  <path class="cls-1" d="m54.6,40.9c.1-.7-1-.9-1.2.1-.2.7-.2,1.6-.2,2.1.5-.3,1.3-1.4,1.4-2.2Z"/>
  <path class="cls-1" d="m47.5,48c.7-1.1-1-1.6-1.4-.2-.2.6-.5,2.2-.2,2.4,0,0,1.2-1.5,1.6-2.2Z"/>
  <path class="cls-1" d="m48.8,48.9c-.6.5-2.1,1.7-2,2,0,0,2.2-.9,3-1.4,1.4-.7.4-1.7-1-.6Z"/>
  <path class="cls-1" d="m59.9,33.9c-.6.3-1.2.7-1.6,1.3-.4.6-.7,1.4-.7,2.2,0,.6.2,1.1.5,1.7,0,0-.2,0-.3-.1-.4-.1-.7-.1-1.1,0-.5.2-.9.8-1.1,1.3-.1.4-.1.9,0,1.3.3,1,1.5,1.4,2.4.9,1-.5.6-1.9-.4-1.9.4,1.2-1.2,2.3-1.8.9-.1-.3,0-.7,0-1.1.1-.5.5-.9.9-1.1.7-.3,1.4.2,1.9.7h0c.5.7.8,1.4,1.1,2,.4,1,.6,2.3,0,3.4h0c1.1-.7.5-2.8.3-3.5-.3-.7-.6-1.4-1.1-2h0s0,0,0,0c0,0,0,0,0-.1-.6-.7-1-1.5-1-2.4,0-.7.2-1.4.6-2,.4-.5.9-.9,1.5-1.2.5-.2,1.1-.3,1.6,0,0,0,.2,0,.3.2h.1c-.2-.7-1.5-.6-2.1-.4Z"/>
  <path class="cls-1" d="m58.5,44.6c0,.1.2.2.4.1.1,0,.2-.2.1-.4,0-.1-.2-.2-.4-.1-.1,0-.2.2-.1.4Z"/>
  <path class="cls-1" d="m58,43.2c-.2,0-.3.3-.2.5,0,.2.3.3.5.2.2,0,.3-.3.2-.5,0-.2-.3-.3-.5-.2Z"/>
  <path class="cls-1" d="m56.9,36.8c-.6-.7-1-.1-.5.4.3.3.9.7.9.7-.1-.2-.2-.8-.4-1.1Z"/>
  <path class="cls-1" d="m57.4,38.3s-1-.4-1.4-.5c-.7-.1-.9.6,0,.6.4,0,1.1,0,1.4-.1Z"/>
  <path class="cls-1" d="m56.3,57.6c-1.1-.4-2.6.3-2.6,1.2,0,.8,1,1.5,1.1,1.5-.2-.4-.1-.9.1-1.2.4-.5,1.2-.5,1.6-.1.4.3.6.9.5,1.4,0,.3-.2.5-.4.7-.6.5-1.5.4-2.2.2-1.6-.5-2.9-1.8-3.8-2.8-.4-.6-2.1-2-2.7-1.8l.3.2c1.4.9,2.5,2.9,2.8,4.1.2.7.3,1.5.2,2.2,0,.7-.3,1.3-.6,1.9h0c-.1-.1-.4-.3-.6-.3-.4,0-.8.4-.8.8s.4.8.8.8.4,0,.6-.2h0c.4.7.6,1.4.6,2,0,.7,0,1.5-.2,2.2-.3,1.3-1.4,3.3-2.8,4.1l-.3.2c.6.2,2.3-1.2,2.7-1.8.9-1,2.3-2.3,3.8-2.8.7-.2,1.6-.3,2.2.2.2.2.4.4.4.7.1.6-.1,1.1-.5,1.4-.5.3-1.3.3-1.6-.1-.3-.3-.3-.8-.1-1.2,0,0-1.2.7-1.1,1.5,0,.9,1.5,1.5,2.6,1.2,1.1-.4,1.7-1.8,1.4-2.8,0-.1-.2-.6-.6-1-.8-.6-2-.6-3-.3-1,.3-2,.9-2.8,1.6,0-.2.2-.5.2-.7.2-.8.3-1.6.2-2.4,0-.7-.7-1.9-1.3-2.1,0-.1.2-.3.2-.4s0-.2,0-.4c.6-.2,1.2-1.4,1.3-2.1,0-.8,0-1.6-.2-2.4,0-.2-.1-.5-.2-.7.8.7,1.7,1.3,2.8,1.6,1,.3,2.2.3,3-.3.4-.4.6-.8.6-1,.3-1-.3-2.4-1.4-2.8Z"/>
  <path class="cls-1" d="m53.2,62.2c0,.5,0,1.3.2,2.1.2,1,1.3.8,1.2.1-.2-.8-.9-1.8-1.4-2.2Z"/>
  <path class="cls-1" d="m47.5,57.2c-.4-.7-1.5-2.2-1.6-2.2-.3.2,0,1.8.2,2.4.4,1.4,2,.9,1.4-.2Z"/>
  <path class="cls-1" d="m48.8,56.3c1.4,1.1,2.4.1,1-.6-.9-.4-3-1.4-3-1.4,0,.3,1.4,1.5,2,2Z"/>
  <path class="cls-1" d="m53.4,67c-.2.7-.2,1.6-.2,2.1.5-.3,1.3-1.4,1.4-2.2.1-.7-1-.9-1.2.1Z"/>
  <path class="cls-1" d="m47.5,73.9c.7-1.1-1-1.6-1.4-.2-.2.6-.5,2.2-.2,2.4,0,0,1.2-1.5,1.6-2.2Z"/>
  <path class="cls-1" d="m48.8,74.8c-.6.5-2.1,1.7-2,2,0,0,2.2-.9,3-1.4,1.4-.7.4-1.7-1-.6Z"/>
  <path class="cls-1" d="m56,64.4c.4,0,1.1,0,1.4-.1,0,0-1-.4-1.4-.5-.7-.1-.9.6,0,.6Z"/>
  <path class="cls-1" d="m58.5,70.5c0,.1.2.2.4.1.1,0,.2-.2.1-.4,0-.1-.2-.2-.4-.1-.1,0-.2.2-.1.4Z"/>
  <path class="cls-1" d="m56.9,62.8c-.6-.7-1-.1-.5.4.3.3.9.7.9.7-.1-.2-.2-.8-.4-1.1Z"/>
  <path class="cls-1" d="m59.9,59.8c-.6.3-1.2.7-1.6,1.3-.4.6-.7,1.4-.7,2.2,0,.6.2,1.1.5,1.7,0,0-.2,0-.3-.1-.4-.1-.7-.1-1.1,0-.5.2-.9.8-1.1,1.3-.1.4-.1.9,0,1.3.3,1,1.5,1.4,2.4.9,1-.5.6-1.9-.4-1.9.4,1.2-1.2,2.3-1.8.9-.1-.3,0-.7,0-1.1.1-.5.5-.9.9-1.1.7-.3,1.4.2,1.9.7h0c.5.7.8,1.4,1.1,2,.4,1,.6,2.3,0,3.4h0c1.1-.7.5-2.8.3-3.5-.3-.7-.6-1.4-1.1-2h0s0,0,0,0c0,0,0,0,0-.1-.6-.7-1-1.5-1-2.4,0-.7.2-1.4.6-2,.4-.5.9-.9,1.5-1.2.5-.2,1.1-.3,1.6,0,0,0,.2,0,.3.2h.1c-.2-.7-1.5-.6-2.1-.4Z"/>
  <path class="cls-1" d="m58,69.1c-.2,0-.3.3-.2.5,0,.2.3.3.5.2.2,0,.3-.3.2-.5,0-.2-.3-.3-.5-.2Z"/>
  <path class="cls-1" d="m56.3,83.6c-1.1-.4-2.6.3-2.6,1.2,0,.8,1,1.5,1.1,1.5-.2-.4-.1-.9.1-1.2.4-.5,1.2-.5,1.6-.1.4.3.6.9.5,1.4,0,.3-.2.5-.4.7-.6.5-1.5.4-2.2.2-1.6-.5-2.9-1.8-3.8-2.8-.4-.6-2.1-2-2.7-1.8l.3.2c1.4.9,2.5,2.9,2.8,4.1.2.7.3,1.5.2,2.2,0,.6-.2,1.2-.6,1.8-.2-.2-.4-.3-.7-.3-.6,0-1,.5-1,1s.5,1,1,1,.5-.1.7-.3c.3.6.5,1.2.6,1.8,0,.7,0,1.5-.2,2.2-.3,1.3-1.4,3.3-2.8,4.1l-.3.2c.6.2,2.3-1.2,2.7-1.8.9-1,2.3-2.3,3.8-2.8.7-.2,1.6-.3,2.2.2.2.2.4.4.4.7.1.6-.1,1.1-.5,1.4-.5.3-1.3.3-1.6-.1-.3-.3-.3-.8-.1-1.2,0,0-1.2.7-1.1,1.5,0,.9,1.5,1.5,2.6,1.2,1.1-.4,1.7-1.8,1.4-2.8,0-.1-.2-.6-.6-1-.8-.6-2-.6-3-.3-1,.3-2,.9-2.8,1.6,0-.2.2-.5.2-.7.2-.8.3-1.6.2-2.4,0-.6-.6-1.6-1.1-2,0-.2.2-.3.2-.5s0-.4-.2-.5c.5-.4,1-1.4,1.1-2,0-.8,0-1.6-.2-2.4,0-.2-.1-.5-.2-.7.8.7,1.7,1.3,2.8,1.6,1,.3,2.2.3,3-.3.4-.4.6-.8.6-1,.3-1-.3-2.4-1.4-2.8Zm-6.5,8.5c-.3,0-.5-.2-.5-.5s.2-.5.5-.5.5.2.5.5-.2.5-.5.5Z"/>
  <path class="cls-1" d="m53.2,88.1c0,.5,0,1.3.2,2.1.2,1,1.3.8,1.2.1-.2-.8-.9-1.8-1.4-2.2Z"/>
  <path class="cls-1" d="m47.5,83.2c-.4-.7-1.5-2.2-1.6-2.2-.3.2,0,1.8.2,2.4.4,1.4,2,.9,1.4-.2Z"/>
  <path class="cls-1" d="m48.8,82.3c1.4,1.1,2.4.1,1-.6-.9-.4-3-1.4-3-1.4,0,.3,1.4,1.5,2,2Z"/>
  <path class="cls-1" d="m53.4,92.9c-.2.7-.2,1.6-.2,2.1.5-.3,1.3-1.4,1.4-2.2.1-.7-1-.9-1.2.1Z"/>
  <path class="cls-1" d="m47.5,99.9c.7-1.1-1-1.6-1.4-.2-.2.6-.5,2.2-.2,2.4,0,0,1.2-1.5,1.6-2.2Z"/>
  <path class="cls-1" d="m48.8,100.8c-.6.5-2.1,1.7-2,2,0,0,2.2-.9,3-1.4,1.4-.7.4-1.7-1-.6Z"/>
  <path class="cls-1" d="m58,95.1c-.2,0-.3.3-.2.5,0,.2.3.3.5.2.2,0,.3-.3.2-.5,0-.2-.3-.3-.5-.2Z"/>
  <path class="cls-1" d="m58.5,96.5c0,.1.2.2.4.1.1,0,.2-.2.1-.4,0-.1-.2-.2-.4-.1-.1,0-.2.2-.1.4Z"/>
  <path class="cls-1" d="m56,90.3c.4,0,1.1,0,1.4-.1,0,0-1-.4-1.4-.5-.7-.1-.9.6,0,.6Z"/>
  <path class="cls-1" d="m56.9,88.7c-.6-.7-1-.1-.5.4.3.3.9.7.9.7-.1-.2-.2-.8-.4-1.1Z"/>
  <path class="cls-1" d="m59.9,85.8c-.6.3-1.2.7-1.6,1.3-.4.6-.7,1.4-.7,2.2,0,.6.2,1.1.5,1.7,0,0-.2,0-.3-.1-.4-.1-.7-.1-1.1,0-.5.2-.9.8-1.1,1.3-.1.4-.1.9,0,1.3.3,1,1.5,1.4,2.4.9,1-.5.6-1.9-.4-1.9.4,1.2-1.2,2.3-1.8.9-.1-.3,0-.7,0-1.1.1-.5.5-.9.9-1.1.7-.3,1.4.2,1.9.7h0c.5.7.8,1.4,1.1,2,.4,1,.6,2.3,0,3.4h0c1.1-.7.5-2.8.3-3.5-.3-.7-.6-1.4-1.1-2h0s0,0,0,0c0,0,0,0,0-.1-.6-.7-1-1.5-1-2.4,0-.7.2-1.4.6-2,.4-.5.9-.9,1.5-1.2.5-.2,1.1-.3,1.6,0,0,0,.2,0,.3.2h.1c-.2-.7-1.5-.6-2.1-.4Z"/>
  <path class="cls-1" d="m56.3,109.5c-1.1-.4-2.6.3-2.6,1.2,0,.8,1,1.5,1.1,1.5-.2-.4-.1-.9.1-1.2.4-.5,1.2-.5,1.6-.1.4.3.6.9.5,1.4,0,.3-.2.5-.4.7-.6.5-1.5.4-2.2.2-1.6-.5-2.9-1.8-3.8-2.8-.4-.6-2.1-2-2.7-1.8l.3.2c1.4.9,2.5,2.9,2.8,4.1.2.7.3,1.5.2,2.2,0,.6-.2,1.1-.5,1.7-.3-.4-.7-.7-1.3-.7-.8,0-1.5.7-1.5,1.5s.7,1.5,1.5,1.5,1-.3,1.2-.7c.3.5.5,1.1.5,1.7,0,.7,0,1.5-.2,2.2-.3,1.3-1.4,3.3-2.8,4.1l-.3.2c.6.2,2.3-1.2,2.7-1.8.9-1,2.3-2.3,3.8-2.8.7-.2,1.6-.3,2.2.2.2.2.4.4.4.7.1.6-.1,1.1-.5,1.4-.5.3-1.3.3-1.6-.1-.3-.3-.3-.8-.1-1.2,0,0-1.2.7-1.1,1.5,0,.9,1.5,1.5,2.6,1.2,1.1-.4,1.7-1.8,1.4-2.8,0-.1-.2-.6-.6-1-.8-.6-2-.6-3-.3-1,.3-2,.9-2.8,1.6,0-.2.2-.5.2-.7.2-.8.3-1.6.2-2.4,0-.6-.5-1.5-1-1.9,0-.2.1-.4.1-.6s0-.4-.1-.5c.5-.4,1-1.4,1-1.9,0-.8,0-1.6-.2-2.4,0-.2-.1-.5-.2-.7.8.7,1.7,1.3,2.8,1.6,1,.3,2.2.3,3-.3.4-.4.6-.8.6-1,.3-1-.3-2.4-1.4-2.8Zm-6.9,9c-.6,0-1-.5-1-1s.5-1,1-1,1,.5,1,1-.5,1-1,1Z"/>
  <path class="cls-1" d="m53.2,114.1c0,.5,0,1.3.2,2.1.2,1,1.3.8,1.2.1-.2-.8-.9-1.8-1.4-2.2Z"/>
  <path class="cls-1" d="m47.5,109.1c-.4-.7-1.5-2.2-1.6-2.2-.3.2,0,1.8.2,2.4.4,1.4,2,.9,1.4-.2Z"/>
  <path class="cls-1" d="m48.8,108.2c1.4,1.1,2.4.1,1-.6-.9-.4-3-1.4-3-1.4,0,.3,1.4,1.5,2,2Z"/>
  <path class="cls-1" d="m53.4,118.9c-.2.7-.2,1.6-.2,2.1.5-.3,1.3-1.4,1.4-2.2.1-.7-1-.9-1.2.1Z"/>
  <path class="cls-1" d="m47.5,125.8c.7-1.1-1-1.6-1.4-.2-.2.6-.5,2.2-.2,2.4,0,0,1.2-1.5,1.6-2.2Z"/>
  <path class="cls-1" d="m48.8,126.7c-.6.5-2.1,1.7-2,2,0,0,2.2-.9,3-1.4,1.4-.7.4-1.7-1-.6Z"/>
  <path class="cls-1" d="m59.9,111.7c-.6.3-1.2.7-1.6,1.3-.4.6-.7,1.4-.7,2.2,0,.6.2,1.1.5,1.7,0,0-.2,0-.3-.1-.4-.1-.7-.1-1.1,0-.5.2-.9.8-1.1,1.3-.1.4-.1.9,0,1.3.3,1,1.5,1.4,2.4.9,1-.5.6-1.9-.4-1.9.4,1.2-1.2,2.3-1.8.9-.1-.3,0-.7,0-1.1.1-.5.5-.9.9-1.1.7-.3,1.4.2,1.9.7h0c.5.7.8,1.4,1.1,2,.4,1,.6,2.3,0,3.4h0c1.1-.7.5-2.8.3-3.5-.3-.7-.6-1.4-1.1-2h0s0,0,0,0c0,0,0,0,0-.1-.6-.7-1-1.5-1-2.4,0-.7.2-1.4.6-2,.4-.5.9-.9,1.5-1.2.5-.2,1.1-.3,1.6,0,0,0,.2,0,.3.2h.1c-.2-.7-1.5-.6-2.1-.4Z"/>
  <path class="cls-1" d="m58.5,122.4c0,.1.2.2.4.1.1,0,.2-.2.1-.4,0-.1-.2-.2-.4-.1-.1,0-.2.2-.1.4Z"/>
  <path class="cls-1" d="m58,121c-.2,0-.3.3-.2.5,0,.2.3.3.5.2.2,0,.3-.3.2-.5,0-.2-.3-.3-.5-.2Z"/>
  <path class="cls-1" d="m56,116.3c.4,0,1.1,0,1.4-.1,0,0-1-.4-1.4-.5-.7-.1-.9.6,0,.6Z"/>
  <path class="cls-1" d="m56.9,114.7c-.6-.7-1-.1-.5.4.3.3.9.7.9.7-.1-.2-.2-.8-.4-1.1Z"/>
  <path class="cls-1" d="m53.2,140c0,.5,0,1.3.2,2.1.2,1,1.3.8,1.2.1-.2-.8-.9-1.8-1.4-2.2Z"/>
  <path class="cls-1" d="m47.5,135.1c-.4-.7-1.5-2.2-1.6-2.2-.3.2,0,1.8.2,2.4.4,1.4,2,.9,1.4-.2Z"/>
  <path class="cls-1" d="m49.9,133.6c-.9-.4-3-1.4-3-1.4,0,.3,1.4,1.5,2,2,1.4,1.1,2.4.1,1-.6Z"/>
  <path class="cls-1" d="m57.2,147.6c-.8-.6-2-.6-3-.3-1,.3-2,.9-2.8,1.6,0-.2.2-.5.2-.7.2-.8.3-1.6.2-2.4,0-.5-.5-1.4-1-1.9l2-.7-2-.6c.5-.5.8-1.3.9-1.8,0-.8,0-1.6-.2-2.4,0-.2-.1-.5-.2-.7.8.7,1.7,1.3,2.8,1.6,1,.3,2.2.3,3-.3.4-.4.6-.8.6-1,.3-1-.3-2.4-1.4-2.8-1.1-.4-2.6.3-2.6,1.2,0,.8,1,1.5,1.1,1.5-.2-.4-.1-.9.1-1.2.4-.5,1.2-.5,1.6-.1.4.3.6.9.5,1.4,0,.3-.2.5-.4.7-.6.5-1.5.4-2.2.2-1.6-.5-2.9-1.8-3.8-2.8-.4-.6-2.1-2-2.7-1.8l.3.2c1.4.9,2.5,2.9,2.8,4.1.2.7.3,1.5.2,2.2,0,.6-.2,1.2-.5,1.7l-2.3-.8h0s0,0,0,0c-.8,0-1.5.7-1.5,1.5s.7,1.5,1.5,1.5h0s2.3-.8,2.3-.8c.3.6.5,1.2.6,1.8,0,.7,0,1.5-.2,2.2-.3,1.3-1.4,3.3-2.8,4.1l-.3.2c.6.2,2.3-1.2,2.7-1.8.9-1,2.3-2.3,3.8-2.8.7-.2,1.6-.3,2.2.2.2.2.4.4.4.7.1.6-.1,1.1-.5,1.4-.5.3-1.3.3-1.6-.1-.3-.3-.3-.8-.1-1.2,0,0-1.2.7-1.1,1.5,0,.9,1.5,1.5,2.6,1.2,1.1-.4,1.7-1.8,1.4-2.8,0-.1-.2-.6-.6-1Zm-9-3.2c-.5,0-1-.5-1-1s.4-1,1-1l3.1,1-3.1,1Z"/>
  <path class="cls-1" d="m53.4,144.8c-.2.7-.2,1.6-.2,2.1.5-.3,1.3-1.4,1.4-2.2.1-.7-1-.9-1.2.1Z"/>
  <path class="cls-1" d="m46.1,151.6c-.2.6-.5,2.2-.2,2.4,0,0,1.2-1.5,1.6-2.2.7-1.1-1-1.6-1.4-.2Z"/>
  <path class="cls-1" d="m48.8,152.7c-.6.5-2.1,1.7-2,2,0,0,2.2-.9,3-1.4,1.4-.7.4-1.7-1-.6Z"/>
  <path class="cls-1" d="m56,142.2c.4,0,1.1,0,1.4-.1,0,0-1-.4-1.4-.5-.7-.1-.9.6,0,.6Z"/>
  <path class="cls-1" d="m58.6,148c-.1,0-.2.2-.1.4,0,.1.2.2.4.1.1,0,.2-.2.1-.4,0-.1-.2-.2-.4-.1Z"/>
  <path class="cls-1" d="m59.9,137.7c-.6.3-1.2.7-1.6,1.3-.4.6-.7,1.4-.7,2.2,0,.6.2,1.1.5,1.7,0,0-.2,0-.3-.1-.4-.1-.7-.1-1.1,0-.5.2-.9.8-1.1,1.3-.1.4-.1.9,0,1.3.3,1,1.5,1.4,2.4.9,1-.5.6-1.9-.4-1.9.4,1.2-1.2,2.3-1.8.9-.1-.3,0-.7,0-1.1.1-.5.5-.9.9-1.1.7-.3,1.4.2,1.9.7h0c.5.7.8,1.4,1.1,2,.4,1,.6,2.3,0,3.4h0c1.1-.7.5-2.8.3-3.5-.3-.7-.6-1.4-1.1-2h0s0,0,0,0c0,0,0,0,0-.1-.6-.7-1-1.5-1-2.4,0-.7.2-1.4.6-2,.4-.5.9-.9,1.5-1.2.5-.2,1.1-.3,1.6,0,0,0,.2,0,.3.2h.1c-.2-.7-1.5-.6-2.1-.4Z"/>
  <path class="cls-1" d="m56.9,140.6c-.6-.7-1-.1-.5.4.3.3.9.7.9.7-.1-.2-.2-.8-.4-1.1Z"/>
  <path class="cls-1" d="m58.6,147.1c0-.2-.3-.3-.5-.2-.2,0-.3.3-.2.5,0,.2.3.3.5.2.2,0,.3-.3.2-.5Z"/>
  <path class="cls-1" d="m182.1,14.3h-.2c-2.1-.9-5.2-2.5-7.8-5.7-1.5-1.8-2.6-4-3.3-6.3v-.2h-15.5c-4.1-1.4-8.4-2.1-12.8-2.1H44.6c-4.5,0-8.8.7-12.8,2.1h-15.5v.2c-1.1,2.6-2.5,5-4.4,7-1.9,2.1-4.2,3.8-6.8,5h-.1v14.3c-.9,2.3-1.6,4.8-2.1,7.3,0,0,0,.1-.1.2-.7.7-1.6,1.2-2.5,1.6h-.2c0,0,0,3.8,0,3.8h.2c.6.3,1.2.7,1.7,1.1,0,1.2-.1,2.4-.1,3.6v16.6c-.5.3-1,.7-1.6.9h-.2c0,0,0,3.8,0,3.8h.2c.6.3,1.1.6,1.6,1v20.3c-.5.3-1,.7-1.6.9h-.2c0,0,0,3.8,0,3.8h.2c.6.3,1.1.6,1.6,1v20.3c-.5.3-1,.7-1.6.9h-.2c0,0,0,3.8,0,3.8h.2c.6.3,1.1.6,1.6,1v16.6c0,1.2,0,2.4.1,3.6-.5.4-1.1.7-1.7,1h-.2c0,0,0,3.8,0,3.8h.2c.9.5,1.8,1,2.5,1.7,0,0,0,.1.1.2.5,2.5,1.3,5,2.2,7.3v14.3h.2c1.8.6,4.4,1.7,6.8,4.2,2.6,2.7,3.8,5.7,4.3,7.8v.2h15.5c4.1,1.4,8.4,2.1,12.8,2.1h24.9c.3,1.3,1.1,2.4,2.2,3.1,1.5.9,3.2,1,4.8.4,1.2-.4,2.2-1.3,2.6-2.6,0-.2,0-.3.1-.5,1.7,0,4.2.5,4.9,2.2v.3c.3-2.3-3.1-3.1-4.9-3.2,0-.7-.2-1.3-.7-1.9-.8-.9-2-1.2-3.1-1-.9.2-1.7.6-2.2,1.3-.3.4-.4.8-.4,1.2-.1,1.7,2,2.6,2.7.4-1.1.5-2.5-1-1.1-1.9.3-.2.7-.4,1.1-.4.9-.2,1.9,0,2.5.7.3.4.5.9.5,1.4-.1,0-.2,0-.3,0-1.2,0-1.8.5-1.9,1h.3c.5-.2,1.1-.3,1.7-.4,0,0,.2,0,.2,0,0,.1,0,.2,0,.3-.3,1.1-1.2,1.8-2.2,2.2-1.4.5-2.9.4-4.2-.4-1.1-.7-1.8-1.8-2-3.1,0-.7,0-1.4.4-2,.8-1.4,2.4-2.3,4-2.4,2.4-.1,5,1.1,7,2.3,1.9,1.1,3.6,2.4,5.3,3.7.7.6,2.5,1.7,3.5,1.8,1.1.2,2.5,0,3.5-.2.3,0,.5-.1.8-.2.4.1.8.2,1.2.3,1.1.2,2.4.4,3.5.2,1-.2,2.8-1.3,3.5-1.8,1.7-1.3,3.4-2.6,5.3-3.7,2-1.2,4.7-2.4,7-2.3,1.6,0,3.2,1,4,2.4.3.6.5,1.3.4,2-.1,1.3-.9,2.4-2,3.1-1.3.8-2.8.9-4.2.4-1-.4-1.9-1.1-2.2-2.2,0-.1,0-.2,0-.3,0,0,.2,0,.2,0,.5,0,1.1.1,1.7.3h.3c0-.4-.8-.8-1.9-.9-.1,0-.2,0-.3,0,0-.5.2-1,.5-1.4.6-.7,1.7-.9,2.5-.7.4,0,.8.2,1.1.4,1.4,1,0,2.4-1.1,1.9.7,2.2,2.8,1.3,2.7-.4,0-.4-.2-.9-.4-1.2-.5-.7-1.3-1.2-2.2-1.3-1.1-.2-2.4,0-3.1,1-.4.5-.7,1.2-.7,1.9-1.8,0-5.2.9-5,3.2v-.3c.8-1.7,3.3-2.2,5-2.2,0,.2,0,.3.1.5.4,1.3,1.4,2.2,2.6,2.6,1.6.6,3.3.5,4.8-.4,1.1-.7,2-1.9,2.2-3.2h22.4c4.5,0,8.8-.7,12.8-2.1h15.5v-.2c.9-2.6,2.3-4.9,4-6.9,2-2.2,4.4-4,7.2-5h.2v-14.4c2.1-5.4,3.2-11.3,3.2-17.6V46.2c0-6.2-1.2-12.1-3.2-17.6v-14.3Zm-11.7-11.7c.8,2.3,1.9,4.4,3.4,6.3,2.6,3.3,5.7,4.9,7.8,5.8v12.7c-4.8-11.5-13.8-20.5-24.9-24.7h13.7ZM44.6.2h97.9c4.2,0,8.2.7,12,1.9H32.6c3.8-1.2,7.8-1.9,12-1.9ZM5.5,14.6c2.6-1.2,4.9-2.9,6.8-5,1.8-2,3.3-4.4,4.4-7h13.8C19.3,6.8,10.2,15.9,5.5,27.4v-12.7ZM.5,41.2v-3.1c.8-.4,1.5-.8,2.1-1.4-.3,1.7-.6,3.5-.7,5.3-.4-.3-.9-.6-1.4-.8Zm2.5-4.8c.5-.5.9-1,1.3-1.6.7.6,1.8.7,2.6.2.7-.4,1.1-1.3,1-2.1h6.8s0,0,0,0c-1.2,1.5-2.5,2.8-4,4h0v5.1h0c1.5,1.3,2.8,2.6,4,4.1,0,0,0,0,0,.1h-6.9c.1-.8-.3-1.7-1-2.1-.8-.5-1.9-.4-2.6.2-.4-.6-.8-1.1-1.3-1.6-.3-.3-.6-.5-.9-.7.2-1.9.4-3.8.8-5.7,0,0,0,0,0,0Zm12.1,9.5c-1.2-1.5-2.5-2.8-3.9-4v-1.8l8.6,10h-2c-.7-1.5-1.6-2.9-2.6-4.2Zm2.6-16.8h2l-8.6,10v-1.8c1.5-1.2,2.8-2.5,3.9-4,1-1.3,1.9-2.7,2.6-4.2ZM.5,67.1v-3.1c.4-.2.8-.4,1.2-.7v4.4c-.4-.3-.8-.5-1.2-.7Zm13.7-.8c0,.9-.3,1.6-.6,2.3l-2.5-2.9v-.2l2.5-2.9c.3.6.5,1.4.6,2.3-.4,0-.6.4-.6.8s.3.7.6.8Zm.9,5.6c-.6-.7-1.1-1.4-1.8-2,.1-.2.3-.5.4-.8l6,7h-2c-.7-1.5-1.6-2.9-2.6-4.2Zm-1.9-2.2c-.6-.6-1.3-1.2-2-1.8v-1.8l2.4,2.8c-.1.3-.3.6-.4.8Zm-2-4.6v-1.8c.7-.6,1.4-1.2,2-1.8.1.2.3.5.4.8l-2.4,2.8Zm2.2-3.8c.6-.6,1.2-1.3,1.8-2,1-1.3,1.9-2.7,2.6-4.2h2l-6,7c-.1-.3-.3-.6-.4-.8Zm1.4-2.3c-1.2,1.5-2.5,2.8-4,4h0v5.1h0c1.5,1.2,2.8,2.6,4,4.1,0,0,0,0,0,.1h-6.9c.1-.8-.3-1.7-1-2.1-.8-.5-1.9-.4-2.6.2-.4-.6-.8-1.1-1.3-1.6-.3-.3-.7-.6-1-.8v-4.8c.4-.3.7-.5,1-.8.5-.5.9-1,1.3-1.6.7.6,1.8.7,2.6.2.7-.4,1.1-1.3,1-2.1h6.8s0,0,0,0ZM.5,93.1v-3.1c.4-.2.8-.4,1.2-.7v4.4c-.4-.3-.8-.5-1.2-.7Zm13.7-.8c-.1,1.5-.7,2.6-1.1,3.3-.6-.6-1.3-1.2-2-1.8v-4.6c.7-.6,1.4-1.2,2-1.8.5.8,1,1.9,1.1,3.4-.4,0-.6.4-.6.8s.3.7.6.8Zm.9,5.5c-.5-.7-1.1-1.4-1.8-2,.2-.3.3-.6.5-1,.3.5.6,1,1,1.4.5.6,1.1,1,1.8,1.4.2.7.5,1.4.9,2.1.5.9,1.3,1.6,2.1,2.2h-1.9c-.7-1.5-1.6-2.9-2.6-4.2Zm-1.8-10.6c.6-.6,1.2-1.3,1.8-2,1-1.3,1.9-2.7,2.6-4.2h1.9c-1.1.9-2,1.9-2.6,3.1-.2.4-.4.9-.5,1.4-.5.2-1.2.5-1.8,1.2-.5.5-.8,1.1-.9,1.6-.2-.4-.4-.8-.6-1.1Zm1.4-2.3c-1.2,1.5-2.5,2.8-4,4h0v5.1h0c1.5,1.3,2.8,2.6,4,4.1,0,0,0,0,0,.1h-6.9c.1-.8-.3-1.7-1-2.1-.8-.5-1.9-.4-2.6.2-.4-.6-.8-1.1-1.3-1.6-.3-.3-.7-.6-1-.8v-4.8c.4-.3.7-.5,1-.8.5-.5.9-1,1.3-1.6.7.6,1.8.7,2.6.2.7-.4,1.1-1.3,1-2.1h6.8s0,0,0,0ZM.5,119v-3.1c.4-.2.8-.4,1.2-.7v4.4c-.4-.3-.8-.5-1.2-.7Zm13.9-.6c-.4-.1-.8-.5-.8-1,0-.5.5-1,1-1s1,.5,1,1-.5,1-1,1c0,0-.1,0-.2,0Zm-1.3-1c0,.7.5,1.2,1,1.4-.2,1.1-.6,2.1-1,2.7-.6-.6-1.3-1.2-2-1.8v-4.6c.7-.6,1.4-1.2,2-1.8.5.8.8,1.7,1,2.7-.6.2-1,.8-1,1.4Zm2,6.3c-.5-.7-1.1-1.4-1.8-2,.2-.3.4-.7.5-1,1.3,1.5,2.6,3.1,3.8,4.7.2.3.5.4.8.5.8.3,1.5-.2,1.8-.4l2.2,2.3h-4.7c-.7-1.5-1.6-2.9-2.6-4.2Zm-1.8-10.6c.6-.6,1.2-1.3,1.8-2,1-1.3,1.9-2.7,2.6-4.2h4.7l-2.2,2.3c-.3-.2-1-.6-1.8-.4-.3,0-.6.3-.8.5-1.2,1.6-2.4,3.2-3.8,4.7-.2-.4-.3-.7-.5-1Zm1.4-2.3c-1.2,1.5-2.5,2.8-4,4h0v5.1h0c1.5,1.2,2.8,2.6,4,4.1,0,0,0,0,0,.1h-6.9c.1-.8-.3-1.7-1-2.1-.8-.5-1.9-.4-2.6.2-.4-.6-.8-1.1-1.3-1.6-.3-.3-.7-.6-1-.8v-4.8c.4-.3.7-.5,1-.8.5-.5.9-1,1.3-1.6.7.6,1.8.7,2.6.2.7-.4,1.1-1.3,1-2.1h6.8s0,0,0,0ZM.5,145v-3.1c.5-.2,1-.5,1.4-.8.1,1.8.4,3.5.7,5.3-.6-.6-1.4-1-2.1-1.4Zm14.6,4.7c-.6-.8-1.3-1.5-2-2.2.3-.3.6-.7.9-1.2.2-.4.4-.9.5-1.4.2,0,.3,0,.4,0,0,1.1,0,2.8.9,4.4.3.6,1.3,2.4,3.2,3.2.5.2,1.1.3,1.8.5.9.2,1.6.2,2.1.2.2,0,1.3,0,2-.1.2,0,.4-.1.4-.1.4-.1.7-.2.7-.2,2.8-.9,3.9.1,3.9.1.3.3.4.6.5,1.1h-12.8c-.7-1.5-1.6-2.9-2.6-4.2Zm-3.9-5.9l3.1,1c-.1.5-.3.9-.4,1.3-.2.5-.5.8-.8,1.1-.6-.6-1.2-1.1-1.8-1.6v-1.8Zm1.8-4.3c.3.3.6.7.9,1.2.2.4.3.8.4,1.2l-3,1v-1.8c.6-.5,1.2-1,1.8-1.6Zm1.6,4.9l-3.1-1,3.1-1c.5,0,1,.5,1,1s-.4,1-1,1Zm0-2.5h0c-.1-.5-.3-.9-.4-1.3-.2-.5-.6-.9-.9-1.3.7-.7,1.4-1.5,2-2.3,1-1.3,1.9-2.7,2.6-4.2h12.8c0,.5-.3.9-.5,1.1,0,0-1.1,1-3.9.1,0,0-.3-.1-.7-.2,0,0-.2,0-.4-.1-.7-.2-1.8-.1-2-.1-.5,0-1.2,0-2.1.2-.7.1-1.4.3-1.8.5-1.9.8-2.9,2.6-3.2,3.2-.9,1.6-1,3.3-.9,4.4-.1,0-.3,0-.5,0Zm.3-5.1c-1.2,1.5-2.5,2.8-4,4h0v2.3l-.9.3.9.3v2.2h0c1.5,1.2,2.8,2.6,4,4.1,0,0,0,0,0,.1h-6.9c.1-.8-.3-1.7-1-2.1-.8-.5-1.9-.4-2.6.2-.4-.6-.8-1.1-1.3-1.6,0,0,0,0,0,0-.4-1.9-.6-3.8-.8-5.7.3-.2.6-.4.9-.7.5-.5.9-1,1.3-1.6.7.6,1.8.7,2.6.2.7-.4,1.1-1.3,1-2.1h6.8s0,0,0,0Zm2,43.7c-.6-2.1-1.8-5.2-4.4-7.9-2.4-2.5-5-3.6-6.8-4.2v-12.7c4.8,11.5,13.8,20.5,24.9,24.7h-13.7Zm27.9,2.4c-4.2,0-8.2-.7-12-1.9h25.6s11.5,0,11.5,0c-.2.5-.2,1.1-.2,1.7,0,0,0,.1,0,.2h-24.9Zm42.4.7c-1.2-.9-2.3-1.8-3.6-2.6h0c.6.3,1.3.6,1.9.9.8.4,1.7.8,2.6,1.2,0,.4,0,.9.2,1.3,0,0,0,.1,0,.2-.5-.4-.9-.7-1.3-1Zm3.1,1.7c-.6-.2-1.1-.6-1.3-1.2,0-.2-.1-.5-.1-.8.8.3,1.6.7,2.4,1,.8.3,1.6.6,2.4.9-1,.2-2.3.4-3.3,0Zm-1.3-2.6c0,0,0-.1,0-.2,0-.1.1-.2.2-.3.4-.4,1.2-.7,1.7-.3.5.4.9,1.1.7,1.9,0,0-.1,0-.2,0-.8-.3-1.7-.7-2.5-1Zm12.1,1.5c-.2.6-.7,1-1.3,1.2-1.1.3-2.5,0-3.6-.1,0,0-.1,0-.2,0,.8-.2,1.5-.5,2.3-.8.1,0,.2,0,.3-.1h0c0,0,.1,0,.2,0,.8-.3,1.6-.6,2.4-1,0,.3,0,.7-.1,1Zm-2.7-.5c-.1-.7.3-1.3.7-1.7.5-.4,1.3-.1,1.7.3,0,0,.2.2.2.3-.8.3-1.6.7-2.4,1,0,0-.2,0-.2,0Zm2.9-1.8c-.9-1-2.5-.9-3.4,0-.9.9-.9,1.7-.5,2.2-.8.3-1.7.6-2.5.8-.8-.2-1.5-.5-2.3-.8.6-.4.8-1.3-.2-2.4-.9-.9-2.5-1-3.4,0-.1.1-.2.3-.3.5,0,0,0,.1-.1.2-.8-.4-1.6-.7-2.4-1.1-.5-.2-1-.5-1.5-.7h20.6c-.3.3-.7.4-1,.6-.8.4-1.7.8-2.5,1.2h0c0-.2-.2-.3-.3-.5Zm1.6,1.8c-.4.3-.8.6-1.3,1,0,0,0-.1,0-.2.2-.5.2-1,.1-1.5.9-.4,1.7-.8,2.6-1.2.6-.3,1.3-.6,1.9-.9,0,0,.2,0,.3-.1h.3c-1.4.9-2.8,1.9-4.1,2.9Zm14.2-5.7c-.5-.2-1-.3-1.6-.3-2.5-.1-5.3,1.2-7.4,2.4h0c0,0-.4,0-.4,0,0-.1-.2-.3-.5-.3h-23.1c0,.1-1,.1-1,.1,0,0-.1,0-.2,0h-.7s0,0,0,0c-2.1-1.2-4.9-2.5-7.4-2.4-.5,0-1.1.1-1.6.3-1.2.4-2.3,1.3-2.9,2.4,0,0,0,.1,0,.2h-16.4s-22.3,0-22.3,0c-11.5-4.2-20.9-13.5-25.6-25.4v-4.7h-.5v3.4c-.7-2-1.3-4.1-1.8-6.2.3.4.7.8.9,1.2l.2.3.2-.3c.6-.6,1.5-.8,2.2-.3.6.4.9,1.2.7,1.9v.3c0,0,7.8,0,7.8,0,.8,1.1,1.5,2.3,2.1,3.6h0c0,.1,25.4.1,25.4.1.1.3.4.5.7.5s.8-.3.8-.8-.3-.8-.8-.8-.6.2-.7.5h-12.1c0-.5-.3-1-.6-1.3,0,0-1.2-1.1-4.2-.2,0,0-.3,0-.7.2,0,0-.2,0-.4.1-.7.2-1.7.1-1.9.1-.5,0-1.2,0-2-.2-.7-.1-1.3-.3-1.8-.5-1.8-.7-2.8-2.5-3.1-3.1-.9-1.7-1-3.3-.9-4.4.5-.3.8-.7.8-1.3s-.3-1-.8-1.3c0-1.1,0-2.7.9-4.4.3-.6,1.3-2.3,3.1-3.1.5-.2,1.1-.3,1.8-.5.9-.2,1.5-.2,2-.2.2,0,1.2,0,1.9.1.2,0,.4.1.4.1.3,0,.6.2.7.2,2.9.9,4.1-.2,4.2-.2.3-.3.5-.8.6-1.3h12.1c.1.3.4.5.7.5s.8-.3.8-.8-.3-.8-.8-.8-.6.2-.7.5h-25.5c-.6,1.4-1.4,2.6-2.2,3.8h-7.8v.3c.3.7,0,1.5-.6,1.9-.7.4-1.6.3-2.2-.3l-.2-.2-.2.3c-.4.6-.9,1.2-1.4,1.7-.2.2-.4.3-.5.5,0-1.1-.1-2.3-.1-3.4v-16.4c.2.2.5.4.7.6.5.5,1,1.1,1.4,1.7l.2.3.2-.3c.6-.6,1.5-.8,2.2-.3.6.4.9,1.2.7,1.9v.3c0,0,7.8,0,7.8,0,.8,1.1,1.5,2.3,2.1,3.6h0c0,.1,25.4.1,25.4.1.1.3.4.5.7.5s.8-.3.8-.8-.3-.8-.8-.8-.6.2-.7.5h-20.1l-2.5-2.7h0c0,.1-.8.8-1.6.5-.3,0-.5-.2-.7-.5-1.2-1.7-2.5-3.3-3.9-4.8.2-.5.3-1,.4-1.5,0,0,.2,0,.2,0h0c.8,0,1.5-.7,1.5-1.5s-.7-1.5-1.5-1.5-.2,0-.2,0c0-.5-.2-1-.4-1.5,1.4-1.5,2.7-3.2,3.9-4.8.2-.2.4-.4.7-.5.8-.3,1.6.4,1.6.4h0c0,0,2.5-2.6,2.5-2.6h20.1c.1.3.4.5.7.5s.8-.3.8-.8-.3-.8-.8-.8-.6.2-.7.5h-25.5c-.6,1.4-1.4,2.6-2.2,3.8h-7.8v.3c.3.7,0,1.5-.6,1.9-.7.4-1.6.3-2.2-.3l-.2-.3-.2.3c-.4.6-.9,1.2-1.4,1.7-.2.2-.4.4-.7.6v-20c.2.2.5.4.7.6.5.5,1,1.1,1.4,1.7l.2.3.2-.3c.6-.6,1.5-.8,2.2-.3.6.4.9,1.2.7,1.9v.3c0,0,7.8,0,7.8,0,.8,1.1,1.5,2.3,2.1,3.6h0c0,.1,25.4.1,25.4.1.1.3.4.5.7.5s.8-.3.8-.8-.3-.8-.8-.8-.6.2-.7.5h-22.8c-.9-.6-1.7-1.4-2.3-2.4-.4-.6-.7-1.3-.9-2.1h0s0,0,0,0c-.7-.4-1.2-.8-1.7-1.4-.4-.4-.7-.9-1-1.5h0c.3-.6.5-1.4.6-2.3.4,0,.7-.4.7-.8s-.3-.7-.7-.8c0-.8-.3-1.5-.5-2.1h0c.1-.4.4-1.1,1-1.7.6-.6,1.3-1,1.7-1.1h0s0,0,0,0c.1-.5.3-.9.5-1.4.6-1.3,1.5-2.4,2.7-3.2h22.8c.1.3.4.5.7.5s.8-.3.8-.8-.3-.8-.8-.8-.6.2-.7.5h-25.5c-.6,1.4-1.4,2.6-2.2,3.8h-7.8v.3c.3.7,0,1.5-.6,1.9-.7.4-1.6.3-2.2-.3l-.2-.3-.2.3c-.4.6-.9,1.2-1.4,1.7-.2.2-.4.4-.7.6v-19.9c.2.2.5.4.7.6.5.5,1,1.1,1.4,1.7l.2.3.2-.3c.6-.6,1.5-.8,2.2-.3.6.4.9,1.2.7,1.9v.3c0,0,7.8,0,7.8,0,.8,1.1,1.5,2.3,2.1,3.6h0c0,.1,25.4.1,25.4.1.1.3.4.5.7.5s.8-.3.8-.8-.3-.8-.8-.8-.6.2-.7.5h-22.7l-6.2-7.2c.3-.7.5-1.5.6-2.5.4,0,.7-.4.7-.8s-.3-.7-.7-.8c0-1-.3-1.8-.6-2.5l6.2-7.2h22.7c.1.3.4.5.7.5s.8-.3.8-.8-.3-.8-.8-.8-.6.2-.7.5h-25.5c-.6,1.4-1.4,2.6-2.2,3.8h-7.8v.3c.3.7,0,1.5-.6,1.9-.7.4-1.6.3-2.2-.3l-.2-.3-.2.3c-.4.6-.9,1.2-1.4,1.7-.2.2-.4.4-.7.6v-16.4c0-1.2,0-2.3.1-3.4.2.2.4.3.5.5.5.5,1,1.1,1.4,1.7l.2.3.2-.3c.6-.6,1.5-.8,2.2-.3.6.4.9,1.2.7,1.9v.3c0,0,7.8,0,7.8,0,.8,1.1,1.5,2.3,2.1,3.6h0c0,.1,25.4.1,25.4.1.1.3.4.5.7.5s.8-.3.8-.8-.3-.8-.8-.8-.6.2-.7.5h-22.7l-8.9-10.4v-.2l8.9-10.4h22.7c.1.3.4.5.7.5s.8-.3.8-.8-.3-.8-.8-.8-.6.2-.7.5h-25.5c-.6,1.4-1.4,2.6-2.2,3.8h-7.8v.3c.3.7,0,1.5-.6,1.9-.7.4-1.6.3-2.2-.3l-.2-.3-.2.3c-.3.4-.6.8-.9,1.2.5-2.1,1.1-4.2,1.8-6.2v3.3h.5v-4.7C10.2,16.1,19.6,6.8,31.1,2.6h124.9c11.5,4.2,20.9,13.5,25.6,25.4v127c-4.8,11.9-14.1,21.2-25.6,25.4h-20.5s-15.9,0-15.9,0c0,0,0,0,0,0-.6-1.1-1.7-2-2.9-2.4Zm25.7,4.9h-22.4s0,0,0,0c0-.6,0-1.2-.2-1.8h9.8s24.8,0,24.8,0c-3.8,1.2-7.8,1.9-12,1.9Zm39.1-14.4c-2.7,1.1-5.2,2.9-7.2,5.1-1.8,2-3.1,4.3-4,6.9h-13.7c11.1-4.2,20.1-13.2,24.9-24.7v12.7Zm3.5-122.3v90.7c0,5.9-1.1,11.6-3,16.8V29.3c1.9,5.2,3,10.9,3,16.8Z"/>
</svg>