<?xml version="1.0" encoding="UTF-8"?>
<svg id="Layer_2" data-name="Layer 2" xmlns="http://www.w3.org/2000/svg" width="81.8" height="54.5" viewBox="0 0 81.8 54.5">
  <defs>
    <style>
      .cls-1 {
        fill: #1f1f1f;
        fill-rule: evenodd;
      }
    </style>
  </defs>
  <path class="cls-1" d="m47.9,53.3v-.2c.5-1.1,2.1-1.4,3.2-1.4,0,.1,0,.2,0,.3.2.8.9,1.4,1.6,1.7,1,.4,2.1.3,3-.3.8-.5,1.3-1.3,1.4-2.3,0,0,0-.1,0-.2h5.4c1.9,0,3.7-.3,5.5-.8h7.2v-.2c.4-1.1,1-2,1.8-2.8.9-.9,1.9-1.6,3.1-2h.2v-6.2c.9-2.2,1.4-4.6,1.4-7.1v-12.6c0-2.5-.5-4.9-1.4-7.1v-6.2h-.2c-.9-.4-2.3-1-3.4-2.4-.6-.7-1.1-1.6-1.5-2.5v-.2h-7.3c-1.7-.5-3.6-.8-5.5-.8H19.1c-1.9,0-3.7.3-5.5.8h-7.2v.2c-.5,1.1-1.2,2-2,2.8-.9.9-1.9,1.6-3,2h-.2v6.2c-.9,2.2-1.4,4.6-1.4,7.1v12.6c0,2.5.5,4.9,1.4,7.1v6.2h.2c.8.3,1.9.7,2.9,1.7,1.1,1.1,1.7,2.3,1.9,3.2v.2h7.3c1.7.5,3.6.8,5.5.8h5.9s0,0,0,0c0,.9.7,1.8,1.4,2.3.9.6,2,.6,3,.3.8-.3,1.4-.8,1.6-1.7,0-.1,0-.2,0-.3,1.1,0,2.7.3,3.1,1.4v.2c.2-1.5-1.9-2-3.1-2,0-.4-.2-.9-.4-1.2-.5-.6-1.3-.7-2-.6-.5,0-1.1.4-1.4.8-.2.2-.3.5-.3.8,0,1.1,1.3,1.6,1.7.3-.7.3-1.6-.6-.7-1.2.2-.1.5-.2.7-.3.6,0,1.2,0,1.6.5.2.3.3.6.3.9,0,0-.1,0-.2,0-.7,0-1.2.3-1.2.6h.2c.3-.2.7-.2,1.1-.2,0,0,.1,0,.2,0,0,0,0,.1,0,.2-.2.7-.7,1.2-1.4,1.4-.9.3-1.9.3-2.7-.2-.7-.4-1.2-1.2-1.3-2,0-.4,0-.9.3-1.3.5-.9,1.5-1.5,2.5-1.5,1.5,0,3.2.7,4.5,1.5,1.2.7,2.3,1.5,3.4,2.3.4.4,1.6,1.1,2.2,1.2.7.1,1.6,0,2.3-.1.2,0,.3,0,.5-.1.3,0,.5.1.8.2.7.2,1.5.3,2.3.1.6,0,1.8-.8,2.2-1.2,1.1-.8,2.2-1.7,3.4-2.3,1.3-.7,3-1.6,4.5-1.5,1,0,2,.6,2.5,1.5.2.4.3.8.3,1.3,0,.8-.6,1.5-1.3,2-.8.5-1.8.6-2.7.2-.7-.2-1.2-.7-1.4-1.4,0,0,0-.1,0-.2,0,0,.1,0,.2,0,.3,0,.7,0,1.1.2h.2c0-.2-.5-.5-1.2-.6,0,0-.1,0-.2,0,0-.3.1-.7.3-.9.4-.4,1.1-.6,1.6-.5.3,0,.5.1.7.3.9.6,0,1.5-.7,1.2.4,1.4,1.8.8,1.7-.3,0-.3-.1-.6-.3-.8-.3-.5-.8-.7-1.4-.8-.7-.1-1.5,0-2,.6-.3.3-.4.8-.4,1.2-1.2,0-3.3.6-3.2,2Zm14.8-2.6h-5.4c0-.2,0-.4-.1-.5h9.9c-1.4.3-2.9.5-4.4.5Zm17.3-6c-1.2.5-2.3,1.2-3.2,2.1-.8.8-1.4,1.8-1.8,2.8h-5.4c4.6-1.8,8.3-5.2,10.4-9.6v4.7Zm1.6-25.5v12.6c0,2.2-.4,4.3-1.1,6.3V12.8c.7,2,1.1,4.1,1.1,6.3Zm-6.5-17.8c.3.9.8,1.8,1.5,2.5,1.1,1.3,2.5,2,3.4,2.4v4.7c-2.1-4.4-5.8-7.9-10.4-9.6h5.4ZM19.1.3h43.5c1.5,0,3,.2,4.4.5H14.7c1.4-.3,2.9-.5,4.4-.5ZM1.9,6.2c1.1-.5,2.1-1.2,3-2.1.8-.8,1.5-1.8,1.9-2.8h5.5C7.7,3.1,4,6.5,1.9,10.9v-4.7ZM.3,31.8v-12.6c0-2.2.4-4.3,1.1-6.3v25.3c-.7-2-1.1-4.1-1.1-6.3Zm6.5,17.8c-.3-.9-.8-2.1-2-3.2-1-1-2.2-1.5-3-1.7v-4.7c2.1,4.4,5.8,7.9,10.4,9.6h-5.4Zm12.3,1c-1.5,0-3-.2-4.4-.5h10.4c0,.2,0,.4,0,.5h-5.9Zm17.1.9c-.7-.6-1.5-1.1-2.3-1.6h0c.4.2.8.4,1.2.6.5.3,1.1.5,1.6.8,0,.3,0,.5.1.8,0,0,0,0,0,.1-.3-.2-.6-.5-.8-.6Zm2,1.1c-.4-.1-.7-.4-.8-.8,0-.2,0-.3,0-.5.5.2,1,.4,1.5.6.5.2,1,.4,1.5.5-.6.1-1.5.2-2.1,0Zm-.8-1.6s0,0,0-.1c0,0,0-.1.1-.2.3-.3.7-.5,1.1-.2.3.2.6.7.4,1.2,0,0,0,0-.1,0-.5-.2-1.1-.4-1.6-.7Zm7.7,1c-.1.4-.5.6-.8.8-.7.2-1.6,0-2.3,0,0,0,0,0-.1,0,.5-.2,1-.3,1.5-.5,0,0,.1,0,.2,0h0s0,0,.1,0c.5-.2,1-.4,1.5-.6,0,.2,0,.4,0,.6Zm-1.7-.3c0-.4.2-.8.5-1.1.3-.3.8,0,1.1.2,0,0,0,.1.1.2-.5.2-1,.4-1.5.6,0,0,0,0-.1,0Zm1.8-1.1c-.6-.6-1.6-.6-2.2,0-.6.6-.6,1.1-.3,1.4-.5.2-1.1.4-1.6.5-.5-.1-1-.3-1.5-.5.4-.2.5-.8-.2-1.5-.6-.6-1.6-.6-2.2,0,0,0-.2.2-.2.3,0,0,0,0,0,.1-.5-.2-1-.5-1.6-.7-.3-.2-.6-.3-1-.5h13.1c-.2.2-.4.3-.6.4-.5.3-1.1.5-1.6.7h0c0-.1-.1-.2-.2-.3Zm1,1.1c-.2.2-.5.4-.8.6,0,0,0,0,0-.1.1-.3.2-.6,0-.9.6-.2,1.1-.5,1.7-.8.4-.2.8-.4,1.2-.6,0,0,.1,0,.2,0h.2c-.9.6-1.8,1.2-2.6,1.9Zm9-3.6c-.3-.1-.7-.2-1-.2-1.6,0-3.4.7-4.7,1.5h0s-.2,0-.2,0c0,0-.1-.2-.3-.2h-14.7c0,0-.6,0-.6,0,0,0,0,0,0,0h-.4s0,0,0,0c-1.3-.8-3.1-1.6-4.7-1.5-.3,0-.7,0-1,.2-.8.3-1.5.8-1.8,1.5,0,0,0,0,0,.1h-.1s-12.2,0-12.2,0c-5-1.7-9-5.4-11.1-10.2V11.5C4,6.8,8,3,13,1.3h55.8c5,1.7,9,5.4,11.1,10.2v27.8c-2.1,4.8-6.1,8.5-11.1,10.2h-11.8s0,0,0,0c-.4-.7-1.1-1.3-1.8-1.5Z"/>
  <path class="cls-1" d="m47,54c0-.4.5-1.9.5-1.9-.2,0-1,1.4-1.2,1.7-.3.8.5.9.6.2Z"/>
  <path class="cls-1" d="m50.4,50.6c0-.3-.2-.5-.4-.5-.3,0-.5.2-.5.4,0,.3.2.5.4.5.3,0,.5-.2.5-.4Z"/>
  <path class="cls-1" d="m32.3,50c-.3,0-.5.2-.4.5,0,.3.2.5.5.4.3,0,.5-.2.4-.5,0-.3-.2-.5-.5-.4Z"/>
  <path class="cls-1" d="m41.1,50.3c-.3,0-.6.3-.6.6,0,.3.3.6.6.6.3,0,.6-.3.6-.6,0-.3-.3-.6-.6-.6Z"/>
  <path class="cls-1" d="m34.7,52s.4,1.5.5,1.9c.1.7,1,.6.6-.2-.2-.3-1-1.7-1.2-1.7Z"/>
  <path class="cls-1" d="m37.2,53.6c-.4-.2-1.6-1.2-1.6-1.2,0,.2.9,1.4,1.2,1.7.6.6,1-.1.4-.5Z"/>
  <path class="cls-1" d="m45.1,53.7c-.6.4-.2,1.1.4.5.3-.3,1.2-1.5,1.2-1.7,0,0-1.3,1-1.6,1.2Z"/>
</svg>