<?xml version="1.0" encoding="utf-8"?>
<svg id="Layer_2" data-name="Layer 2" xmlns="http://www.w3.org/2000/svg" width="100%" height="100%" preserveAspectRatio="none" viewBox="0 0 185.5 391.9" preserveAspecRatio="none">
<defs>
    <style>
      .cls-1 {
        fill: #1f1f1f;
        fill-rule: evenodd;
      }
    </style>
  </defs>
<path class="st0" d="M1610.7,939.3c-9.2-7.8-24.8-21.5-30.5-37.1l-2.3-4.9V951h1.7v-42c7.5,13.7,21.3,26.4,30,33.2
	c16.7,13.7,35.1,24.4,53,34.2c15.6,7.8,32.3,14.7,48.4,18.6l7.5,2l-6.9-5.9c-16.7-12.7-34-32.3-43.8-59.6
	c-6.3-18.6-8.6-39.1-5.8-59.6v-2c-1.7,2-3.5,13.7-3.5,20.5c0,3.9,0,7.8,0,11.7v2c0,5.9-1.2,11.7-3.5,16.6
	c-5.8,13.7-17.3,18.6-26.5,16.6c-8.1-2-16.1-8.8-20.2-21.5c-0.6-2-1.2-3.9-1.7-5.9c-2.3-10.8-1.2-25.4,5.2-31.3
	c8.1-7.8,21.9-2,22.5,15.6c0,10.8-15,23.5-19.6,0c-0.6-2.9-4,17.6,5.2,22.5c9.2,4.9,17.9-6.8,17.3-23.5
	c-0.6-21.5-16.1-28.3-25.9-19.5c-7.5,6.8-9.2,23.5-6.3,36.2c0,2,1.2,4.9,1.7,6.8c2.3,7.8,6.3,13.7,10.9,17.6
	c3.5,2.9,7.5,4.9,10.9,5.9c10.4,2,22.5-2.9,28.8-18.6c1.2-2.9,2.3-5.9,2.9-9.8c1.2,6.8,2.9,14.7,5.8,20.5c8.6,24.4,23,42,38,55.7
	c-13.8-3.9-27.7-9.8-40.9-16.6c-17.9-8.8-35.7-19.5-52.4-33.2L1610.7,939.3z"/>
<path class="st0" d="M1792.7,845.4c30,27.4,43.2,95.8,14.4,161.3C1859.5,930.5,1817.5,852.3,1792.7,845.4z"/>
<path class="st0" d="M1685,879.6c-18.4,3.9-10.9,37.1-4.6,45.9C1674.6,905,1677.5,888.4,1685,879.6z"/>
<path class="st0" d="M1401,915.8c-26.5-11.7-23.6,28.3-17.3,42C1381.4,932.4,1388.9,917.8,1401,915.8z"/>
<path class="st0" d="M1583.6,875.7c-1.2,0-2.3,1-3.5,2.9l-255.2-3.9c-3.5,0-6.9,0-10.4,0c-9.8,0-98.5,0-97.9,11.7h2.3
	c10.4-4.9,38-3.9,61.6-3.9c24.2,3.9,28.8,8.8,40.9,16.6c12.1,7.8,13.2-6.8,9.2-14.7c13.2,0,27.1,2.9,40.3,4.9c2.3,0,5.2,1,7.5,2l0,0
	h2.9c18.4,3.9,54.7,20.5,55.3,60.6c0,13.7-2.3,28.3-10.4,34.2c-6.3,4.9-13.8,3.9-19.6-1c-5.8-4.9-10.4-12.7-9.2-24.4
	c1.2-11.7,12.1-16.6,18.4-8.8c-2.9,1-5.2,5.9-5.2,10.8c0,5.9,2.9,11.7,6.9,11.7c1.7,0,2.9,0,4-2c5.2-5.9,6.9-19.5,4-29.3
	c-4-12.7-15-17.6-23-9.8c-13.2,11.7-13.8,47.9,2.3,60.6c3.5,2.9,6.9,3.9,10.4,4.9c4.6,0,9.8,0,13.8-3.9c10.4-7.8,13.8-25.4,13.2-43
	c0-22.5-9.8-38.1-21.9-48.9c24.2,7.8,49,17.6,72.6,27.4c75.5,32.3,160.1,84.1,236.8,102.6c13.8,3.9,25.9,2.9,35.7-1
	c9.2,0,21.9,7.8,26.5,23.5c0,0,6.3-23.5-8.6-36.2c19-22.5,23-62.6,15.6-95.8c0-2.9,1.2-6.8,1.2-10.8c2.9-29.3-8.6-28.3-12.7-20.5
	c-10.9-19.5-27.7-29.3-49-20.5c-8.6,3.9-16.1,10.8-22.5,21.5c-18.4,34.2-5.2,84.1,20.7,90.9c4,1,7.5,0,11.5,0
	c36.3-16.6,19-94.8-9.2-70.4c-2.9,1-4.6,5.9-4.6,10.8c0,6.8,2.9,11.7,6.9,11.7c3.5,0,6.3-4.9,6.9-10.8c10.4,14.7,12.1,35.2,5.8,45
	c1.7-11.7-3.5-17.6-4-15.6c-1.2,2.9,0,15.6-5.2,21.5c-0.6,0-1.7,0-2.9,0c-23.6-2.9-38-45.9-20.7-77.2c5.2-9.8,12.1-15.6,19.6-18.6
	c68-29.3,87.6,169.1-9.2,144.7c-51.3-12.7-105.4-40.1-159-66.5v-71.3h9.2c0,2,1.7,3.9,3.5,3.9c2.3,0,4-2.9,4-6.8
	c0-3.9-1.7-6.8-4-6.8L1583.6,875.7z M1378.5,881.6L1378.5,881.6L1378.5,881.6L1378.5,881.6z M1383.1,882.6c-1.2,0-2.3,0-3.5,0l0,0
	H1383.1L1383.1,882.6z M1388.3,883.5c-1.2,0-2.3,0-3.5,0l0,0c0-1,3.5-1,3.5-1v2V883.5z M1392.9,884.5c-1.2,0-2.3,0-3.5,0v-2h3.5v2.9
	V884.5z M1398.1,885.5c-1.2,0-2.3,0-3.5,0v-3.9h3.5v4.9V885.5z M1402.7,886.5c-1.2,0-2.3,0-3.5,0v-4.9h3.5v5.9V886.5z M1407.9,887.5
	c-1.2,0-2.3,0-3.5,0v-5.9h3.5v6.8V887.5z M1412.5,888.4c-1.2,0-2.3,0-3.5,0v-7.8h3.5V888.4z M1417.7,890.4c-1.2,0-2.3,0-3.5-1v-8.8
	h3.5V890.4z M1422.3,892.3c-1.2,0-2.3,0-3.5-1v-9.8h3.5V892.3z M1427.5,894.3c-1.2,0-2.3,0-3.5-1v-11.7h3.5V894.3L1427.5,894.3z
	 M1432.1,896.3c-1.2,0-2.3,0-3.5-1v-12.7h3.5v14.7V896.3z M1437.3,898.2c-1.2,0-2.3,0-3.5-1v-14.7h3.5V898.2z M1441.9,900.2
	c-1.2,0-2.3,0-3.5-1v-16.6h3.5V900.2L1441.9,900.2z M1447.1,902.1c-1.2,0-2.3,0-3.5-1v-17.6h3.5v19.5V902.1z M1451.7,904.1
	c-1.2,0-2.3,0-3.5-1v-19.5h3.5V904.1z M1456.8,906c-1.2,0-2.3,0-3.5-1v-21.5h3.5V906L1456.8,906z M1461.5,908c-1.2,0-2.3,0-3.5-1
	v-23.5h3.5V908z M1466.6,909.9c-1.2,0-2.3,0-3.5-1v-24.4h3.5v26.4V909.9z M1471.3,911.9c-1.2,0-2.3,0-3.5-1v-26.4h3.5v28.3V911.9z
	 M1476.4,913.8c-1.2,0-2.3,0-3.5-1v-28.3h3.5v30.3V913.8z M1481,915.8c-1.2,0-2.3,0-3.5-1v-30.3h3.5V915.8z M1486.2,917.8
	c-1.2,0-2.3,0-3.5-1v-32.3h3.5v34.2V917.8z M1490.8,919.7c-1.2,0-2.3,0-3.5-1v-34.2h3.5v36.2V919.7z M1496,921.7c-0.6,0-1.7,0-2.3-1
	h-1.2v-37.1h3.5V921.7z M1500.6,923.6c-1.2,0-2.3,0-3.5-1v-38.1h3.5v40.1V923.6z M1505.8,925.6c-1.2,0-2.3-1-3.5-2v-40.1h3.5V925.6
	L1505.8,925.6z M1511,927.5c-1.2,0-2.3-1-3.5-2v-42h3.5V927.5z M1515.6,929.5c-1.2,0-2.3-1-3.5-2v-45h3.5v45.9V929.5z M1520.8,931.4
	c-1.2,0-2.3-1-3.5-2v-46.9h3.5v47.9V931.4z M1525.4,933.4l-3.5-2v-48.9h3.5V933.4z M1530.6,935.3l-3.5-2v-50.8h3.5V935.3
	L1530.6,935.3z M1535.2,937.3l-3.5-2v-53.8h3.5v54.7V937.3z M1540.4,939.3c-1.2,0-2.3-1-3.5-2v-55.7h3.5v56.7V939.3z M1545,941.2
	l-3.5-2v-57.7h3.5V941.2z M1550.2,943.2l-3.5-2v-60.6h4v61.6L1550.2,943.2z M1554.8,945.1l-3.5-2v-62.6h3.5V945.1z M1560,947.1
	l-3.5-2v-64.5h4v66.5L1560,947.1z M1564.6,949l-3.5-2v-67.4h3.5v68.4V949z M1569.8,952l-3.5-2v-69.4h4V952L1569.8,952z"/>
<path class="st0" d="M1378.5,903.1c-20.7-2.9-17.9,32.3-8.6,40.1C1364.7,924.6,1369.3,909,1378.5,903.1z"/>
<path class="st0" d="M1706.3,878.7c-27.1-2-18.4,47.9-9.8,63.5C1690.2,910.9,1695.3,887.5,1706.3,878.7z"/>
<polygon class="st1" points="1196.8,863.5 1196.8,858.6 1404.8,862.3 1404.7,867.2 "/>
<path class="st0" d="M1357.8,898.2c-13.2-2-11.5,20.5-5.2,24.4C1350.9,910.9,1354.3,902.1,1357.8,898.2z"/>
<path class="st0" d="M42.1,1006.7c-29.4-65.5-16.1-134.9,14.4-161.3C31.7,852.3-10.4,930.5,42.1,1006.7z"/>
<path class="st0" d="M491.4,898.2c4,3.9,6.9,13.7,5.2,24.4C502.3,917.8,504.1,895.3,491.4,898.2z"/>
<path class="st0" d="M448.7,915.8c12.1,2,19.6,17.6,17.3,42C472.4,943.2,475.2,904.1,448.7,915.8z"/>
<polygon class="st1" points="445.4,861.9 653.3,858.2 653.4,863.1 445.4,866.8 "/>
<path class="st0" d="M470.6,903.1c9.2,5.9,13.8,20.5,8.6,40.1C488.5,936.3,491.4,900.2,470.6,903.1z"/>
<path class="st0" d="M142.9,878.7c11.5,8.8,16.1,32.3,9.8,63.5C161.3,926.6,169.9,876.7,142.9,878.7z"/>
<path class="st0" d="M164.8,879.6c7.5,7.8,9.8,25.4,4.6,45.9C175.7,916.8,183.8,883.5,164.8,879.6z"/>
<path class="st0" d="M130.2,996.9l7.5-2c16.1-3.9,32.8-10.8,48.4-18.6c17.9-8.8,36.3-19.5,53-34.2c8.6-6.8,22.5-19.5,29.4-33.2v42
	h2.3v-53.8l-2.3,4.9c-5.8,14.7-21.3,29.3-30.5,37.1c-16.7,13.7-34.6,24.4-52.4,33.2c-13.2,6.8-27.1,12.7-40.9,16.6
	c15-13.7,29.4-31.3,38-55.7c2.3-6.8,4-13.7,5.8-20.5c0.6,3.9,1.7,6.8,2.9,9.8c6.3,14.7,18.4,20.5,28.8,18.6c4,0,7.5-2.9,10.9-5.9
	c4.6-3.9,8.1-9.8,10.9-17.6c0.6-2,1.2-4.9,1.7-6.8c2.9-12.7,1.2-29.3-6.3-36.2c-9.8-8.8-25.3-2-25.9,19.5c0,16.6,8.1,28.3,17.3,23.5
	c9.2-5.9,5.8-25.4,5.2-22.5c-5.2,22.5-20.2,10.8-19.6,0c0.6-18.6,14.4-23.5,22.5-15.6c6.3,5.9,7.5,20.5,5.2,31.3
	c0,2-1.2,3.9-1.7,5.9c-4,12.7-12.1,19.5-20.2,21.5c-9.2,2-20.7-2.9-26.5-16.6c-2.3-4.9-2.9-10.8-3.5-16.6v-2c0-3.9,0-7.8,0-11.7
	c0-6.8-1.7-17.6-4-20.5v2c3.5,20.5,1.2,41-5.2,59.6c-9.8,27.4-27.1,45.9-43.8,59.6l-6.9,5.9L130.2,996.9z"/>
<path class="st0" d="M111.2,869.9c-20.7-8.8-38,2-49,20.5c-4-7.8-15.6-8.8-12.7,20.5c0,3.9,1.2,7.8,1.2,10.8
	c-7.5,33.2-2.9,73.3,15.6,95.8c-15,12.7-8.6,36.2-8.6,36.2c4.6-15.6,17.3-22.5,26.5-23.5c9.8,3.9,21.3,4.9,35.7,1
	c76.6-19.5,160.7-71.3,236.8-102.6c24.2-9.8,48.4-19.5,72.6-27.4c-12.1,10.8-21.3,26.4-21.9,48.9c0,17.6,2.9,35.2,13.2,43
	c4,2.9,9.2,4.9,13.8,3.9c3.5,0,6.9-2,10.4-4.9c16.1-13.7,15.6-48.9,2.3-60.6c-8.1-7.8-19-2-23,9.8c-3.5,9.8-1.7,23.5,4,29.3
	c1.2,2,2.9,2,4,2c3.5,0,6.9-4.9,6.9-11.7c0-4.9-2.3-9.8-5.2-10.8c6.3-7.8,17.3-2.9,18.4,8.8c1.2,11.7-3.5,19.5-9.2,24.4
	c-5.8,4.9-13.8,5.9-19.6,1c-8.1-5.9-10.4-20.5-10.4-34.2c1.2-40.1,36.9-55.7,55.3-60.6h2.9l0,0c2.3,0,5.2-1,7.5-2
	c13.2-2.9,26.5-4.9,40.3-4.9c-4,8.8-2.9,22.5,9.2,14.7c12.1-7.8,16.7-12.7,40.9-16.6c23.6,0,51.3,0,61.6,2.9h2.3
	c0-10.8-88.1-10.8-97.9-10.8c-3.5,0-6.9,0-10.4,0l-255.2,3.9c-0.6-2-1.7-2.9-3.5-2.9c-2.3,0-4,2.9-4,6.8c0,3.9,1.7,6.8,4,6.8
	c1.7,0,2.9-2,3.5-3.9h8.6v71.3c-53,26.4-107.7,53.8-159,66.5c-96.8,24.4-77.2-174-9.2-144.7c7.5,2.9,14.4,9.8,19.6,18.6
	c16.7,31.3,2.3,73.3-20.7,77.2c-1.2,0-1.7,0-2.9,0c-5.2-5.9-4-18.6-5.2-21.5c0-1-6.3,3.9-4,15.6c-6.3-9.8-4.6-30.3,5.8-45
	c0,5.9,3.5,10.8,6.9,10.8c3.5,0,6.9-4.9,6.9-11.7c0-4.9-1.7-9.8-4.6-10.8c-28.2-25.4-45.5,53.8-9.2,70.4c3.5,2,7.5,2,11.5,0
	c25.9-6.8,39.2-56.7,20.7-90.9c-5.8-10.8-13.8-18.6-22.5-21.5L111.2,869.9z M470.6,881.6L470.6,881.6L470.6,881.6L470.6,881.6z
	 M468.9,881.6L468.9,881.6c-1.2,0-2.3,0-3.5,1l0,0C465.5,881.6,468.9,881.6,468.9,881.6z M464.3,881.6L464.3,881.6
	c-1.2,2-2.3,2-3.5,2v-2H464.3z M459.1,881.6v2c-1.2,0-2.3,0-3.5,0v-2.9h3.5V881.6z M454.5,881.6v3.9c-1.2,0-2.3,0-3.5,0v-4.9h3.5
	V881.6z M449.3,881.6v4.9c-1.2,0-2.3,0-3.5,0v-5.9h3.5V881.6z M444.7,881.6v5.9c-1.2,0-2.3,0-3.5,0v-6.8h3.5V881.6z M439.5,881.6
	v7.8c-1.2,0-2.3,0-3.5,0v-7.8H439.5z M434.9,881.6v8.8c-1.2,0-2.3,0-3.5,1v-9.8H434.9z M429.7,881.6v9.8c-1.2,0-2.3,0-3.5,1v-10.8
	H429.7z M425.1,881.6v11.7c-1.2,0-2.3,0-3.5,1v-12.7L425.1,881.6L425.1,881.6z M419.9,881.6v12.7c-1.2,0-2.3,0-3.5,1v-14.7h3.5
	V881.6z M415.3,881.6v14.7c-1.2,0-2.3,0-3.5,1v-15.6H415.3z M410.2,881.6v16.6c-1.2,0-2.3,0-2.9,1v-17.6L410.2,881.6L410.2,881.6z
	 M405.5,881.6v17.6c-1.2,0-2.3,0-3.5,1v-19.5h3.5V881.6z M400.4,881.6v19.5c-1.2,0-2.3,0-2.9,1v-20.5H400.4z M395.8,881.6v21.5
	c-1.2,0-2.3,0-3.5,1v-22.5L395.8,881.6L395.8,881.6z M390.6,881.6V905c-1.2,0-2.3,0-2.9,1v-24.4H390.6z M386,881.6V906
	c-1.2,0-2.3,0-3.5,1v-26.4h3.5V881.6z M380.8,881.6V908c-1.2,0-2.3,0-2.9,1v-28.3h2.9V881.6z M376.2,881.6v28.3c-1.2,0-2.3,0-3.5,1
	v-30.3h3.5V881.6z M371,881.6v30.3c-1.2,0-1.7,0-2.9,1v-31.3H371z M366.4,881.6v32.3c-1.2,0-2.3,0-3.5,1v-34.2h3.5V881.6z
	 M361.2,881.6v34.2c-1.2,0-1.7,0-2.9,1v-36.2h2.9V881.6z M356.6,881.6v36.2h-1.2c-0.6,0-1.7,0-2.3,1v-38.1h3.5L356.6,881.6z
	 M351.4,881.6v38.1c-0.6,0-1.7,0-2.9,1v-40.1h2.9V881.6z M346.8,881.6v40.1c-1.2,0-2.3,1-3.5,2v-42L346.8,881.6L346.8,881.6z
	 M341.6,881.6v42c-1.2,0-2.3,1-2.9,2v-44H341.6z M336.4,881.6v45c-0.6,0-1.7,1-2.9,2v-45.9h2.9V881.6z M331.8,881.6v46.9
	c-0.6,0-1.7,1-2.9,2v-47.9h2.9V881.6z M326.6,881.6v48.9l-2.9,2v-50.8H326.6z M322,881.6v50.8l-2.9,2v-52.8L322,881.6L322,881.6z
	 M316.8,881.6v53.8l-2.9,2v-54.7h2.9V881.6z M312.2,881.6v55.7c-0.6,0-1.7,1-2.9,2v-56.7h2.9V881.6z M307,881.6v57.7l-2.9,2v-59.6
	H307z M302.4,881.6v60.6l-2.9,2v-61.6h2.9V881.6z M297.2,881.6v62.6l-2.9,2v-64.5H297.2z M292.6,881.6v64.5l-2.9,2v-66.5
	L292.6,881.6L292.6,881.6z M287.5,881.6V949l-2.9,2v-68.4h2.9V881.6z M282.8,881.6V951l-2.9,2v-71.3L282.8,881.6L282.8,881.6z"/>
<path class="st0" d="M1113.5,147.6c4,0,7.5-5.9,7.5-12.7s-3.5-12.7-7.5-12.7s-7.5,5.9-7.5,12.7S1109.5,147.6,1113.5,147.6z"/>
<path class="st0" d="M655.6,32.3c0.6-19.5-12.1-26.4-12.1-2.9c0,27.4,0,78.2-18.4,114.4c-1.2,2.9-4,5.9-2.9,4.9
	C635.4,137.8,654.4,73.3,655.6,32.3L655.6,32.3z"/>
<path class="st0" d="M1135.4,142.7c2.3,0,4.6-3.9,4.6-7.8c0-3.9-2.3-7.8-4.6-7.8c-2.3,0-4.6,3.9-4.6,7.8
	C1130.8,138.8,1133.1,142.7,1135.4,142.7z"/>
<path class="st0" d="M1240.8,148.6c1.2,0-1.7-2-2.9-4.9c-18.4-36.2-18.4-87-18.4-114.4c0-24.4-12.7-17.6-12.1,2.9
	C1208.6,73.3,1227.6,137.8,1240.8,148.6z"/>
<path class="st0" d="M640,132.9c23-11.7,49.5-38.1,64.5-70.4c6.9-15.6-2.9-27.4-9.2-13.7c-15.6,35.2-26.5,55.7-48.4,78.2
	c-4,3.9-6.9,6.8-6.3,6.8L640,132.9z"/>
<path class="st0" d="M1223,132.9c0,0-2.9-2.9-6.3-6.8c-21.9-22.5-32.8-43-48.4-78.2c-6.3-13.7-16.1-2-9.2,13.7
	c14.4,32.3,41.5,58.6,64.5,70.4L1223,132.9z"/>
<path class="st0" d="M881.9,45c-35.1,13.7-47.8,62.6-17.9,108.5C849.7,114.4,860.1,64.5,881.9,45z"/>
<path class="st0" d="M749.5,122.2c-4,0-7.5,5.9-7.5,12.7s3.5,12.7,7.5,12.7c4,0,7.5-5.9,7.5-12.7S753.5,122.2,749.5,122.2z"/>
<path class="st0" d="M727.6,127.1c-2.3,0-4.6,3.9-4.6,7.8c0,3.9,2.3,7.8,4.6,7.8s4.6-3.9,4.6-7.8C732.2,131,729.9,127.1,727.6,127.1
	z"/>
<path class="st0" d="M827.8,139.8c-12.7-35.2-3.5-79.2,15.6-95.8C811.7,56.7,800.7,99.7,827.8,139.8z"/>
<path class="st0" d="M998.9,152.5c30-45.9,17.9-93.8-17.9-108.5C1002.9,63.5,1012.7,113.4,998.9,152.5z"/>
<path class="st0" d="M781.7,104.6c-7.5,0-13.8,10.8-13.8,23.5s6.3,23.5,13.8,23.5c7.5,0,13.8-10.8,13.8-23.5
	S789.2,104.6,781.7,104.6z"/>
<path class="st0" d="M1035.2,139.8c27.1-41,15.6-84.1-15.6-95.8C1039.2,61.6,1047.8,105.6,1035.2,139.8z"/>
<path class="st0" d="M1081.3,151.5c7.5,0,13.8-10.8,13.8-23.5s-6.3-23.5-13.8-23.5s-13.8,10.8-13.8,23.5S1073.8,151.5,1081.3,151.5z
	"/>
<path class="st0" d="M1855.5,114.4c3.5,2,7.5,2.9,9.2,1c0,0-3.5-6.8-6.3-10.8C1853.2,98.7,1848,109.5,1855.5,114.4z"/>
<path class="st0" d="M1863,241.4c0.6,0,1.7,0,2.3,1c-0.6,14.7-3.5,37.1-12.7,42h-1.7c12.1,3.9,16.7-25.4,17.9-42
	c3.5,0,6.9-2,9.8-4.9c4.6-5.9,6.3-17.6,5.8-27.4c-0.6-7.8-2.9-14.7-6.3-19.5c-1.7-2-4-3.9-6.3-3.9c-8.6-2-13.8,16.6-2.9,23.5
	c-2.3-9.8,5.8-22.5,10.4-8.8c1.2,2.9,1.7,6.8,1.7,9.8c0.6,7.8-0.6,17.6-4.6,22.5c-2.3,2.9-5.2,3.9-7.5,3.9c0,0,0-2,0-2.9
	c0-9.8-2.3-16.6-4.6-17.6v2.9c1.2,4.9,1.2,9.8,1.2,14.7c0,0,0,1,0,2c0,0-1.2,0-1.7,0c-5.8-2.9-9.2-10.8-10.9-20.5
	c-2.3-12.7-1.7-26.4,2.9-37.1c4-8.8,9.8-15.6,16.7-16.6c3.5,0,7.5,1,10.4,3.9c6.9,6.8,11.5,21.5,11.5,36.2c0,20.5-6.9,44-13.8,61.6
	c-6.3,15.6-13.2,31.3-20.2,45c-3.5,6.8-10.4,23.5-10.4,32.3c5.2-14.7,10.4-22.5,13.8-29.3c6.9-14.7,13.8-29.3,20.2-45
	c3.5-8.8,6.9-18.6,9.2-29.3c4.6-11.7,13.2-37.1,10.4-49.8c-1.7-6.8-5.8-7.8-7.5-4.9c-1.2-6.8-2.9-13.7-4-17.6
	c-5.2-15.6-11.5-30.3-17.3-45c4-2,8.1-2.9,12.1-1c6.3,2,12.1,6.8,16.7,14.7c5.8,8.8,9.2,20.5,11.5,33.2c2.9,17.6,2.3,36.2,0,52.8
	c-0.6,6.8-1.7,13.7-3.5,20.5c-1.7,7.8-12.1,45-8.1,51.8c2.9-22.5,11.5-44,15-70.4c2.3-18.6,2.9-38.1,0-55.7
	c-2.3-13.7-6.3-26.4-12.7-36.2c-5.2-7.8-11.5-13.7-18.4-15.6c-5.2-1-10.4,0-15,2c-3.5-7.8-6.3-16.6-9.2-24.4
	c-3.5-10.8-5.8-23.5-5.2-36.2c0-9.8,2.3-17.6,6.3-24.4c3.5-5.9,7.5-10.8,12.7-12.7c4-2,9.2-2,12.7,2c1.7,2,3.5,3.9,5.2,6.8
	c4.6,8.8,5.2,22.5,2.9,33.2c-2.9,13.7-23.6,9.8-20.7-17.6c-16.7,18.6-3.5,49.8,10.4,42c6.3-2.9,11.5-10.8,13.8-22.5
	c2.9-12.7,1.7-28.3-4-39.1c-1.7-3.9-4-5.9-6.3-7.8c-4.6-3.9-10.4-3.9-15.6-2c-5.2,2-10.4,7.8-14.4,14.7c-4,7.8-6.9,17.6-7.5,28.3
	c-0.6,13.7,1.7,27.4,5.8,39.1c2.9,8.8,5.8,16.6,8.6,24.4c-6.3,6.8-12.1,26.4-7.5,42v-2.9c0-13.7,2.9-26.4,9.8-33.2l0,0
	c5.2,13.7,11.5,27.4,16.1,41c-0.6-1-1.7-2-2.3-2.9c-3.5-3.9-8.1-5.9-12.1-4.9c-7.5,0-15,7.8-19,18.6c-5.2,12.7-5.8,27.4-3.5,42
	c1.7,10.8,6.3,19.5,12.7,23.5L1863,241.4z"/>
<path class="st0" d="M1850.9,309.8c1.7,0,3.5-2.9,3.5-5.9c0-2.9-1.7-5.9-3.5-5.9s-3.5,2.9-3.5,5.9
	C1847.4,306.9,1849.1,309.8,1850.9,309.8z"/>
<path class="st0" d="M1850.9,790.7c1.7,0,3.5-2.9,3.5-5.9s-1.7-5.9-3.5-5.9s-3.5,2.9-3.5,5.9S1849.1,790.7,1850.9,790.7z"/>
<path class="st0" d="M1902.7,797.5c-4,5.9,6.3,43,8.1,51.8c1.2,6.8,2.3,13.7,3.5,20.5c2.3,17.6,2.9,36.2,0,52.8
	c-1.7,12.7-5.8,24.4-11.5,33.2c-4.6,6.8-10.4,12.7-16.7,14.7c-4,1-8.1,0-12.1-1c5.8-14.7,12.1-29.3,17.3-45c1.2-3.9,2.9-10.8,4-17.6
	c2.3,2.9,5.8,2,7.5-4.9c2.9-12.7-5.8-38.1-10.4-49.8c-2.9-10.8-6.3-20.5-9.2-29.3c-5.8-15.6-12.7-30.3-20.2-45
	c-3.5-6.8-8.6-15.6-13.8-29.3c0,8.8,6.9,25.4,10.4,32.3c7.5,14.7,14.4,29.3,20.2,45c6.3,17.6,13.8,40.1,13.8,61.6
	c0,13.7-4.6,28.3-11.5,36.2c-3.5,2.9-6.9,4.9-10.4,3.9c-6.9,0-12.7-6.8-16.7-16.6c-4.6-10.8-5.2-24.4-2.9-37.1
	c1.7-8.8,5.2-16.6,10.9-20.5c0,0,1.2,0,1.7,0c0,0,0,1,0,2c0,4.9,0,9.8-1.2,14.7v2.9c2.3,0,4-6.8,4-17.6c0,0,0-2,0-2.9
	c2.9,0,5.2,1,7.5,3.9c4,4.9,5.2,14.7,4.6,22.5c0,3.9-1.2,6.8-1.7,9.8c-4.6,12.7-12.7,1-10.4-8.8c-10.9,6.8-5.8,25.4,2.9,23.5
	c2.3,0,4.6-2,6.3-3.9c3.5-4.9,5.8-11.7,6.3-19.5c0.6-9.8-1.2-21.5-5.8-27.4c-2.9-3.9-6.3-5.9-9.8-4.9c-0.6-15.6-5.8-45.9-17.9-43
	h1.7c9.2,6.8,12.1,28.3,12.7,43c-1.2,0-1.7,0-2.3,1c-6.3,3.9-10.9,12.7-12.7,23.5c-2.9,14.7-1.7,29.3,3.5,42
	c4.6,10.8,11.5,17.6,19,18.6c4.6,0,8.6-1,12.1-4.9c0.6,0,1.7-2,2.3-2.9c-5.2,14.7-10.9,27.4-16.1,41l0,0c-6.9-6.8-9.8-19.5-9.8-33.2
	v-2.9c-4.6,15.6,1.2,35.2,7.5,42c-2.9,7.8-6.3,15.6-8.6,24.4c-4,11.7-6.3,25.4-5.8,39.1c0,10.8,2.9,20.5,7.5,28.3
	c4,6.8,8.6,11.7,14.4,14.7c5.2,2,10.9,2,15.6-2c2.3-2,4.6-4.9,6.3-7.8c5.2-10.8,6.3-26.4,4-39.1c-2.3-11.7-7.5-19.5-13.8-22.5
	c-13.8-6.8-27.1,23.5-10.4,42c-2.9-27.4,17.9-31.3,20.7-17.6c2.3,10.8,1.2,24.4-2.9,33.2c-1.2,2.9-2.9,4.9-5.2,6.8
	c-4,2.9-8.6,2.9-12.7,2c-4.6-2-9.2-6.8-12.7-12.7c-3.5-6.8-5.8-15.6-6.3-24.4c-0.6-12.7,1.7-24.4,5.2-36.2
	c2.9-8.8,5.8-16.6,9.2-24.4c4.6,2.9,9.8,3.9,15,2c6.9-2,13.2-7.8,18.4-15.6c6.3-9.8,10.4-22.5,12.7-36.2c2.9-18.6,2.3-38.1,0-55.7
	c-3.5-26.4-12.1-46.9-15-70.4L1902.7,797.5z"/>
<path class="st0" d="M1858.4,984.2c3.5-3.9,6.3-10.8,6.3-10.8c-1.7-2-5.8,0-9.2,1C1848,979.3,1852.6,990.1,1858.4,984.2z"/>
<path class="st0" d="M1792.1,88.9c0,0-13.2-12.7-18.4-35.2c-3.5-15.6-10.9-5.9-6.9,4.9C1771.4,71.3,1784.6,87,1792.1,88.9
	L1792.1,88.9z"/>
<path class="st0" d="M1743.2,80.1c8.1,2.9,24.2,2.9,27.7,3.9l0,0c-8.1-4.9-15.6-14.7-25.9-19.5c-9.8-3.9-10.4,11.7-2.3,15.6H1743.2z
	"/>
<path class="st0" d="M1761.6,106.5c-6.9,6.8-11.5,16.6-12.1,30.3c-0.6,9.8,0.6,19.5,3.5,28.3c2.3,7.8,6.3,14.7,10.4,19.5
	c4,4.9,8.6,7.8,13.8,6.8c5.2,0,9.8-4.9,13.2-10.8c2.3-3.9,4-8.8,5.2-13.7c2.9-14.7,0-33.2-9.2-39.1c-3.5-2-8.1,0-11.5,2
	c-10.4,9.8-9.2,27.4-4.6,34.2c5.2,8.8,15.6,4.9,12.1,0c-6.9-8.8-7.5-33.2,2.3-27.4c6.3,3.9,7.5,17.6,5.8,27.4s-7.5,16.6-13.2,17.6
	c-8.1,1-15.6-9.8-19-21.5c-2.3-6.8-3.5-15.6-2.9-23.5c0.6-10.8,4.6-18.6,9.8-23.5c4.6-4.9,9.8-6.8,15-5.9c5.8,0,11.5,3.9,16.1,9.8
	c10.9,13.7,15.6,37.1,17.3,59.6c0.6,8.8,1.2,17.6,0.6,25.4v4.9c4-4.9,5.8-14.7,4.6-31.3c-1.7-25.4-7.5-50.8-19.6-66.5
	c-5.8-6.8-12.1-10.8-19-10.8c-6.3,0-12.1,2-17.9,7.8L1761.6,106.5z"/>
<path class="st0" d="M78.9,84.1c3.5-2,19.6-1,27.7-3.9c8.6-2.9,7.5-19.5-2.3-15.6c-10.4,3.9-17.9,14.7-25.9,19.5l0,0H78.9z"/>
<path class="st0" d="M82.4,58.6c3.5-9.8-3.5-19.5-6.9-4.9C70.3,75.3,57,88.9,57,88.9C64.5,87,78.3,70.4,82.4,58.6z"/>
<path class="st0" d="M35.7,208.2v-4.9c0-7.8,0-16.6,0.6-25.4c1.7-23.5,6.3-46.9,17.3-59.6c4.6-5.9,10.4-8.8,16.1-9.8
	c5.2,0,10.4,2,15,5.9c5.2,4.9,8.6,12.7,9.8,23.5c0,7.8-0.6,16.6-2.9,23.5c-3.5,11.7-10.9,22.5-19,21.5c-5.8,0-11.5-7.8-13.2-17.6
	s-0.6-23.5,5.8-27.4c9.8-5.9,9.2,18.6,2.3,27.4c-3.5,4.9,6.3,7.8,12.1,0c4.6-6.8,5.8-24.4-4.6-34.2c-3.5-2.9-8.1-3.9-11.5-2
	c-9.2,5.9-12.1,24.4-9.2,39.1c1.2,4.9,2.9,9.8,5.2,13.7c3.5,5.9,8.1,9.8,13.2,10.8c5.2,0,9.8-2,13.8-6.8c4.6-4.9,8.1-12.7,10.4-19.5
	c2.9-8.8,4-18.6,3.5-28.3c-1.2-13.7-5.8-23.5-12.1-30.3c-5.2-4.9-11.5-7.8-17.9-7.8c-6.9,0-13.2,3.9-19,10.8
	c-12.1,14.7-17.9,41-19.6,66.5c-1.2,16.6,0,26.4,4.6,31.3L35.7,208.2z"/>
<path class="st1" d="M1840.5,172v-23.5h-2.9c0,7.8-1.2,15.6-2.9,22.5c-2.9,12.7-7.5,24.4-13.8,34.2v19.5h-24.8c-1.2-1-2.9-2.9-4-3.9
	c-10.4-8.8-20.7-7.8-24.8-6.8c-21.3,2-57.6,2-121,0c-5.2,3.9-9.8,7.8-15,10.8H1337c-1.2,0-2.3,0-3.5-1
	c-15.6-6.8-31.7-15.6-46.7-24.4c-4.6-2.9-9.8-5.9-14.4-8.8c-9.2-14.7-15.6-34.2-17.3-58.6c-2.3-34.2,1.7-71.3,22.5-85
	c5.2-2.9,10.9-4.9,16.1-4.9c13.2,0,29.4,11.7,35.7,33.2c3.5,11.7,4,23.5,0.6,35.2c-6.9,25.4-39.2,21.5-45.5-22.5
	c-18.4,42,4,67.4,19.6,66.5c8.6,0,19-8.8,27.1-26.4c2.3-3.9,3.5-9.8,4.6-14.7c2.9-13.7,2.9-29.3-1.2-43
	c-7.5-24.4-24.8-38.1-40.9-38.1c-6.3,0-12.7,1-18.4,4.9c-9.2,5.9-16.7,16.6-21.3,32.3c-5.8,19.5-6.9,42-5.2,62.6
	c1.2,18.6,5.2,35.2,10.9,48.9c-25.9-17.6-51.3-37.1-76.6-56.7c-23.6-18.6-47.2-37.1-70.3-55.7c-21.3-16.6-42.6-33.2-64.5-48.9
	C1028.8,5.9,1007.5-2.9,986.2-1c-15.6,2-31.1,9.8-43.8,25.4c-5.2,6.8-9.2,13.7-12.7,20.5c-3.5-7.8-7.5-14.7-12.7-20.5
	C904.4,8.8,888.9,0,873.3-1c-21.3-2-42.6,6.8-62.2,20.5c-21.9,14.7-43.2,32.3-64.5,48.9c-23.6,18.6-47.2,37.1-70.3,55.7
	c-25.3,19.5-50.7,39.1-76.6,56.7c5.8-13.7,9.8-30.3,10.9-48.9c1.7-21.5,1.2-44-5.2-62.6c-4.6-14.7-12.1-25.4-21.3-32.3
	c-5.8-3.9-12.1-5.9-18.4-4.9c-15.6,0-33.4,13.7-40.9,38.1c-4,13.7-4,28.3-1.2,43c1.2,4.9,2.3,10.8,4.6,14.7
	c8.1,17.6,18.4,26.4,27.1,26.4c15.6,0,38-24.4,19.6-66.5c-6.3,44-38.6,46.9-45.5,22.5c-2.9-11.7-2.9-23.5,0.6-35.2
	c6.3-21.5,22.5-32.3,35.7-33.2c5.8,0,10.9,1,16.1,4.9c20.7,13.7,25.3,50.8,22.5,85c-1.7,24.4-7.5,44-17.3,58.6
	c-4.6,2.9-9.8,5.9-14.4,8.8c-15.6,9.8-31.1,17.6-46.7,24.4c-1.2,0-2.3,0-3.5,1H209.7c-5.2-3.9-10.4-6.8-15-10.8
	c-63.4,2.9-99.7,2.9-121,0c-4,0-14.4-1-24.8,6.8c-1.2,1-2.9,2-4,3.9H20.7v-18.6C14.4,195.5,9.8,183.7,6.9,171
	c-1.7-7.8-2.3-14.7-2.9-22.5H1.2v763.3H4c0-7.8,1.2-15.6,2.9-22.5c2.9-12.7,7.5-24.4,13.8-34.2v-20.5h23c2.3,2.9,4,4.9,6.3,6.8
	c10.4,8.8,20.7,7.8,24.8,6.8c21.3-2,57.6-2,121,0c6.3-4.9,12.7-9.8,19-13.7h1413.1c6.3,3.9,12.7,8.8,19,13.7
	c63.4-2.9,99.7-2.9,121,0c4,0,14.4,1,24.8-6.8c2.3-2,4.6-3.9,6.3-6.8h21.9v20.5c6.3,10.8,10.9,22.5,13.8,35.2
	c1.7,7.8,2.3,14.7,2.9,22.5h2.9v-26.4c-2.9-13.7-7.5-26.4-13.8-36.2V208.2C1833,198.4,1837.6,185.7,1840.5,172z M17.9,852.3
	C11.5,862,6.9,874.8,4,888.4V651.9c0-53.8,1.2-107.5,1.2-163.2c0-54.7,0-109.5-1.2-162.2V173c2.9,13.7,7.5,26.4,13.8,36.2V852.3z
	 M1649.3,218v1c63.4,2.9,99.7,2.9,121,0c4,0,12.7-1,22.5,5.9h-152.1C1643.5,222.8,1646.4,220.9,1649.3,218z M576.6,207.2l0,1
	c1.2,0,2.3-1,3.5-2h319.1c1.2,4.9,3.5,8.8,7.5,8.8c4,0,7.5-5.9,7.5-12.7s-4-12.7-7.5-12.7s-6.3,3.9-7.5,8.8H593.3
	c9.8-5.9,19-12.7,28.2-19.5H841c0-37.1-29.4-5.9-55.9-8.8H634.2c15.6-11.7,30.5-23.5,46.1-35.2c23.6-18.6,47.2-37.1,70.3-55.7
	c21.3-16.6,42.6-33.2,64.5-48.9c19-12.7,39.2-21.5,59.9-19.5c41.5,4.9,57,83.1,35.7,124.1c0-14.7-6.9-26.4-15-26.4
	c-8.1,0-15,11.7-15,25.4c0,35.2,35.7,37.1,51.3,14.7c15.6,22.5,51.3,20.5,51.3-14.7c0-35.2-6.9-25.4-15-25.4c-8.1,0-15,11.7-15,25.4
	c-20.7-40.1-5.2-119.2,35.7-124.1c20.2-2,40.9,6.8,59.9,19.5c21.9,14.7,43.2,31.3,64.5,48.9c23.6,18.6,47.2,37.1,70.3,55.7
	c15,11.7,30.5,23.5,46.1,35.2H1079c-27.1,2.9-55.9-28.3-55.9,8.8h219.5c9.2,6.8,19,13.7,28.2,19.5H964.9c-1.2-4.9-3.5-8.8-7.5-8.8
	c-4,0-7.5,5.9-7.5,12.7s4,12.7,7.5,12.7c3.5,0,6.3-3.9,7.5-8.8H1284c1.2,0,2.3,1,3.5,2c9.8,5.9,20.2,11.7,30.5,16.6H546.1
	C556.5,218.9,566.3,213.1,576.6,207.2z M74.9,219.9l0.6-1c21.3,2,57.6,2,121,0c2.9,2,5.8,4.9,8.6,6.8H52.4
	C62.2,218.9,70.9,219.9,74.9,219.9z M30,239.5h5.8c-2.3,3.9-4,7.8-5.8,12.7V239.5z M29.4,819v-11.7c1.7,3.9,3.5,7.8,5.2,11.7H29.4z
	 M196.4,844.5v-1c-63.4-2.9-99.7-2.9-121,0c-4.6,0-13.2,1-23.6-6.8c-0.6,0-1.7-1-2.3-2h159C204.5,837.6,200.5,840.5,196.4,844.5z
	 M1793.8,835.7v1c-9.8,7.8-19,6.8-23.6,6.8c-21.3-2-57.6-2-121,0c-4-2.9-8.1-6.8-12.1-9.8h159
	C1795.6,833.7,1794.4,835.7,1793.8,835.7z M1815.2,820h-4c1.2-2.9,2.9-5.9,4-8.8V820z M1815.2,801.4c-2.3,6.8-4.6,12.7-7.5,17.6
	h-188.1c-0.3,0.1-0.6,0.1-0.8,0.1h-7.9c-0.8,0-1.5-0.2-2.1-0.5c-0.3,0.1-0.6,0.2-0.9,0.3c-0.9,0.3-1.8,0.3-2.6,0
	c-1.6,0.1-3.2,0.2-4.8,0.2c-0.3,0-0.7,0-1-0.1H241.9c0.6-0.3,1.3-0.6,2-0.9c-3.4,0.6-6.8,1-10.2,1c-0.5,0-1-0.1-1.4-0.2
	c-0.1,0-0.1,0.1-0.2,0.1H38.6c-3.5-5.9-6.3-13.7-9.2-21.5V261.9c2.9-8.8,6.3-16.6,9.8-22.5h185.2c0.6-0.3,1.4-0.5,2.3-0.5h14
	c0.9,0,1.6,0.2,2.3,0.5h1365.4c-0.2,0.1-0.4,0.2-0.6,0.3c4.6-0.1,9.1-0.3,13.7-0.8c1.1-0.1,2.1,0.1,2.8,0.5h181.2
	c3.5,5.9,6.9,13.7,9.8,22.5V801.4z M1815.2,253.1c-1.7-4.9-4-8.8-5.8-12.7h5.8V253.1z"/>
<line class="st0" x1="-1460.9" y1="911.9" x2="-1460.9" y2="911.9"/>
</svg>
