<?xml version="1.0" encoding="UTF-8"?>
<svg id="Layer_2" data-name="Layer 2" xmlns="http://www.w3.org/2000/svg" width="170.3" height="69" viewBox="0 0 170.3 69">
  <defs>
    <style>
      .cls-1 {
        fill: #1f1f1f;
        fill-rule: evenodd;
      }
    </style>
  </defs>
  <path class="cls-1" d="m14.3,3.7c-2.9,1-8.3,6.7-6.5,5.3,3.6-2.7,5.8-3.6,7.1-4,1.8-.5,1-1.9-.6-1.4Z"/>
  <path class="cls-1" d="m14.3,6.8c-2,.1-6.4,3.1-5,2.5,3.5-1.5,5.2-1.4,5.8-1.2.6.1,1.4-1.4-.8-1.2Z"/>
  <path class="cls-1" d="m16.6,1.8c1.5-.7,3,.3,3,.3-.7-1.9-3-.7-3-.3Z"/>
  <path class="cls-1" d="m.2,4c1.2-.2,2.5,0,3.3,1,.2.2.3.5.4.8-.9-.5-1.6.4-1.2.5.9.1,1.4,1.1,1.4,1.7-.2,1.2-.6,2-1,2.5h-.4v.4c0,0,0,.1-.1.1h.1c0,0,0,31.6,0,31.6-.5,3.5-.8,7.5-1.2,10.6-.3,2.2-.5,4.6-1.2,6.7.7-2.2.9-4.5,1.2-6.7.4-2.9.7-6.6,1.2-9.9v18.5c-.4.1-.7.5-.7.9s.4.9.9.9.9-.4.9-.9-.3-.8-.7-.9v-21.8c0-.1,0-.2,0-.3.5-2.2,1.1-4.4,1.5-6.7,1.3-7.7,1.2-15.7-.1-23.4.3-.2.6-.5.9-.7,1.6-1.4,3.2-2.7,4.9-4,1.2-.9,2.5-1.8,3.7-2.6,1-.6,2.1-1.3,3.3-1.6,3.3-1,4,3.9.6,3.1,1.2,1.6,3.5.5,3.4-1.2h127c-.1,1.7,2.2,2.8,3.4,1.2-3.4.8-2.7-4,.6-3.1,1.1.3,2.3,1,3.3,1.6,1.3.8,2.5,1.7,3.7,2.6,1.7,1.3,3.3,2.7,4.9,4,.4.3.7.6,1.1.9-1.6,9.8-1.2,19.9,1.4,29.5v22.6c-.4.1-.7.5-.7.9s.4.9.9.9.9-.4.9-.9-.3-.8-.7-.9v-20.8c.7,2.3,1.5,4.7,2.5,6.9-1-2.4-1.8-4.8-2.5-7.3V10.5h-.5c-.3-.4-.7-1-.9-2,.1-.6.2-1.1.3-1.7.2-.3.6-.6,1-.7.4,0-.2-1-1.2-.5.1-.3.3-.5.4-.8.8-1,2.1-1.2,3.3-1h.2c-1.6-.8-3.2,0-3.8.8-.9,1.1-1,2.8-.6,4.2,0,.1,0,.2,0,.4-.3-.3-.6-.5-.9-.8-.2-.2-.5-.4-.7-.6,0-.1-.2-.2-.3-.3-1-.8-2.3-2.7-3.1-3.1-.3-.1-.6,0-.7.2h-.2c-1.2-1.1-2.5-2-3.8-2.8-1-.6-2.2-1.3-3.4-1.6-1.7-.5-3,.1-3.6,1.1-.2.2-.3.4-.3.7H21.4c0-.2-.2-.4-.3-.7-.7-.9-2-1.6-3.6-1.1-1.2.3-2.3,1-3.4,1.6-1.3.8-2.6,1.7-3.8,2.7h-.2c0-.1-.4-.2-.7,0-.8.5-2.1,2.4-3.1,3.1-.1.1-.2.2-.3.3-.2.2-.5.4-.7.6-.2.2-.5.4-.7.6,0-.2,0-.5-.1-.7.3-1.3,0-2.7-.7-3.7-.6-.8-2.2-1.6-3.8-.7h.2Zm166.5,6.8s0,0,.1,0v27.9c-2.3-9.4-2.7-19.3-1.1-28.8.1.1.3.2.4.4.2.2.4.3.6.5Zm-.9-1.4s0,.1,0,.2c0,0,0,0,0,0,0,0,0,0,0,0ZM5.5,19.4c.2,4.5-.1,9.1-.8,13.6-.3,1.9-.9,4.5-1.3,6.5V10.7c.2-.1.4-.3.5-.4.2-.2.4-.4.6-.5.5,3.2.9,6.4,1,9.6Zm-1.1-10.1c0,0-.2.2-.3.2,0-.2.2-.4.2-.6,0,.1,0,.2,0,.3Z"/>
  <path class="cls-1" d="m150.4,2.2s1.5-1.1,3-.3c0-.4-2.3-1.6-3,.3Z"/>
  <path class="cls-1" d="m154.9,8.1c.7-.1,2.3-.2,5.8,1.2,1.4.6-3-2.4-5-2.5-2.1-.1-1.4,1.4-.8,1.2Z"/>
  <path class="cls-1" d="m155.7,3.7c-1.6-.5-2.4.9-.6,1.4,1.3.3,3.5,1.2,7.1,4,1.8,1.4-3.6-4.4-6.5-5.3Z"/>
  <path class="cls-1" d="m165,66.6c.6-1.6,0-3.4-1.2-4.6-.8-.7-1.8-1.1-2.8-1.2-1.3-.2-2.7,0-4.1.4H13.4c-1.4-.4-2.7-.6-4.1-.4-1,.1-2,.5-2.8,1.2-1.3,1.1-1.8,3-1.2,4.6.8,2.1,3.5,2.9,5.5,2.3h0c.8-.2,1.6-.5,2.4-.8.6-.3,1.1-.6,1.6-.9h140.5c.5.3,1.1.7,1.7.9.8.4,1.6.6,2.4.8h0c2,.7,4.7-.1,5.6-2.3Zm-9-5.1c-.9.3-1.8.7-2.7,1.1H17c-.9-.4-1.8-.7-2.7-1.1h141.8Zm2,5.6c-.3-.6-.4-1.3-.1-1.9.3-.7,1.1-1,1.8-.9,2,.1.6,3-.6,1.3-.5,1.9,1.6,2.3,2.4.9.4-.7.3-1.6-.6-2.3-1.1-.8-2.9-.5-3.5.8-.4.8-.3,1.7.1,2.4,0,.2.2.3.3.4-.2,0-.4-.2-.6-.2-.6-.3-1.1-.6-1.6-.9h0s-140.8,0-140.8,0h0c-.5.4-1.1.7-1.6,1-.2,0-.4.2-.6.2.1-.1.2-.3.3-.4.4-.7.5-1.6.1-2.4-.6-1.3-2.4-1.7-3.5-.8-.9.7-1,1.7-.6,2.3.8,1.3,2.9.9,2.4-.9-1.2,1.7-2.6-1.1-.6-1.3.7,0,1.5.3,1.8.9.3.6.2,1.3-.1,1.9-1.2,2.2-5.5,1.9-6.5-.7-.5-1.4,0-3,1.1-4,.7-.6,1.6-1,2.5-1.1,1.6-.2,3.3.2,4.9.7-.2.3-.2.7.2.9.9.6,2.4.5,3.9.7.6.3,1.2.5,1.8.7,2.2.7,4.3,1.2,6.5,1.3,1,0,3-.2,3.4-.7h-.3c-3.3.4-6.3,0-9.4-1.1-.7-.3-1.5-.6-2.3-.9h133.9c-.8.3-1.5.6-2.3.9-3.1,1.1-6.1,1.5-9.4,1.1h-.3c.3.4,2.3.7,3.4.7,2.2,0,4.3-.6,6.5-1.3.6-.2,1.2-.4,1.8-.7,1.6-.2,3-.2,3.9-.7.4-.2.4-.7.2-.9,1.7-.6,3.4-1,4.9-.7.9.1,1.8.5,2.5,1.1,1.1,1,1.6,2.6,1.1,4-1,2.6-5.3,2.9-6.5.7Z"/>
</svg>