<?xml version="1.0" encoding="UTF-8"?>
<svg id="Layer_2" data-name="Layer 2" xmlns="http://www.w3.org/2000/svg" width="100%" height="100%" preserveAspectRatio="none" viewBox="0 0 53.3 51.6">
  <defs>
    <style>
      .cls-1 {
        fill: #1f1f1f;
        fill-rule: evenodd;
      }
    </style>
  </defs>
  <path class="cls-1" d="m29.7,51.1c-.4.2-.1.7.3.3.2-.2.8-1,.8-1.1,0,0-.8.6-1.1.8Z"/>
  <path class="cls-1" d="m24.5,51.1c-.2-.2-1.1-.8-1.1-.8,0,.1.6.9.8,1.1.4.4.7,0,.3-.3Z"/>
  <path class="cls-1" d="m30.9,51.4c0-.3.4-1.3.4-1.3-.1,0-.7.9-.8,1.1-.2.5.3.6.4.1Z"/>
  <path class="cls-1" d="m21.3,48.7c-.2,0-.3.2-.3.3,0,.2.2.3.3.3.2,0,.3-.2.3-.3,0-.2-.2-.3-.3-.3Z"/>
  <path class="cls-1" d="m33.2,49.1c0-.2-.1-.3-.3-.3-.2,0-.3.1-.3.3,0,.2.1.3.3.3.2,0,.3-.1.3-.3Z"/>
  <path class="cls-1" d="m22.8,50s.3,1,.4,1.3c0,.4.6.4.4-.1-.1-.2-.7-1.1-.8-1.1Z"/>
  <path class="cls-1" d="m27,48.9c-.2,0-.4.2-.4.4,0,.2.2.4.4.4.2,0,.4-.2.4-.4,0-.2-.2-.4-.4-.4Z"/>
  <path class="cls-1" d="m44.6,48.8h4.8v-.2c.3-.7.7-1.3,1.2-1.8.5-.6,1.2-1,2-1.3h.2v-4.9c.4-1.2.6-2.4.6-3.7V12.5c0-1.3-.2-2.5-.6-3.7V3.7h-.2c-.6-.3-1.4-.7-2.2-1.5-.4-.5-.7-1-.9-1.6v-.2h-5.7c-.9-.2-1.9-.4-3-.4H12.5c-1,0-2,.1-3,.4h-5.1v.2c-.4.7-.8,1.3-1.3,1.8-.5.6-1.2,1-1.9,1.3h-.2v3.7c-.7,1.6-1.1,3.3-1.1,5.2v24.4c0,1.8.4,3.6,1.1,5.2v3.4h.2c.5.2,1.2.5,1.9,1.1.7.7,1.1,1.5,1.2,2v.2h4.3c1.2.4,2.5.6,3.8.6h3.9v-.2h-3.9c-1,0-1.9-.1-2.8-.3h6.8c0,.2,0,.4,0,.6,0,.6.4,1.2.9,1.5.6.4,1.3.4,2,.2.5-.2.9-.6,1.1-1.1,0,0,0-.1,0-.2.7,0,1.7.2,2,.9h0c0-.8-1.3-1.2-2.1-1.2,0-.3-.1-.6-.3-.8-.3-.4-.9-.5-1.3-.4-.4,0-.7.2-.9.6-.1.2-.2.3-.2.5,0,.7.9,1.1,1.1.2-.5.2-1.1-.4-.5-.8.1,0,.3-.2.5-.2.4,0,.8,0,1.1.3.1.2.2.4.2.6,0,0,0,0-.1,0-.5,0-.8.2-.8.4h.1c.2-.1.5-.1.7-.1,0,0,0,0,0,0,0,0,0,0,0,.1-.1.4-.5.8-.9.9-.6.2-1.2.2-1.8-.2-.4-.3-.8-.8-.8-1.3,0-.3,0-.6.2-.8.3-.6,1-1,1.7-1,1,0,2.1.5,2.9,1,.8.5,1.5,1,2.2,1.5.3.2,1,.7,1.5.8.5,0,1,0,1.5,0,.1,0,.2,0,.3,0,.2,0,.3,0,.5.1.4,0,1,.2,1.5,0,.4,0,1.2-.5,1.5-.8.7-.6,1.4-1.1,2.2-1.5.8-.5,2-1,2.9-1,.7,0,1.3.4,1.7,1,0,.2.1.4.2.6h-.3v.2h.3s0,0,0,0c0,.5-.4,1-.8,1.3-.5.3-1.2.4-1.8.2-.4-.2-.8-.5-.9-.9,0,0,0,0,0-.1,0,0,0,0,0,0,.2,0,.5,0,.7.1h.1c0-.2-.3-.3-.8-.4,0,0,0,0-.1,0,0-.2,0-.4.2-.6.3-.3.7-.4,1.1-.3.2,0,.3,0,.5.2.6.4,0,1-.5.8.3.9,1.2.5,1.1-.2,0-.2,0-.4-.2-.5-.2-.3-.5-.5-.9-.6-.5,0-1,0-1.3.4-.2.2-.3.5-.3.8-.8,0-2.2.4-2.1,1.3h0c.3-.8,1.3-1,2-1.1,0,0,0,.1,0,.2.2.5.6.9,1.1,1.1.7.2,1.4.2,2-.2.5-.3.9-.9.9-1.5,0,0,0,0,0,0h3.2c1.3,0,2.6-.2,3.8-.6Zm7.7-3.7c-.8.3-1.5.8-2,1.4-.5.5-.9,1.1-1.1,1.8h-3.2c2.8-1.3,5.1-3.6,6.4-6.4v3.2Zm.8-32.6v24.4c0,.9-.1,1.8-.3,2.7V9.8c.2.9.3,1.8.3,2.7Zm-4-11.6c.2.6.5,1.1,1,1.6.7.9,1.6,1.3,2.2,1.6v3.4c-1.3-3-3.8-5.4-6.9-6.6h3.7ZM12.5.2h28.3c.5,0,1.1,0,1.6.1H10.9c.5,0,1.1-.1,1.6-.1ZM1.6,4c.7-.3,1.4-.8,1.9-1.3.5-.5.9-1.1,1.3-1.8h3.2C5.3,1.9,3,3.9,1.6,6.3v-2.3ZM.2,36.9V12.5c0-1.6.3-3.1.9-4.5v33.5c-.6-1.4-.9-2.9-.9-4.5Zm4.6,11.4c-.2-.6-.6-1.4-1.3-2.1-.7-.6-1.4-1-1.9-1.1v-2.1c1.3,2.3,3.3,4.2,5.8,5.2h-2.6Zm19,1.5c-.5-.4-1-.7-1.5-1.1h0c.3.1.5.3.8.4.4.2.7.3,1.1.5,0,.2,0,.4,0,.5,0,0,0,0,0,0-.2-.2-.4-.3-.5-.4Zm1.3.7c-.3,0-.5-.3-.6-.5,0,0,0-.2,0-.3.3.1.7.3,1,.4.3.1.7.3,1,.4-.4,0-1,.2-1.4,0Zm-.6-1.1s0,0,0,0c0,0,0,0,0-.1.2-.2.5-.3.7-.1.2.2.4.5.3.8,0,0,0,0,0,0-.4-.1-.7-.3-1-.4Zm5.1.6c0,.2-.3.4-.6.5-.4.1-1.1,0-1.5,0,0,0,0,0,0,0,.3-.1.6-.2,1-.3,0,0,0,0,.1,0h0s0,0,0,0c.3-.1.7-.3,1-.4,0,.1,0,.3,0,.4Zm-1.1-.2c0-.3.1-.6.3-.7.2-.2.5,0,.7.1,0,0,0,0,0,.1-.3.1-.7.3-1,.4,0,0,0,0,0,0Zm1.2-.8c-.4-.4-1-.4-1.4,0-.4.4-.4.7-.2.9-.3.1-.7.2-1.1.3-.3,0-.6-.2-1-.3.2-.2.3-.5-.1-1-.4-.4-1-.4-1.4,0,0,0-.1.1-.1.2,0,0,0,0,0,0-.3-.2-.7-.3-1-.5-.2,0-.4-.2-.6-.3h8.6c-.1.1-.3.2-.4.2-.4.2-.7.3-1.1.5h0c0,0,0-.1-.1-.2Zm.7.7c-.2.1-.3.3-.5.4,0,0,0,0,0,0,0-.2,0-.4,0-.6.4-.2.7-.3,1.1-.5.3-.1.5-.3.8-.4,0,0,0,0,.1,0h.1c-.6.4-1.2.8-1.7,1.2Zm5.9-2.4c-.2,0-.4-.1-.7-.1-1,0-2.2.5-3.1,1h0s-.2,0-.2,0c0,0,0-.1-.2-.1h-9.7c0,0-.4,0-.4,0,0,0,0,0,0,0h-.3s0,0,0,0c-.9-.5-2-1.1-3.1-1-.2,0-.5,0-.7.1-.5.2-.9.5-1.2.9h0s-8.6,0-8.6,0c-2.8-1.1-5.1-3.1-6.4-5.8V6.9C3.1,4,5.6,1.9,8.7.9h36c3.5,1.2,6.3,3.9,7.6,7.3v33c-1.2,3.2-3.8,5.8-7,7.1h-7.8c-.3-.4-.7-.7-1.2-.9Zm1.3,1.4h6.1c-.9.2-1.8.3-2.8.3h-3.2c0-.1,0-.2,0-.3Z"/>
</svg>