<?xml version="1.0" encoding="UTF-8"?>
<svg id="Layer_2" data-name="Layer 2" xmlns="http://www.w3.org/2000/svg" width="117.7" height="273.1" viewBox="0 0 117.7 273.1">
  <defs>
    <style>
      .cls-1 {
        fill: #1f1f1f;
        fill-rule: evenodd;
      }
    </style>
  </defs>
  <path class="cls-1" d="m9.3,9.3c3.5-1.5,5.2-1.4,5.8-1.2.6.1,1.4-1.4-.8-1.2-2,.1-6.4,3.1-5,2.5Z"/>
  <path class="cls-1" d="m16.6,1.8c1.5-.7,3,.3,3,.3-.7-1.9-3-.7-3-.3Z"/>
  <path class="cls-1" d="m14.3,3.7c-2.9,1-8.3,6.7-6.5,5.3,3.6-2.7,5.8-3.6,7.1-4,1.8-.5,1-1.9-.6-1.4Z"/>
  <path class="cls-1" d="m117.5,4h.2c-1.6-.8-3.2,0-3.8.8-1,1.3-1.1,3.3-.4,4.8-.4-.3-.8-.7-1.2-1-.2-.2-.5-.4-.7-.6,0-.1-.2-.2-.3-.3-1-.8-2.3-2.7-3.1-3.1-.3-.1-.6,0-.7.2h-.2c-1.2-1.1-2.5-2-3.8-2.8-1-.6-2.2-1.3-3.4-1.6-1.7-.5-3,.1-3.6,1.1-.4.5-.5,1-.4,1.4H21.5c0-.4,0-.9-.4-1.4-.7-.9-2-1.6-3.6-1.1-1.2.3-2.3,1-3.4,1.6-1.3.8-2.6,1.7-3.8,2.7h-.2c0-.1-.4-.2-.7,0-.8.5-2.1,2.4-3.1,3.1-.1.1-.2.2-.3.3-.2.2-.5.4-.7.6-.4.3-.8.7-1.2,1,.7-1.5.7-3.5-.4-4.8-.6-.8-2.2-1.6-3.8-.7h.2c1.2-.3,2.5,0,3.3,1,.2.2.3.5.4.8-.9-.5-1.6.4-1.2.5.9.1,1.4,1.1,1.4,1.7-.1,1-.4,1.6-.7,2.1h0s0,0,0,0c-.3.5-.6.8-.7,1h.2c.1-.1.3-.3.4-.3,0,0,0,0,.1,0l-.8,6.7h0c.3,1.4.6,2.8.9,4.2,0,0,0,0,0,.1-.2.3-.4.5-.7.7-.3.3-.7.5-1.1.7h0s0,.1,0,.1c1.5,8.4,2.3,16.9,2.6,25.4.3,10.9-.8,191.2-2.5,201.1h0c0,0,0,.1,0,.1.3.1.6.3.9.5.1.1.3.2.4.4-.2,2.3-.3,3.8-.5,4.5h0s.7,7.1.7,7.1c0,0,0,0,0,0-.1,0-.3-.2-.4-.3h-.2c.2,0,.4.4.7.8h0s0,0,0,0c.3.5.6,1.2.8,2.2,0,.7-.6,1.6-1.4,1.7-.4,0,.2,1,1.2.5-.1.3-.3.5-.4.8-.8,1-2.1,1.2-3.3,1h-.2c1.6.8,3.2,0,3.8-.8,1-1.3,1.1-3.3.4-4.8.4.3.8.7,1.2,1,.2.2.5.4.7.6,0,.1.2.2.3.3,1,.8,2.3,2.7,3.1,3.1.3.1.6,0,.7-.2h.2c1.2,1.1,2.5,2,3.8,2.8,1,.6,2.2,1.3,3.4,1.6,1.7.5,3-.1,3.6-1.1.4-.5.5-1,.4-1.4h74.7c0,.4,0,.9.4,1.4.7.9,2,1.6,3.6,1.1,1.2-.3,2.3-1,3.4-1.6,1.3-.8,2.6-1.7,3.8-2.7h.2c0,.1.4.2.7,0,.8-.5,2.1-2.4,3.1-3.1.1-.1.2-.2.3-.3.2-.2.5-.4.7-.6.4-.3.8-.7,1.2-1-.7,1.5-.7,3.5.4,4.8.6.8,2.2,1.6,3.8.7h-.2c-1.2.3-2.5,0-3.3-1-.2-.2-.3-.5-.4-.8.9.5,1.6-.4,1.2-.5-.9-.1-1.4-1.1-1.4-1.7.1-.9.4-1.6.7-2.1h0s0-.1,0-.1c.3-.4.5-.7.7-.9h-.2c-.1.1-.3.3-.4.3,0,0,0,0,0,0l.7-6.9h0c-.2-.7-.3-2.3-.5-4.5.1-.1.3-.3.4-.4.3-.2.5-.3.9-.5h0s0-.1,0-.1c-1.7-9.9-2.8-190.3-2.5-201.2.2-8.5,1.1-17,2.6-25.4h0c0,0,0-.1,0-.1-.4-.2-.8-.4-1.1-.7-.2-.2-.5-.4-.7-.7,0,0,0,0,0-.1.3-1.4.6-2.8.9-4.2h0s-.8-6.8-.8-6.8c0,0,0,0,.1,0,.1,0,.3.2.4.3h.2c-.2-.1-.5-.4-.7-.9h0s0,0,0,0c-.3-.5-.6-1.2-.7-2.1,0-.7.6-1.6,1.4-1.7.4,0-.2-1-1.2-.5.1-.3.3-.5.4-.8.8-1,2.1-1.2,3.3-1Zm-4.6,15.8c-.2-.7-.4-1.4-.2-2.1,0-.3.1-.5.2-.7v2.8Zm.8-9.5l.3,2.9c-.2.6-.3,1.2-.6,1.8-.1.4-.2.6-.3.9v-6.1c.2.2.4.3.6.5ZM21.4,3.2h74.9c.2.4.5.7.8,1H20.5c.4-.2.7-.5.8-1ZM4.6,9.8v6.1c-.1-.2-.2-.5-.3-.9-.2-.6-.4-1.2-.6-1.8l.3-2.9c.2-.2.4-.3.6-.5Zm.2,7.2c.1.2.2.4.2.7.1.7,0,1.4-.2,2.1v-2.8Zm-1.6.4l.4-3.6c.1.4.3.8.4,1.2.2.7.4,1.1.6,1.4v3.9c-.2.3-.3.6-.5.9-.3-1.3-.5-2.6-.8-3.9Zm1.4,3.5v3.1c-.2-.8-.3-1.6-.5-2.4.2-.2.3-.5.5-.7Zm-2.5,2.5c.4-.2.7-.4,1.1-.7.2-.2.4-.4.6-.6.3,1.6.6,3.2.9,4.8v21.1c-.3-8.2-1.1-16.5-2.5-24.6Zm2.8,5c1.2,7.7,1.9,15.6,2,23.4,0,10.7-.7,92.2-2,148.8V28.4Zm-1.9,221.9c-.3-.2-.5-.3-.8-.5,1.3-8.2,2.2-110.7,2.5-166.3v128c-.4,17.6-.9,31.8-1.4,39-.1,0-.2-.2-.3-.3Zm1.7-20.6v22.5c-.2-.4-.5-.7-.6-.9,0-.1-.2-.2-.3-.3.3-4.5.6-11.9.9-21.3Zm-.9,21.7s0,0,0,.1c.2.3.6.7.8,1.3v3.9c0,0,0,.1,0,.2-.3.8-.6,1.5-.9,2.3l-.4-3.7c.1-.7.3-2,.4-4Zm1.2,1.9c.2.5.3,1.1.3,1.8,0,.2,0,.3-.3.9v-2.7Zm-.9,9.6l-.3-3.2c.3-.8.6-1.6.9-2.3v6.1c-.2-.2-.4-.3-.6-.5Zm17.4,7.1c-.2-.4-.5-.7-.8-1h76.6c-.4.2-.7.5-.8,1H21.4Zm90.7-5.6c-1.6,1.4-3.2,2.7-4.9,4-1.2.9-2.5,1.8-3.7,2.6-1,.6-2.1,1.3-3.3,1.6-3.3,1-4-3.9-.6-3.1-.4-.5-.9-.7-1.4-.7h0s-78.5,0-78.5,0h0c-.6,0-1.2.2-1.6.8,3.4-.8,2.7,4-.6,3.1-1.1-.3-2.3-1-3.3-1.6-1.3-.8-2.5-1.7-3.7-2.6-1.7-1.3-3.3-2.7-4.9-4-.3-.2-.6-.5-.8-.7v-6.9c.4-1.1.5-1.3.5-1.6,0-.9-.2-1.8-.5-2.4v-31.6c1.5-55,2.6-157.1,2.5-169.2,0-8.8-.9-17.7-2.5-26.4v-4.9c.4-.9.6-1.9.5-2.9,0-.4-.2-.6-.3-.9,0,0,0-.2-.1-.3v-6.9c.3-.2.6-.5.8-.7,1.6-1.4,3.2-2.7,4.9-4,1.2-.9,2.5-1.8,3.7-2.6,1-.6,2.1-1.3,3.3-1.6,3.3-1,4,3.9.6,3.1.4.6,1.1.8,1.6.7h0s78.5,0,78.5,0h0c.5,0,1-.3,1.4-.8-3.4.8-2.7-4,.6-3.1,1.1.3,2.3,1,3.3,1.6,1.3.8,2.5,1.7,3.7,2.6,1.7,1.3,3.3,2.7,4.9,4,.3.2.6.5.8.7v6.9c0,.1,0,.2-.1.3-.2.3-.3.5-.3.9-.2,1,0,2,.5,2.9v4.9c-1.6,8.7-2.4,17.6-2.5,26.4-.1,12.1,1,114.3,2.5,169.4v31.6c-.3.7-.6,1.5-.5,2.4,0,.3,0,.5.5,1.6v6.8c-.3.2-.6.5-.8.7Zm1.1-243.3c.1.2.3.5.5.7-.2.8-.3,1.6-.5,2.4v-3.1Zm-.2,179.8c-1.2-56.7-2.1-138.1-2-148.9,0-7.8.7-15.7,2-23.4v172.3Zm.2,29.1c.3,9.4.6,16.8.9,21.3,0,0-.2.2-.3.3-.2.2-.4.5-.6.9v-22.5Zm-.2,23.6v2.7c-.2-.6-.3-.7-.3-.9,0-.7,0-1.3.3-1.8Zm.2,10v-5.9c.3.8.6,1.6.9,2.3l-.3,3.1c-.2.2-.4.4-.6.5Zm1-4.1c-.3-.8-.6-1.5-.9-2.3,0,0,0-.1,0-.2v-3.9c.3-.6.6-1,.8-1.3,0,0,0,0,0,0,.1,2,.3,3.4.4,4l-.4,3.7Zm1.5-9.3c-.3.1-.6.3-.8.5-.1,0-.2.2-.3.3-.5-7.2-.9-21.4-1.4-39V83.5c.3,55.6,1.2,158.2,2.5,166.3Zm-1-227.2c.3.3.7.5,1.1.7-1.4,8.1-2.3,16.4-2.5,24.6v-21.1c.3-1.6.6-3.2.9-4.8.2.2.4.4.6.6Zm-.9-1.4c-.2-.3-.4-.6-.5-.9v-3.9c.1-.3.3-.7.6-1.4.1-.4.3-.8.4-1.2l.4,3.6c-.3,1.3-.6,2.6-.8,3.9Z"/>
  <path class="cls-1" d="m102.6,8.1c.7-.1,2.3-.2,5.8,1.2,1.4.6-3-2.4-5-2.5-2.1-.1-1.4,1.4-.8,1.2Z"/>
  <path class="cls-1" d="m98.1,2.2s1.5-1.1,3-.3c0-.4-2.3-1.6-3,.3Z"/>
  <path class="cls-1" d="m103.4,3.7c-1.6-.5-2.4.9-.6,1.4,1.3.3,3.5,1.2,7.1,4,1.8,1.4-3.6-4.4-6.5-5.3Z"/>
  <path class="cls-1" d="m103.4,266.2c2-.1,6.4-3.1,5-2.5-3.5,1.5-5.2,1.4-5.8,1.2-.6-.1-1.4,1.4.8,1.2Z"/>
  <path class="cls-1" d="m98.1,270.9c.7,1.9,3,.7,3,.3-1.5.7-3-.3-3-.3Z"/>
  <path class="cls-1" d="m102.8,268c-1.8.5-1,1.9.6,1.4,2.9-1,8.3-6.7,6.5-5.3-3.6,2.7-5.8,3.6-7.1,4Z"/>
  <path class="cls-1" d="m14.3,266.2c2.1.1,1.4-1.4.8-1.2-.7.1-2.3.2-5.8-1.2-1.4-.6,3,2.4,5,2.5Z"/>
  <path class="cls-1" d="m16.6,271.2c0,.4,2.3,1.6,3-.3,0,0-1.5,1.1-3,.3Z"/>
  <path class="cls-1" d="m14.9,268c-1.3-.3-3.5-1.2-7.1-4-1.8-1.4,3.6,4.4,6.5,5.3,1.6.5,2.4-.9.6-1.4Z"/>
</svg>