<?xml version="1.0" encoding="UTF-8"?>
<svg id="Layer_2" data-name="Layer 2" xmlns="http://www.w3.org/2000/svg" width="50.9" height="54.4" viewBox="0 0 50.9 54.4">
  <defs>
    <style>
      .cls-1 {
        fill: #1f1f1f;
        fill-rule: evenodd;
      }
    </style>
  </defs>
  <path class="cls-1" d="m3.7,44.9c-.3-.7-.8-2-1.5-3.1-.9-1.5-1.9-.7-1.3.3.6,1.1,2.1,2.5,2.8,2.8Z"/>
  <path class="cls-1" d="m3.1,46.9c1.9,0,4,1.2,5.5,2.3.8.7,3.3,1.9,3.8,1.4h-.4c-1.9-.7-4.1-3-5.2-4.6-.6-.9-1.1-1.9-1.4-3-.3-.9-.5-1.9-.4-2.9v-.4c-.6.2-.7,2.5-.3,3.5.4,1.1.9,2.2,1.5,3.1.2.3.4.6.6.9-1.2-.6-2.5-1.1-3.7-1.1-1.2,0-2.5.4-2.9,1.7-.2.5-.2,1.1,0,1.6.3,1.2,1.4,2.4,2.7,2.6,2.6.4,4-3,.4-3.7,1.9,1.9-1.4,3.5-2.4.9,0-.4-.1-.8,0-1.1.3-.9,1.3-1.2,2.2-1.2Z"/>
  <path class="cls-1" d="m14,49.3c-1.3-2-2.6-.6-1.3.8.8.9,3,2.8,3,2.8.2-.5-1.1-2.7-1.7-3.6Z"/>
  <path class="cls-1" d="m11.2,53.5c1.2.3,4,.9,4,.9-.1-.5-2.4-1.8-3.3-2.3-2.2-1.1-2.6.8-.7,1.4Z"/>
  <path class="cls-1" d="m49.9,42c.5-1-.4-1.8-1.3-.3-.6,1.1-1.2,2.4-1.5,3.1.7-.3,2.2-1.7,2.8-2.8Z"/>
  <path class="cls-1" d="m48,52c1.3-.2,2.4-1.4,2.7-2.6.1-.5.1-1.1,0-1.6-.5-1.2-1.7-1.7-2.9-1.7-1.2,0-2.5.5-3.7,1.1.2-.3.4-.6.6-.9.6-1,1.2-2,1.5-3.1.3-1,.3-3.3-.3-3.5v.4c.1,1,0,2-.4,2.9-.3,1-.8,2-1.4,3-1,1.6-3.3,3.9-5.2,4.5h-.4c.5.7,3-.5,3.8-1.2,1.5-1,3.6-2.3,5.5-2.3.9,0,1.9.3,2.2,1.2.1.4.1.7,0,1.1-1,2.6-4.3,1-2.4-.9-3.6.7-2.2,4.1.4,3.7Z"/>
  <path class="cls-1" d="m38.1,50.1c1.4-1.4,0-2.9-1.3-.8-.6.9-1.9,3.1-1.7,3.6,0,0,2.2-1.9,3-2.8Z"/>
  <path class="cls-1" d="m39,52.1c-1,.5-3.2,1.7-3.3,2.3,0,0,2.8-.6,4-.9,1.9-.5,1.5-2.5-.7-1.4Z"/>
  <path class="cls-1" d="m2.2,14.8c-.1,0-.2.1-.2.2v13s0,0,0,0c1.3,4.3,3.3,8.4,5.9,12,5.5,7.7,12.6,11.9,17.6,14,0,0,0,0,.1,0s0,0,0,0c5-2.1,12.1-6.3,17.6-14,2.6-3.6,4.6-7.7,5.9-12,0,0,0,0,0,0v-13c0-.1,0-.2-.2-.2-1-.3-3-1-4.6-2.8-2.2-2.6-2.1-5.7-2-6.6,0-.1,0-.2-.2-.3L25.6,0s0,0,0,0c0,0,0,0,0,0L9,5.1c-.1,0-.2.1-.2.3,0,.9.2,4-2,6.6-1.6,1.8-3.6,2.5-4.6,2.8Zm7.1-9.2L25.6.5l16.2,5c0,1.3,0,4.2,2.2,6.8,1.6,1.8,3.5,2.6,4.7,2.9v12.8c-1.3,4.3-3.2,8.3-5.8,11.8-5.4,7.6-12.4,11.7-17.3,13.8-4.9-2.1-11.9-6.2-17.3-13.8-2.6-3.6-4.5-7.6-5.8-11.8v-12.8c1.1-.3,3.1-1.1,4.7-2.9,2.2-2.5,2.3-5.4,2.2-6.8Z"/>
  <path class="cls-1" d="m4.5,16.3v11.7s0,0,0,0c1.1,3.9,2.9,7.5,5.2,10.8,4.9,6.9,11.3,10.6,15.7,12.5,0,0,0,0,0,0s0,0,0,0c4.5-1.9,10.8-5.6,15.7-12.5,2.3-3.3,4.1-6.9,5.2-10.8,0,0,0,0,0,0v-11.7c0,0,0-.1,0-.1-.9-.2-2.7-.9-4.2-2.6-2-2.4-1.9-5.2-1.9-6,0,0,0-.1,0-.1l-14.8-4.6s0,0,0,0c0,0,0,0,0,0l-14.8,4.6c0,0,0,0,0,.1,0,.8.2,3.6-1.9,6-1.4,1.7-3.2,2.3-4.2,2.6,0,0,0,0,0,.1Zm.2,0c1-.3,2.8-.9,4.2-2.6,2-2.3,2-4.9,1.9-6.1l14.7-4.5,14.7,4.5c0,1.1,0,3.8,1.9,6.1,1.4,1.7,3.2,2.3,4.2,2.6v11.5c-1.1,3.9-2.9,7.4-5.2,10.7-4.9,6.8-11.2,10.5-15.6,12.4-4.4-1.9-10.7-5.6-15.6-12.4-2.3-3.2-4.1-6.8-5.2-10.7v-11.5Z"/>
  <path class="cls-1" d="m4.2,6h0c0,0-.2,0-.3,0-1.1-.3-2.6-.1-3.4.8C.1,7.2,0,7.7,0,8.2c0,.4.1.7.3,1.1.2.4.5.8.9,1.1.3.3.8.5,1.2.5.2,0,.3,0,.5,0,.8-.3,1.3-.9,1.2-1.7,0-.6-.5-1.3-1.1-1.5,0,0-.2,0-.3,0,0,0,.1-.1.2-.2.4-.3.9-.6,1.3-.9.3.2.7.4.9.7.4.5.6,1.2.6,1.9,0,.3,0,.6-.1.9-.3,1.3-1.2,2.1-2.5,2.2h-.2c1,.6,2.3-.3,2.8-1,.4-.6.6-1.4.6-2.1,0-.8-.2-1.5-.6-2.2-.2-.3-.5-.5-.8-.7.5-.3,1-.5,1.5-.7.2,0,.4-.2.6-.2,0,0,.2,0,.3,0h.2c-.4-1.1-2.8.5-3.1.7Zm-1.7,1.2c-.2.1-.4.3-.6.5-.3.3-.4.7-.2.9l.3-.2c.2-.2.5-.3.7-.2.4.1.7.6.8,1.1,0,.6-.3,1.1-.9,1.3-.1,0-.2,0-.3,0-.3,0-.7-.2-.9-.4-.3-.3-.6-.6-.7-1-.1-.3-.2-.6-.2-.9,0-.4.1-.8.4-1.2.6-.8,1.9-1,2.8-.7-.4.3-.8.5-1.1.8Z"/>
  <path class="cls-1" d="m50.4,6.8c-.8-1-2.2-1.2-3.4-.8-.1,0-.2,0-.3.1h0c-.3-.2-2.6-1.8-3.1-.6h.2c0-.1.2-.1.3-.1.2,0,.4.1.6.2.5.2,1,.5,1.5.7-.3.2-.6.4-.8.7-.5.6-.7,1.4-.6,2.2,0,.7.2,1.5.6,2.1.5.7,1.8,1.5,2.8,1h-.2c-1.3-.1-2.2-.9-2.5-2.2,0-.3-.1-.6-.1-.9,0-.7.1-1.3.6-1.9.2-.3.6-.6.9-.7.4.3.9.6,1.3.9,0,0,.1.1.2.2,0,0-.2,0-.3,0-.6.2-1.1.8-1.1,1.5,0,.8.4,1.5,1.2,1.7.2,0,.3,0,.5,0,.5,0,.9-.2,1.2-.5.4-.3.7-.7.9-1.1.1-.3.2-.7.3-1.1,0-.5-.1-1.1-.5-1.5Zm-.2,2.4c-.2.4-.4.7-.7,1-.3.2-.6.4-.9.4-.1,0-.2,0-.3,0-.6-.2-1-.6-.9-1.3,0-.4.3-.9.8-1.1.3,0,.5,0,.7.2l.3.2c.2-.2.2-.5-.2-.9-.2-.2-.4-.3-.6-.5-.4-.3-.7-.6-1.1-.8.9-.3,2.2,0,2.8.7.3.3.4.7.4,1.2,0,.3,0,.6-.2.9Z"/>
</svg>