<?xml version="1.0" encoding="UTF-8"?>
<svg id="Layer_2" data-name="Layer 2" xmlns="http://www.w3.org/2000/svg" width="199.1" height="37.5" viewBox="0 0 199.1 37.5">
  <defs>
    <style>
      .cls-1 {
        fill-rule: evenodd;
      }

      .cls-1, .cls-2 {
        fill: #1f1f1f;
      }
    </style>
  </defs>
  <path class="cls-1" d="m189.9,6.9c-1-.8-1.6.1-.2.9,1.6,1,3.2,2.8,3.7,3.1.3.2-2-2.9-3.4-4.1Z"/>
  <path class="cls-1" d="m196.4,8.5c-1.3,1.8-.8,4.7.4,6.5,0,0,.1.2.2.3h-.1c-.9-1-1.9-1.8-2.8-2.5h0c-2.2-1.6-4.6-3.9-7-4.3-.6-.1-1.4,0-1.3.9-1.5-.3-3.1-.5-4.7-.6-5.4-.2-10.6.7-16,1.3-3.8.4-9.3.3-10.4-4.3v-.3c-.5.1,0,2,.4,2.6.1.2.3.3.4.5-.7.4-.9,2,1.3,1.7.4,0,.7-.1,1-.2,2.2.9,5,.8,7.3.6,5.3-.6,10.5-1.6,15.9-1.3.8,0,1.6,0,2.4.2-.2,0-.4.2-.5.3-2.5.6-5.5,1.9-7,2.6-1.5.7-3.9,1.5-5.6,1-2-.7-.7-2.4.5-1.9.3.1.6.5.9,1,.7-.9.2-1.9-.9-2-.8,0-1.7.3-1.9,1.1-.1.4,0,.9.1,1.2.3.5.7.8,1.2,1,1.8.6,4.3-.2,5.9-1,1.4-.6,3.9-1.8,6.2-2.4,0,0,0,0,0,.1-.4.6-.4,1.4-.2,2.1.6,2.4,4.8,2.5,5-.4,0-.2,0-.4,0-.6-.2-.6-.8-1-1.5-.8-.6.2-1,.8-.8,1.4.2.6.8,1,1.5.8,0,0,.1,0,.2,0-.4.8-1.2,1.2-2,1.1-.9,0-1.7-.6-2-1.5-.5-1.9.7-2.6,2.1-2.8,4.5.7,8.5,2.5,12,5.9.2.2.9.9,1.3.6.4-.3-.2-1.2-.4-1.5-.3-.4-.5-.9-.7-1.4-.8-2.2-.5-5.1,2.2-5.5h.3c-1.1-.5-2.1,0-2.7.8Z"/>
  <path class="cls-1" d="m162,8.8c-1.5-.3-2.1-1-2.1-1.7,0-2.9-3.6-1.4-2.3.4,1.1,1.7,5.5,1.5,4.4,1.3Z"/>
  <path class="cls-1" d="m189.6,35.1c-1.3.8-.7,1.7.2.9,1.4-1.2,3.8-4.3,3.4-4.1-.5.3-2.1,2.2-3.7,3.1Z"/>
  <path class="cls-1" d="m196.6,29.7c.2-.5.4-1,.7-1.4.2-.3.8-1.2.4-1.5-.4-.3-1.1.4-1.3.6-3.5,3.4-7.5,5.2-12,5.9-1.4-.2-2.6-1-2.1-2.8.2-.9,1.1-1.4,2-1.5.8,0,1.6.2,2,1.1,0,0-.1,0-.2,0-.6-.2-1.3.2-1.5.8-.2.6.2,1.2.8,1.4.6.2,1.3-.2,1.5-.8,0-.2,0-.4,0-.6-.2-3-4.4-2.8-5-.4-.2.7-.2,1.4.2,2.1,0,0,0,.1,0,.1-2.3-.6-4.9-1.8-6.2-2.4-1.6-.7-4.1-1.6-5.9-1-.5.2-1,.5-1.2,1-.2.4-.3.8-.1,1.2.3.7,1.2,1.1,1.9,1.1,1.1,0,1.6-1.1.9-2-.2.6-.5.9-.9,1-1.2.5-2.5-1.2-.5-1.9,1.7-.6,4.1.3,5.6,1,1.6.7,4.6,2,7,2.6.2.1.3.2.5.3-.8,0-1.6.2-2.4.2-5.4.2-10.6-.7-15.9-1.3-2.3-.3-5.1-.3-7.3.6-.3,0-.7-.1-1-.2-2.3-.3-2,1.3-1.3,1.7-.1.1-.3.3-.4.5-.5.7-1,2.5-.5,2.6v-.3c1.2-4.6,6.7-4.7,10.5-4.3,5.3.6,10.6,1.6,16,1.3,1.6,0,3.2-.3,4.7-.6,0,.9.7,1,1.3.9,2.4-.4,4.8-2.7,7-4.3h0c1-.7,1.9-1.5,2.8-2.3h.1c0,0-.1,0-.2.1-1.2,1.8-1.7,4.7-.4,6.5.6.8,1.7,1.2,2.7.8h-.3c-2.7-.5-3-3.4-2.2-5.6Z"/>
  <path class="cls-1" d="m159.9,35.9c0-.8.5-1.5,2.1-1.7,1-.2-3.3-.3-4.4,1.3-1.2,1.8,2.3,3.2,2.3.4Z"/>
  <g>
    <path class="cls-1" d="m22.7,33.8c-3-3.1-4.5-7.4-4.4-11.8,0-.8.2-2.7.3-3.5.7-3.8,2.6-7.5,5.6-9.7l.3-.3c-1.9,0-3.5,2.1-4.2,3.1-1.4,2.1-2.3,4.6-2.7,7.2-2-2.3-3.2-5.3-3.6-8.4-.2-1.5-.2-3.1,0-4.5.2-1.2.5-2.4,1.1-3.5,1.3-2.2,3.9-2,5.1,0,1.3,2.1-2.2,4.2-4.3,2.5.1,1.9,1.6,3.2,3.2,2.7,2.1-.7,3.1-3.5,1.9-5.6-1.6-2.6-5-2.8-6.6,0-.6,1-.9,2.1-1.1,3.3-.3,1.8-.3,3.7,0,5.3.5,3.5,1.9,6.9,4.3,9.3,0,.2,0,.4,0,.5-.3,3.2.3,6.5,1.6,9.4.9,1.9,1.9,3.6,4,4.3l-.3-.3Z"/>
    <path class="cls-1" d="m13.2,23.4l-.4-.3c-1.9-1.6-3.3-5.3-3.7-7.7-.2-1.4-.4-2.8-.3-4.1,0-1.2.3-2.5.9-3.6l.2-.4c-.9,0-1.9,2.6-2,4,0,1.5,0,3,.3,4.4,0,.4.2.9.3,1.3-1.1-1.3-2.3-2.4-3.7-3-1.3-.6-2.9-.7-4,.5-.4.5-.7,1.1-.8,1.8-.2,1.5.4,3.5,1.9,4.3,2.7,1.6,5.8-1.6,2.1-4.1,1.2,3.1-3.1,3.5-3.1,0,0-.5.2-.9.5-1.3.8-.9,2-.7,3-.3,2.1.9,3.9,3.4,5.1,5.3.5,1.2,2.8,3.8,3.6,3.4Z"/>
    <path class="cls-1" d="m4.3,8c.2,1.6,1.2,3.9,1.9,4.6,0-1,0-2.7-.3-4.3-.3-2.2-1.8-1.7-1.6-.3Z"/>
    <path class="cls-1" d="m13.7,23c.5,1.4,2.1,4.7,2.1,4.7.4-.5,0-3.7-.3-5-.5-3-2.7-1.9-1.8.4Z"/>
    <path class="cls-1" d="m10.5,26.3c1.1.9,4,3,4.1,2.9.1-.7-1.8-3.2-2.7-4.2-1.9-2.3-3.2-.2-1.4,1.3Z"/>
    <ellipse class="cls-2" cx="13.1" cy="18.1" rx="1" ry="1"/>
    <ellipse class="cls-2" cx="11.8" cy="14.4" rx=".7" ry=".8"/>
    <path class="cls-1" d="m11.6,11.1c0-.3-.2-.5-.5-.5s-.5.2-.5.5.2.5.5.5.5-.2.5-.5Z"/>
    <path class="cls-1" d="m49.6,17.1c-.3-.8-1.5-2.2-2-2l.2.2c.5.6.9,1.3,1.2,2,.3.8.5,1.7.6,2.5.2,1.5,0,4-.8,5.4l-.2.3c.6,0,1.5-1.9,1.6-2.8.4-1.4,1-3.2,2.2-4.2.5-.5,1.3-.8,1.9-.4.3.1.5.4.6.7.7,2.1-2.1,2.8-1.9.7-1.8,2.2.7,3.6,2.1,2,.7-.8.7-2.1.3-3-.2-.4-.5-.7-.8-.9-.9-.5-1.9-.1-2.6.5-.7.6-1.3,1.6-1.7,2.6,0-.3,0-.6,0-.8-.1-.9-.3-1.8-.7-2.7Z"/>
    <path class="cls-1" d="m51.3,14.4c-.2-.9-1.2-.9-.9.5.2,1,.5,2.1.7,2.6.3-.6.5-2.1.3-3.1Z"/>
    <path class="cls-1" d="m47.1,25.5c.1.8.4,2.9.8,3.1,0,0,.3-2.3.4-3.2.1-1.5-1.5-1.8-1.2.1Z"/>
    <path class="cls-1" d="m49.8,26.1c-.3.8-1.1,2.7-.9,3.1,0,0,1.4-1.8,2-2.6.9-1.3-.4-2.2-1.1-.5Z"/>
    <path class="cls-1" d="m44.3,10.1c-.4-.5-.6-1-.6-1.3v-.2s-17.4,0-17.4,0v.5h8.9c2.1,1.4,5.5,3.1,10,3.5.7,0,1.3,0,2,0,2.7,0,5.3-.5,7.8-1.5h98.8v-.5H45.9c-.2,0-1,0-1.6-.6Zm10,1.1c-2.9,1-6,1.4-9.1,1.1-4.2-.4-7.4-1.9-9.5-3.3h7.6c0,.4.3.9.7,1.3.7.7,1.6.8,1.9.8h8.4Z"/>
    <path class="cls-1" d="m153.8,31.8H55.1c-3.2-1.2-6.6-1.7-10-1.4-4.5.4-7.9,2.1-10.1,3.6h-8.8v.5h17.3s0-.2,0-.2c0-.3.2-.8.6-1.3.6-.6,1.4-.6,1.6-.6h107.9v-.5Zm-109.8.8c-.4.5-.6,1-.7,1.3h-7.6c2.1-1.3,5.4-2.9,9.6-3.3,3.1-.3,6.3.1,9.2,1.2h-8.5c-.3,0-1.2,0-2,.8Z"/>
  </g>
</svg>