<?xml version="1.0" encoding="utf-8"?>
<!-- Generator: Adobe Illustrator 28.0.0, SVG Export Plug-In . SVG Version: 6.00 Build 0)  -->
<svg version="1.1" id="Layer_2_00000134968124157738757920000017864122689547461516_"
	 xmlns="http://www.w3.org/2000/svg" xmlns:xlink="http://www.w3.org/1999/xlink" x="0px" y="0px" width="100%" height="100%" preserveAspectRatio="none"
	 viewBox="0 0 1920 1080" style="enable-background:new 0 0 1920 1080;" xml:space="preserve">
<style type="text/css">
	.st0{fill-rule:evenodd;clip-rule:evenodd;fill:#1F1F1F;}
</style>
<path class="st0" d="M161.2,1024.7c-32.7-15.7-93.6-104.9-73.3-83c40.6,42.3,65.4,56.3,80,62.6c20.3,7.8,11.3,29.7-6.8,21.9
	L161.2,1024.7z"/>
<path class="st0" d="M161.2,976.2c-22.5-1.6-72.2-48.5-56.4-39.1c39.5,23.5,58.6,21.9,65.4,18.8c6.8-1.6,15.8,21.9-9,18.8V976.2z"/>
<path class="st0" d="M187.2,1054.4c16.9,11,33.8-4.7,33.8-4.7C213.1,1079.5,187.2,1060.7,187.2,1054.4z"/>
<path class="st0" d="M2.3,1020c13.5,3.1,28.2,0,37.2-15.7c2.3-3.1,3.4-7.8,4.5-12.5c-10.1,7.8-18-6.3-13.5-7.8
	c10.1-1.6,15.8-17.2,15.8-26.6c-2.3-18.8-6.8-31.3-11.3-39.1h-4.5V912c0,0,0-1.6-1.1-1.6h1.1V415.8c-5.6-54.8-9-117.4-13.5-165.9
	c-3.4-34.4-5.6-72-13.5-104.9c7.9,34.4,10.1,70.4,13.5,104.9c4.5,45.4,7.9,103.3,13.5,155V115.3c-4.5-1.6-7.9-7.8-7.9-14.1
	s4.5-14.1,10.1-14.1s10.1,6.3,10.1,14.1s-3.4,12.5-7.9,14.1v341.2c0,1.6,0,3.1,0,4.7c5.6,34.4,12.4,68.9,16.9,104.9
	c14.7,120.5,13.5,245.7-1.1,366.3c3.4,3.1,6.8,7.8,10.1,11c18,21.9,36.1,42.3,55.2,62.6c13.5,14.1,28.2,28.2,41.7,40.7
	c11.3,9.4,23.7,20.3,37.2,25c37.2,15.7,45.1-61,6.8-48.5c13.5-25,39.5-7.8,38.3,18.8H1672c-1.1-26.6,24.8-43.8,38.3-18.8
	c-38.3-12.5-30.4,62.6,6.8,48.5c12.4-4.7,25.9-15.7,37.2-25c14.7-12.5,28.2-26.6,41.7-40.7c19.2-20.3,37.2-42.3,55.2-62.6
	c4.5-4.7,7.9-9.4,12.4-14.1c-18-153.4-13.5-311.5,15.8-461.7V113.7c-4.5-1.6-7.9-7.8-7.9-14.1s4.5-14.1,10.1-14.1
	s10.1,6.3,10.1,14.1s-3.4,12.5-7.9,14.1v325.6c7.9-36,16.9-73.6,28.2-108c-11.3,37.6-20.3,75.1-28.2,114.3v472.7h-5.6
	c-3.4,6.3-7.9,15.7-10.1,31.3c1.1,9.4,2.3,17.2,3.4,26.6c2.3,4.7,6.8,9.4,11.3,11c4.5,0-2.3,15.7-13.5,7.8c1.1,4.7,3.4,7.8,4.5,12.5
	c9,15.7,23.7,18.8,37.2,15.7h2.3c-18,12.5-36.1,0-42.8-12.5c-10.1-17.2-11.3-43.8-6.8-65.7c0-1.6,0-3.1,0-6.3
	c-3.4,4.7-6.8,7.8-10.1,12.5c-2.3,3.1-5.6,6.3-7.9,9.4c0,1.6-2.3,3.1-3.4,4.7c-11.3,12.5-25.9,42.3-35,48.5c-3.4,1.6-6.8,0-7.9-3.1
	h-2.3c-13.5,17.2-28.2,31.3-42.8,43.8c-11.3,9.4-24.8,20.3-38.3,25c-19.2,7.8-33.8-1.6-40.6-17.2c-2.3-3.1-3.4-6.3-3.4-11H241.3
	c0,3.1-2.3,6.3-3.4,11c-7.9,14.1-22.5,25-40.6,17.2c-13.5-4.7-25.9-15.7-38.3-25c-14.7-12.5-29.3-26.6-42.8-42.3h-2.3
	c0,1.6-4.5,3.1-7.9,0c-9-7.8-23.7-37.6-35-48.5c-1.1-1.6-2.3-3.1-3.4-4.7c-2.3-3.1-5.6-6.3-7.9-9.4c-2.3-3.1-5.6-6.3-7.9-9.4
	c0,3.1,0,7.8-1.1,11c3.4,20.3,0,42.3-7.9,57.9c-6.8,12.5-24.8,25-42.8,11H2.3L2.3,1020z M1879.4,913.6c0,0,0,0,1.1,0V476.9
	c-25.9,147.1-30.4,302.1-12.4,450.8c1.1-1.6,3.4-3.1,4.5-6.3C1874.9,918.3,1877.2,916.7,1879.4,913.6L1879.4,913.6z M1869.3,935.5
	c0,0,0-1.6,0-3.1l0,0l0,0V935.5z M62,779c2.3-70.4-1.1-142.4-9-212.9c-3.4-29.7-10.1-70.4-14.7-101.7v450.8c2.3,1.6,4.5,4.7,5.6,6.3
	c2.3,3.1,4.5,6.3,6.8,7.8C56.4,879.1,60.9,829,62,779L62,779z M49.6,937c0,0-2.3-3.1-3.4-3.1c0,3.1,2.3,6.3,2.3,9.4
	c0-1.6,0-3.1,0-4.7L49.6,937z"/>
<path class="st0" d="M1695.6,1048.2c0,0,16.9,17.2,33.8,4.7C1729.5,1059.1,1703.5,1077.9,1695.6,1048.2z"/>
<path class="st0" d="M1746.4,955.8c7.9,1.6,25.9,3.1,65.4-18.8c15.8-9.4-33.8,37.6-56.4,39.1c-23.7,1.6-15.8-21.9-9-18.8V955.8z"/>
<path class="st0" d="M1755.4,1024.7c-18,7.8-27.1-14.1-6.8-21.9c14.7-4.7,39.5-18.8,80-62.6c20.3-21.9-40.6,68.9-73.3,83V1024.7z"/>
</svg>
