<?xml version="1.0" encoding="UTF-8"?>
<svg id="Layer_2" data-name="Layer 2" xmlns="http://www.w3.org/2000/svg" width="333.3" height="110.5" viewBox="0 0 333.3 110.5">
  <defs>
    <style>
      .cls-1 {
        fill-rule: evenodd;
      }

      .cls-1, .cls-2 {
        fill: #1f1f1f;
      }
    </style>
  </defs>
  <path class="cls-1" d="m279.6,96.1c-1.6-.8-4.3-2.2-5.3-3.8l-.4-.5v5.5c0,0,.3,0,.3,0v-4.3c1.3,1.4,3.7,2.7,5.2,3.4,2.9,1.4,6.1,2.5,9.2,3.5,2.7.8,5.6,1.5,8.4,1.9l1.3.2-1.2-.6c-2.9-1.3-5.9-3.3-7.6-6.1-1.1-1.9-1.5-4-1-6.1v-.2c-.3.2-.6,1.4-.6,2.1,0,.4,0,.8,0,1.2v.2c0,.6-.2,1.2-.6,1.7-1,1.4-3,1.9-4.6,1.7-1.4-.2-2.8-.9-3.5-2.2-.1-.2-.2-.4-.3-.6-.4-1.1-.2-2.6.9-3.2,1.4-.8,3.8-.2,3.9,1.6,0,1.1-2.6,2.4-3.4,0-.1-.3-.7,1.8.9,2.3,1.6.5,3.1-.7,3-2.4-.1-2.2-2.8-2.9-4.5-2-1.3.7-1.6,2.4-1.1,3.7,0,.2.2.5.3.7.4.8,1.1,1.4,1.9,1.8.6.3,1.3.5,1.9.6,1.8.2,3.9-.3,5-1.9.2-.3.4-.6.5-1,.2.7.5,1.5,1,2.1,1.5,2.5,4,4.3,6.6,5.7-2.4-.4-4.8-1-7.1-1.7-3.1-.9-6.2-2-9.1-3.4Z"/>
  <path class="cls-1" d="m311.2,86.5c5.2,2.8,7.5,9.8,2.5,16.5,9.1-7.8,1.8-15.8-2.5-16.5Z"/>
  <path class="cls-1" d="m292.5,90c-3.2.4-1.9,3.8-.8,4.7-1-2.1-.5-3.8.8-4.7Z"/>
  <path class="cls-1" d="m243.2,93.7c-4.6-1.2-4.1,2.9-3,4.3-.4-2.6.9-4.1,3-4.3Z"/>
  <path class="cls-1" d="m274.9,89.6c-.2,0-.4.1-.6.3l-44.3-.4c-.6,0-1.2,0-1.8,0-1.7,0-17.1,0-17,1.2h.4c1.8-.5,6.6-.4,10.7-.4,4.2.4,5,.9,7.1,1.7,2.1.8,2.3-.7,1.6-1.5,2.3,0,4.7.3,7,.5.4,0,.9.1,1.3.2h0s.5,0,.5,0c3.2.4,9.5,2.1,9.6,6.2,0,1.4-.4,2.9-1.8,3.5-1.1.5-2.4.4-3.4-.1-1-.5-1.8-1.3-1.6-2.5.2-1.2,2.1-1.7,3.2-.9-.5.1-.9.6-.9,1.1,0,.6.5,1.2,1.2,1.2.3,0,.5,0,.7-.2.9-.6,1.2-2,.7-3-.7-1.3-2.6-1.8-4-1-2.3,1.2-2.4,4.9.4,6.2.6.3,1.2.4,1.8.5.8,0,1.7,0,2.4-.4,1.8-.8,2.4-2.6,2.3-4.4,0-2.3-1.7-3.9-3.8-5,4.2.8,8.5,1.8,12.6,2.8,13.1,3.3,27.8,8.6,41.1,10.5,2.4.4,4.5.3,6.2-.1,1.6,0,3.8.8,4.6,2.4,0,0,1.1-2.4-1.5-3.7,3.3-2.3,4-6.4,2.7-9.8,0-.3.2-.7.2-1.1.5-3-1.5-2.9-2.2-2.1-1.9-2-4.8-3-8.5-2.1-1.5.4-2.8,1.1-3.9,2.2-3.2,3.5-.9,8.6,3.6,9.3.7.1,1.3,0,2,0,6.3-1.7,3.3-9.7-1.6-7.2-.5.1-.8.6-.8,1.1,0,.7.5,1.2,1.2,1.2.6,0,1.1-.5,1.2-1.1,1.8,1.5,2.1,3.6,1,4.6.3-1.2-.6-1.8-.7-1.6-.2.3,0,1.6-.9,2.2-.1,0-.3,0-.5,0-4.1-.3-6.6-4.7-3.6-7.9.9-1,2.1-1.6,3.4-1.9,11.8-3,15.2,17.3-1.6,14.8-8.9-1.3-18.3-4.1-27.6-6.8v-7.3c0,0,1.6,0,1.6,0,0,.2.3.4.6.4.4,0,.7-.3.7-.7,0-.4-.3-.7-.7-.7Zm-35.6.6h0s0,0,0,0h0Zm.8.1c-.2,0-.4,0-.6,0h0s.6,0,.6,0h0Zm.9.1c-.2,0-.4,0-.6,0h0c0-.1.6-.1.6-.1v.2Zm.8.1c-.2,0-.4,0-.6,0v-.2s.6,0,.6,0v.3Zm.9.1c-.2,0-.4,0-.6,0v-.4s.6,0,.6,0v.5Zm.8.1c-.2,0-.4,0-.6,0v-.5s.6,0,.6,0v.6Zm.9.1c-.2,0-.4,0-.6,0v-.6s.6,0,.6,0v.7Zm.8.1c-.2,0-.4,0-.6,0v-.8s.6,0,.6,0v.8Zm.9.2c-.2,0-.4,0-.6-.1v-.9s.6,0,.6,0v1Zm.8.2c-.2,0-.4,0-.6-.1v-1s.6,0,.6,0v1.1Zm.9.2c-.2,0-.4,0-.6-.1v-1.2s.6,0,.6,0v1.3Zm.8.2c-.2,0-.4,0-.6-.1v-1.3s.6,0,.6,0v1.5Zm.9.2c-.2,0-.4,0-.6-.1v-1.5s.6,0,.6,0v1.6Zm.8.2c-.2,0-.4,0-.6-.1v-1.7s.6,0,.6,0v1.8Zm.9.2c-.2,0-.4,0-.6-.1v-1.8s.6,0,.6,0v2Zm.8.2c-.2,0-.4,0-.6-.1v-2s.6,0,.6,0v2.1Zm.9.2c-.2,0-.4,0-.6-.1v-2.2s.6,0,.6,0v2.3Zm.8.2c-.2,0-.4,0-.6-.1v-2.4s.6,0,.6,0v2.5Zm.9.2c-.2,0-.4,0-.6-.1v-2.5s.6,0,.6,0v2.7Zm.8.2c-.2,0-.4,0-.6-.1v-2.7s.6,0,.6,0v2.9Zm.9.2c-.2,0-.4,0-.6-.1v-2.9s.6,0,.6,0v3.1Zm.8.2c-.2,0-.4,0-.6-.1v-3.1s.6,0,.6,0v3.2Zm.9.2c-.2,0-.4,0-.6-.1v-3.3s.6,0,.6,0v3.5Zm.8.2c-.2,0-.4,0-.6-.1v-3.5s.6,0,.6,0v3.7Zm.9.2c-.1,0-.3,0-.4-.1h-.2s0-3.8,0-3.8h.6s0,3.9,0,3.9Zm.8.2c-.2,0-.4,0-.6-.1v-3.9s.6,0,.6,0v4.1Zm.9.2c-.2,0-.4-.1-.6-.2v-4.1s.6,0,.6,0v4.3Zm.9.2c-.2,0-.4-.1-.6-.2v-4.3s.6,0,.6,0v4.5Zm.8.2c-.2,0-.4-.1-.6-.2v-4.6s.6,0,.6,0v4.7Zm.9.2c-.2,0-.4-.1-.6-.2v-4.8s.6,0,.6,0v4.9Zm.8.2l-.6-.2v-5s.6,0,.6,0v5.2Zm.9.2l-.6-.2v-5.2c0,0,.6,0,.6,0v5.4Zm.8.2l-.6-.2v-5.5c0,0,.6,0,.6,0v5.6Zm.9.2c-.2,0-.4-.1-.6-.2v-5.7c0,0,.6,0,.6,0v5.8Zm.8.2l-.6-.2v-5.9c0,0,.6,0,.6,0v6.1Zm.9.2l-.6-.2v-6.2c0,0,.7,0,.7,0v6.3Zm.8.2l-.6-.2v-6.4c0,0,.6,0,.6,0v6.6Zm.9.2l-.6-.2v-6.6c0,0,.7,0,.7,0v6.8Zm.8.2l-.6-.2v-6.9c0,0,.6,0,.6,0v7Zm.9.3l-.6-.2v-7.1c0,0,.7,0,.7,0v7.3Z"/>
  <path class="cls-1" d="m239.3,92.4c-3.6-.3-3.1,3.3-1.5,4.1-.9-1.9-.1-3.5,1.5-4.1Z"/>
  <path class="cls-1" d="m296.2,89.9c-4.7-.2-3.2,4.9-1.7,6.5-1.1-3.2-.2-5.6,1.7-6.5Z"/>
  <rect class="cls-2" x="225.5" y="70.2" width=".5" height="36.1" transform="translate(135.2 313.1) rotate(-89.4)"/>
  <path class="cls-1" d="m235.7,91.9c-2.3-.2-2,2.1-.9,2.5-.3-1.2.3-2.1.9-2.5Z"/>
  <path class="cls-1" d="m7.3,103c-5.1-6.7-2.8-13.8,2.5-16.5-4.3.7-11.6,8.7-2.5,16.5Z"/>
  <path class="cls-1" d="m85.3,91.9c.7.4,1.2,1.4.9,2.5,1-.5,1.3-2.8-.9-2.5Z"/>
  <path class="cls-1" d="m77.9,93.7c2.1.2,3.4,1.8,3,4.3,1.1-1.5,1.6-5.5-3-4.3Z"/>
  <rect class="cls-2" x="77.3" y="88.1" width="36.1" height=".5" transform="translate(-.9 .9) rotate(-.6)"/>
  <path class="cls-1" d="m81.7,92.4c1.6.6,2.4,2.1,1.5,4.1,1.6-.7,2.1-4.4-1.5-4.1Z"/>
  <path class="cls-1" d="m24.8,89.9c2,.9,2.8,3.3,1.7,6.5,1.5-1.6,3-6.7-1.7-6.5Z"/>
  <path class="cls-1" d="m28.6,90c1.3.8,1.7,2.6.8,4.7,1.1-.9,2.5-4.3-.8-4.7Z"/>
  <path class="cls-1" d="m22.6,102l1.3-.2c2.8-.4,5.7-1.1,8.4-1.9,3.1-.9,6.3-2,9.2-3.5,1.5-.7,3.9-2,5.1-3.4v4.3s.4,0,.4,0v-5.5c0,0-.4.5-.4.5-1,1.5-3.7,3-5.3,3.8-2.9,1.4-6,2.5-9.1,3.4-2.3.7-4.7,1.3-7.1,1.7,2.6-1.4,5.1-3.2,6.6-5.7.4-.7.7-1.4,1-2.1.1.4.3.7.5,1,1.1,1.5,3.2,2.1,5,1.9.7,0,1.3-.3,1.9-.6.8-.4,1.4-1,1.9-1.8.1-.2.2-.5.3-.7.5-1.3.2-3-1.1-3.7-1.7-.9-4.4-.2-4.5,2,0,1.7,1.4,2.9,3,2.4,1.6-.6,1-2.6.9-2.3-.9,2.3-3.5,1.1-3.4,0,.1-1.9,2.5-2.4,3.9-1.6,1.1.6,1.3,2.1.9,3.2,0,.2-.2.4-.3.6-.7,1.3-2.1,2-3.5,2.2-1.6.2-3.6-.3-4.6-1.7-.4-.5-.5-1.1-.6-1.7v-.2c0-.4,0-.8,0-1.2,0-.7-.3-1.8-.7-2.1v.2c.6,2.1.2,4.2-.9,6.1-1.7,2.8-4.7,4.7-7.6,6.1l-1.2.6Z"/>
  <path class="cls-1" d="m19.3,89c-3.6-.9-6.6.2-8.5,2.1-.7-.8-2.7-.9-2.2,2.1,0,.4.2.8.2,1.1-1.3,3.4-.5,7.5,2.7,9.8-2.6,1.3-1.5,3.7-1.5,3.7.8-1.6,3-2.3,4.6-2.4,1.7.4,3.7.5,6.2.1,13.3-2,27.9-7.3,41.1-10.5,4.2-1,8.4-2,12.6-2.8-2.1,1.1-3.7,2.7-3.8,5,0,1.8.5,3.6,2.3,4.4.7.3,1.6.5,2.4.4.6,0,1.2-.2,1.8-.5,2.8-1.4,2.7-5,.4-6.2-1.4-.8-3.3-.2-4,1-.6,1-.3,2.4.7,3,.2.2.5.2.7.2.6,0,1.2-.5,1.2-1.2,0-.5-.4-1-.9-1.1,1.1-.8,3-.3,3.2.9.2,1.2-.6,2-1.6,2.5-1,.5-2.4.6-3.4.1-1.4-.6-1.8-2.1-1.8-3.5.2-4.1,6.4-5.7,9.6-6.2h.5c0,0,0,0,0,0,.4,0,.9-.1,1.3-.2,2.3-.3,4.6-.5,7-.5-.7.9-.5,2.3,1.6,1.5,2.1-.8,2.9-1.3,7.1-1.7,4.1,0,8.9,0,10.7.3h.4c0-1.1-15.3-1.1-17-1.1-.6,0-1.2,0-1.8,0l-44.3.4c-.1-.2-.3-.3-.6-.3-.4,0-.7.3-.7.7,0,.4.3.7.7.7.3,0,.5-.2.6-.4h1.5s0,7.3,0,7.3c-9.2,2.7-18.7,5.5-27.6,6.8-16.8,2.5-13.4-17.8-1.6-14.8,1.3.3,2.5,1,3.4,1.9,2.9,3.2.4,7.5-3.6,7.9-.2,0-.3,0-.5,0-.9-.6-.7-1.9-.9-2.2,0-.1-1.1.4-.7,1.6-1.1-1-.8-3.1,1-4.6,0,.6.6,1.1,1.2,1.1.6,0,1.2-.5,1.2-1.2,0-.5-.3-1-.8-1.1-4.9-2.6-7.9,5.5-1.6,7.2.6.2,1.3.2,2,0,4.5-.7,6.8-5.8,3.6-9.3-1-1.1-2.4-1.9-3.9-2.2Zm62.4,1.2h0,0s0,0,0,0Zm-.3,0h0c-.2,0-.4,0-.6.1h0c0-.1.6-.1.6-.1Zm-.8,0h0c-.2.2-.4.2-.6.2v-.2s.6,0,.6,0Zm-.9,0v.2c-.2,0-.4,0-.6,0v-.3s.6,0,.6,0Zm-.8,0v.4c-.2,0-.4,0-.6,0v-.5s.6,0,.6,0Zm-.9,0v.5c-.2,0-.4,0-.6,0v-.6s.6,0,.6,0Zm-.8,0v.6c-.2,0-.4,0-.6,0v-.7s.6,0,.6,0Zm-.9,0v.8c-.2,0-.4,0-.6,0v-.8s.6,0,.6,0Zm-.8,0v.9c-.2,0-.4,0-.6.1v-1s.6,0,.6,0Zm-.9,0v1c-.2,0-.4,0-.6.1v-1.1s.6,0,.6,0Zm-.8,0v1.2c-.2,0-.4,0-.6.1v-1.3s.6,0,.6,0Zm-.9,0v1.3c-.2,0-.4,0-.6.1v-1.5s.6,0,.6,0Zm-.8,0v1.5c-.2,0-.4,0-.6.1v-1.6s.6,0,.6,0Zm-.9,0v1.7c-.2,0-.4,0-.5.1v-1.8s.5,0,.5,0Zm-.8,0v1.8c-.2,0-.4,0-.6.1v-2s.6,0,.6,0Zm-.9,0v2c-.2,0-.4,0-.5.1v-2.1s.5,0,.5,0Zm-.8,0v2.2c-.2,0-.4,0-.6.1v-2.3s.6,0,.6,0Zm-.9,0v2.4c-.2,0-.4,0-.5.1v-2.5s.5,0,.5,0Zm-.8,0v2.5c-.2,0-.4,0-.6.1v-2.7s.6,0,.6,0Zm-.9,0v2.7c-.2,0-.4,0-.5.1v-2.9s.5,0,.5,0Zm-.8,0v2.9c-.2,0-.4,0-.6.1v-3.1s.6,0,.6,0Zm-.9,0v3.1c-.2,0-.3,0-.5.1v-3.2s.5,0,.5,0Zm-.8,0v3.3c-.2,0-.4,0-.6.1v-3.5s.6,0,.6,0Zm-.9,0v3.5c-.2,0-.3,0-.5.1v-3.7s.5,0,.5,0Zm-.8,0v3.7s-.2,0-.2,0c-.1,0-.3,0-.4.1v-3.9s.6,0,.6,0Zm-.9,0v3.9c-.1,0-.3,0-.5.1v-4.1s.5,0,.5,0Zm-.8,0v4.1c-.2,0-.4.1-.6.2v-4.3s.6,0,.6,0Zm-.9,0v4.3c-.2,0-.4.1-.5.2v-4.5s.5,0,.5,0Zm-.9,0v4.6c-.1,0-.3.1-.5.2v-4.7s.5,0,.5,0Zm-.8,0v4.8c-.1,0-.3.1-.5.2v-4.9s.5,0,.5,0Zm-.9,0v5s-.5.2-.5.2v-5.2c0,0,.5,0,.5,0Zm-.8,0v5.2c0,0-.5.2-.5.2v-5.4c0,0,.5,0,.5,0Zm-.9,0v5.5c0,0-.5.2-.5.2v-5.6c0,0,.5,0,.5,0Zm-.8,0v5.7c-.1,0-.3.1-.5.2v-5.8c0,0,.5,0,.5,0Zm-.9,0v5.9c0,0-.5.2-.5.2v-6.1c0,0,.5,0,.5,0Zm-.8,0v6.2c0,0-.5.2-.5.2v-6.3c0,0,.5,0,.5,0Zm-.9,0v6.4c0,0-.5.2-.5.2v-6.6c0,0,.5,0,.5,0Zm-.8,0v6.6c0,0-.5.2-.5.2v-6.8c0,0,.5,0,.5,0Zm-.9,0v6.9c0,0-.5.2-.5.2v-7c0,0,.5,0,.5,0Zm-.8,0v7.1c0,0-.5.2-.5.2v-7.3c0,0,.5,0,.5,0Z"/>
  <path class="cls-1" d="m193.3,15.1c.7,0,1.3-.6,1.3-1.3s-.6-1.3-1.3-1.3-1.3.6-1.3,1.3.6,1.3,1.3,1.3Z"/>
  <path class="cls-1" d="m113.8,3.3c.1-2-2.1-2.7-2.1-.3,0,2.8,0,8-3.2,11.7-.2.3-.7.6-.5.5,2.3-1.1,5.6-7.7,5.8-11.9Z"/>
  <path class="cls-1" d="m197.1,14.6c.4,0,.8-.4.8-.8s-.4-.8-.8-.8-.8.4-.8.8.4.8.8.8Z"/>
  <path class="cls-1" d="m215.4,15.2c.2,0-.3-.2-.5-.5-3.2-3.7-3.2-8.9-3.2-11.7,0-2.5-2.2-1.8-2.1.3.2,4.2,3.5,10.8,5.8,11.9Z"/>
  <path class="cls-1" d="m111.1,13.6c4-1.2,8.6-3.9,11.2-7.2,1.2-1.6-.5-2.8-1.6-1.4-2.7,3.6-4.6,5.7-8.4,8-.7.4-1.2.7-1.1.7Z"/>
  <path class="cls-1" d="m212.3,13.6s-.5-.3-1.1-.7c-3.8-2.3-5.7-4.4-8.4-8-1.1-1.4-2.8-.2-1.6,1.4,2.5,3.3,7.2,6,11.2,7.2Z"/>
  <path class="cls-1" d="m153.1,4.6c-6.1,1.4-8.3,6.4-3.1,11.1-2.5-4-.7-9.1,3.1-11.1Z"/>
  <path class="cls-1" d="m130.1,12.5c-.7,0-1.3.6-1.3,1.3s.6,1.3,1.3,1.3,1.3-.6,1.3-1.3-.6-1.3-1.3-1.3Z"/>
  <path class="cls-1" d="m126.3,13c-.4,0-.8.4-.8.8s.4.8.8.8.8-.4.8-.8-.4-.8-.8-.8Z"/>
  <path class="cls-1" d="m143.7,14.3c-2.2-3.6-.6-8.1,2.7-9.8-5.5,1.3-7.4,5.7-2.7,9.8Z"/>
  <path class="cls-1" d="m173.4,15.6c5.2-4.7,3.1-9.6-3.1-11.1,3.8,2,5.5,7.1,3.1,11.1Z"/>
  <path class="cls-1" d="m135.7,10.7c-1.3,0-2.4,1.1-2.4,2.4s1.1,2.4,2.4,2.4,2.4-1.1,2.4-2.4-1.1-2.4-2.4-2.4Z"/>
  <path class="cls-1" d="m179.7,14.3c4.7-4.2,2.7-8.6-2.7-9.8,3.4,1.8,4.9,6.3,2.7,9.8Z"/>
  <path class="cls-1" d="m187.7,15.5c1.3,0,2.4-1.1,2.4-2.4s-1.1-2.4-2.4-2.4-2.4,1.1-2.4,2.4,1.1,2.4,2.4,2.4Z"/>
  <path class="cls-1" d="m322.1,11.7c.6.2,1.3.3,1.6.1,0,0-.6-.7-1.1-1.1-.9-.6-1.8.5-.5,1Z"/>
  <path class="cls-1" d="m323.4,24.7c.1,0,.3,0,.4.1-.1,1.5-.6,3.8-2.2,4.3h-.3c2.1.4,2.9-2.6,3.1-4.3.6,0,1.2-.2,1.7-.5.8-.6,1.1-1.8,1-2.8-.1-.8-.5-1.5-1.1-2-.3-.2-.7-.4-1.1-.4-1.5-.2-2.4,1.7-.5,2.4-.4-1,1-2.3,1.8-.9.2.3.3.7.3,1,.1.8-.1,1.8-.8,2.3-.4.3-.9.4-1.3.4,0,0,0-.2,0-.3,0-1-.4-1.7-.8-1.8v.3c.2.5.2,1,.2,1.5,0,0,0,.1,0,.2,0,0-.2,0-.3,0-1-.3-1.6-1.1-1.9-2.1-.4-1.3-.3-2.7.5-3.8.7-.9,1.7-1.6,2.9-1.7.6,0,1.3.1,1.8.4,1.2.7,2,2.2,2,3.7,0,2.1-1.2,4.5-2.4,6.3-1.1,1.6-2.3,3.2-3.5,4.6-.6.7-1.8,2.4-1.8,3.3.9-1.5,1.8-2.3,2.4-3,1.2-1.5,2.4-3,3.5-4.6.6-.9,1.2-1.9,1.6-3,.8-1.2,2.3-3.8,1.8-5.1-.3-.7-1-.8-1.3-.5-.2-.7-.5-1.4-.7-1.8-.9-1.6-2-3.1-3-4.6.7-.2,1.4-.3,2.1-.1,1.1.2,2.1.7,2.9,1.5,1,.9,1.6,2.1,2,3.4.5,1.8.4,3.7,0,5.4-.1.7-.3,1.4-.6,2.1-.3.8-2.1,4.6-1.4,5.3.5-2.3,2-4.5,2.6-7.2.4-1.9.5-3.9,0-5.7-.4-1.4-1.1-2.7-2.2-3.7-.9-.8-2-1.4-3.2-1.6-.9-.1-1.8,0-2.6.2-.6-.8-1.1-1.7-1.6-2.5-.6-1.1-1-2.4-.9-3.7,0-1,.4-1.8,1.1-2.5.6-.6,1.3-1.1,2.2-1.3.7-.2,1.6-.2,2.2.2.3.2.6.4.9.7.8.9.9,2.3.5,3.4-.5,1.4-4.1,1-3.6-1.8-2.9,1.9-.6,5.1,1.8,4.3,1.1-.3,2-1.1,2.4-2.3.5-1.3.3-2.9-.7-4-.3-.4-.7-.6-1.1-.8-.8-.4-1.8-.4-2.7-.2-.9.2-1.8.8-2.5,1.5-.7.8-1.2,1.8-1.3,2.9-.1,1.4.3,2.8,1,4,.5.9,1,1.7,1.5,2.5-1.1.7-2.1,2.7-1.3,4.3v-.3c0-1.4.5-2.7,1.7-3.4h0c.9,1.4,2,2.8,2.8,4.2-.1-.1-.3-.2-.4-.3-.6-.4-1.4-.6-2.1-.5-1.3,0-2.6.8-3.3,1.9-.9,1.3-1,2.8-.6,4.3.3,1.1,1.1,2,2.2,2.4Z"/>
  <path class="cls-1" d="m321.3,31.7c.3,0,.6-.3.6-.6s-.3-.6-.6-.6-.6.3-.6.6.3.6.6.6Z"/>
  <path class="cls-1" d="m321.3,80.9c.3,0,.6-.3.6-.6s-.3-.6-.6-.6-.6.3-.6.6.3.6.6.6Z"/>
  <path class="cls-1" d="m330.3,81.6c-.7.6,1.1,4.4,1.4,5.3.2.7.4,1.4.6,2.1.4,1.8.5,3.7,0,5.4-.3,1.3-1,2.5-2,3.4-.8.7-1.8,1.3-2.9,1.5-.7.1-1.4,0-2.1-.1,1-1.5,2.1-3,3-4.6.2-.4.5-1.1.7-1.8.4.3,1,.2,1.3-.5.5-1.3-1-3.9-1.8-5.1-.5-1.1-1.1-2.1-1.6-3-1-1.6-2.2-3.1-3.5-4.6-.6-.7-1.5-1.6-2.4-3,0,.9,1.2,2.6,1.8,3.3,1.3,1.5,2.5,3,3.5,4.6,1.1,1.8,2.4,4.1,2.4,6.3,0,1.4-.8,2.9-2,3.7-.6.3-1.2.5-1.8.4-1.2,0-2.2-.7-2.9-1.7-.8-1.1-.9-2.5-.5-3.8.3-.9.9-1.7,1.9-2.1,0,0,.2,0,.3,0,0,0,0,.1,0,.2,0,.5,0,1-.2,1.5v.3c.4,0,.7-.7.7-1.8,0,0,0-.2,0-.3.5,0,.9.1,1.3.4.7.5.9,1.5.8,2.3,0,.4-.2.7-.3,1-.8,1.3-2.2.1-1.8-.9-1.9.7-1,2.6.5,2.4.4,0,.8-.2,1.1-.4.6-.5,1-1.2,1.1-2,.1-1-.2-2.2-1-2.8-.5-.4-1.1-.6-1.7-.5-.1-1.6-1-4.7-3.1-4.4h.3c1.6.7,2.1,2.9,2.2,4.4-.2,0-.3,0-.4.1-1.1.4-1.9,1.3-2.2,2.4-.5,1.5-.3,3,.6,4.3.8,1.1,2,1.8,3.3,1.9.8,0,1.5-.1,2.1-.5.1,0,.3-.2.4-.3-.9,1.5-1.9,2.8-2.8,4.2h0c-1.2-.7-1.7-2-1.7-3.4v-.3c-.8,1.6.2,3.6,1.3,4.3-.5.8-1.1,1.6-1.5,2.5-.7,1.2-1.1,2.6-1,4,0,1.1.5,2.1,1.3,2.9.7.7,1.5,1.2,2.5,1.5.9.2,1.9.2,2.7-.2.4-.2.8-.5,1.1-.8.9-1.1,1.1-2.7.7-4-.4-1.2-1.3-2-2.4-2.3-2.4-.7-4.7,2.4-1.8,4.3-.5-2.8,3.1-3.2,3.6-1.8.4,1.1.2,2.5-.5,3.4-.2.3-.5.5-.9.7-.7.3-1.5.3-2.2.2-.8-.2-1.6-.7-2.2-1.3-.6-.7-1-1.6-1.1-2.5-.1-1.3.3-2.5.9-3.7.5-.9,1-1.7,1.6-2.5.8.3,1.7.4,2.6.2,1.2-.2,2.3-.8,3.2-1.6,1.1-1,1.8-2.3,2.2-3.7.5-1.9.4-3.9,0-5.7-.6-2.7-2.1-4.8-2.6-7.2Z"/>
  <path class="cls-1" d="m322.6,100.7c.6-.4,1.1-1.1,1.1-1.1-.3-.2-1,0-1.6.1-1.3.5-.5,1.6.5,1Z"/>
  <path class="cls-1" d="m311.1,9.1s-2.3-1.3-3.2-3.6c-.6-1.6-1.9-.6-1.2.5.8,1.3,3.1,2.9,4.4,3.1Z"/>
  <path class="cls-1" d="m302.6,8.2c1.4.3,4.2.3,4.8.4,0,0,0,0,0,0-1.4-.5-2.7-1.5-4.5-2-1.7-.4-1.8,1.2-.4,1.6Z"/>
  <path class="cls-1" d="m305.8,10.9c-1.2.7-2,1.7-2.1,3.1-.1,1,.1,2,.6,2.9.4.8,1.1,1.5,1.8,2,.7.5,1.5.8,2.4.7.9,0,1.7-.5,2.3-1.1.4-.4.7-.9.9-1.4.5-1.5,0-3.4-1.6-4-.6-.2-1.4,0-2,.2-1.8,1-1.6,2.8-.8,3.5.9.9,2.7.5,2.1,0-1.2-.9-1.3-3.4.4-2.8,1.1.4,1.3,1.8,1,2.8-.3,1-1.3,1.7-2.3,1.8-1.4.1-2.7-1-3.3-2.2-.4-.7-.6-1.6-.5-2.4.1-1.1.8-1.9,1.7-2.4.8-.5,1.7-.7,2.6-.6,1,0,2,.4,2.8,1,1.9,1.4,2.7,3.8,3,6.1.1.9.2,1.8.1,2.6v.5c.7-.5,1-1.5.8-3.2-.3-2.6-1.3-5.2-3.4-6.8-1-.7-2.1-1.1-3.3-1.1-1.1,0-2.1.2-3.1.8Z"/>
  <path class="cls-1" d="m13.7,8.6c.6-.2,3.4-.1,4.8-.4,1.5-.3,1.3-2-.4-1.6-1.8.4-3.1,1.5-4.5,2,0,0,0,0,0,0Z"/>
  <path class="cls-1" d="m14.3,6c.6-1-.6-2-1.2-.5-.9,2.2-3.2,3.6-3.2,3.6,1.3-.2,3.7-1.9,4.4-3.1Z"/>
  <path class="cls-1" d="m6.2,21.3v-.5c0-.8,0-1.7.1-2.6.3-2.4,1.1-4.8,3-6.1.8-.6,1.8-.9,2.8-1,.9,0,1.8.2,2.6.6.9.5,1.5,1.3,1.7,2.4,0,.8-.1,1.7-.5,2.4-.6,1.2-1.9,2.3-3.3,2.2-1,0-2-.8-2.3-1.8-.3-1-.1-2.4,1-2.8,1.7-.6,1.6,1.9.4,2.8-.6.5,1.1.8,2.1,0,.8-.7,1-2.5-.8-3.5-.6-.3-1.4-.4-2-.2-1.6.6-2.1,2.5-1.6,4,.2.5.5,1,.9,1.4.6.6,1.4,1,2.3,1.1.9,0,1.7-.2,2.4-.7.8-.5,1.4-1.3,1.8-2,.5-.9.7-1.9.6-2.9-.2-1.4-1-2.4-2.1-3.1-.9-.5-2-.8-3.1-.8-1.2,0-2.3.4-3.3,1.1-2.1,1.5-3.1,4.2-3.4,6.8-.2,1.7,0,2.7.8,3.2Z"/>
  <path class="cls-1" d="m-253.6,93.3h0m.8-25.5M.2,74.8v18.5h.5c0-.8.2-1.6.5-2.3.5-1.3,1.3-2.5,2.4-3.5h0v-2.1h4c.4.3.7.5,1.1.7,1.8.9,3.6.8,4.3.7,3.7-.2,10-.2,21,0h0s0,0,0,0c1.1-.5,2.2-1,3.3-1.4h245.3c1.1.4,2.2.9,3.3,1.4h0s0,0,0,0c11-.3,17.3-.3,21,0,.7,0,2.5.1,4.3-.7.4-.2.8-.4,1.1-.7h3.8v2.1h0c1.1,1.1,1.9,2.3,2.4,3.6.3.8.4,1.5.5,2.3h.5V15.2h-.5c0,.8-.2,1.6-.5,2.3-.5,1.3-1.3,2.5-2.4,3.5h0v2h-4.3c-.2-.1-.5-.3-.7-.4-1.8-.9-3.6-.8-4.3-.7-3.7.2-10,.2-21,0h0s0,0,0,0c-.9.4-1.7.8-2.6,1.1h-51.1c-.2,0-.4,0-.6-.1-2.7-.7-5.5-1.6-8.1-2.5-.8-.3-1.7-.6-2.5-.9-1.6-1.5-2.7-3.5-3-6-.4-3.5.3-7.3,3.9-8.7.9-.3,1.9-.5,2.8-.5,2.3,0,5.1,1.2,6.2,3.4.6,1.2.7,2.4.1,3.6-1.2,2.6-6.8,2.2-7.9-2.3-3.2,4.3.7,6.9,3.4,6.8,1.5,0,3.3-.9,4.7-2.7.4-.4.6-1,.8-1.5.5-1.4.5-3-.2-4.4-1.3-2.5-4.3-3.9-7.1-3.9-1.1,0-2.2.1-3.2.5-1.6.6-2.9,1.7-3.7,3.3-1,2-1.2,4.3-.9,6.4.2,1.9.9,3.6,1.9,5h0c-4.5-1.8-8.9-3.8-13.3-5.8-4.1-1.9-8.2-3.8-12.2-5.7-3.7-1.7-7.4-3.4-11.2-5-3.4-1.4-7.1-2.3-10.8-2.1-2.7.2-5.4,1-7.6,2.6-.9.7-1.6,1.4-2.2,2.1-.6-.8-1.3-1.5-2.2-2.1-2.2-1.6-4.9-2.5-7.6-2.6-3.7-.2-7.4.7-10.8,2.1-3.8,1.5-7.5,3.3-11.2,5-4.1,1.9-8.2,3.8-12.2,5.7-4.4,2-8.8,4-13.3,5.8h0c1-1.4,1.7-3.1,1.9-5,.3-2.2.2-4.5-.9-6.4-.8-1.5-2.1-2.6-3.7-3.3-1-.4-2.1-.6-3.2-.5-2.7,0-5.8,1.4-7.1,3.9-.7,1.4-.7,2.9-.2,4.4.2.5.4,1.1.8,1.5,1.4,1.8,3.2,2.7,4.7,2.7,2.7,0,6.6-2.5,3.4-6.8-1.1,4.5-6.7,4.8-7.9,2.3-.5-1.2-.5-2.4.1-3.6,1.1-2.2,3.9-3.3,6.2-3.4,1,0,1.9.1,2.8.5,3.6,1.4,4.4,5.2,3.9,8.7-.3,2.5-1.3,4.5-3,6-.8.3-1.7.6-2.5.9-2.7,1-5.4,1.8-8.1,2.5-.2,0-.4,0-.6.1h-54.3c-.9-.4-1.8-.7-2.6-1.1h0s0,0,0,0c-11,.3-17.3.3-21,0-.7,0-2.5-.1-4.3.7-.2.1-.5.2-.7.4H3.6v-1.9h0c-1.1-1.1-1.9-2.3-2.4-3.6-.3-.8-.4-1.5-.5-2.3H.2v17.6m316.9-11.5c1.1-1,1.9-2.3,2.4-3.7h0s0,73.1,0,73.1h0c-.5-1.4-1.3-2.7-2.4-3.7V21.4Zm-277.8,3.2c5.7,1.9,11.7,2.9,18,2.7h205.6c6.3.2,12.3-.8,18-2.7h32.5c.6.6,1.2,1.4,1.7,2.3v55.2c-.4.7-.8,1.3-1.3,1.8h-33.6c-5.4-1.8-11.2-2.6-17.2-2.4H57.5c-6-.2-11.7.7-17.2,2.4H6.7c-.6-.6-1.1-1.4-1.6-2.2V26.8c.5-.9,1.1-1.7,1.7-2.3h32.5Zm239.9,0c-5.2,1.6-10.7,2.3-16.4,2.2H57.3c-5.7.1-11.2-.6-16.4-2.2h238.3Zm-.8,59.3H42c4.9-1.4,10.1-2.1,15.4-1.9h205.6c5.3-.1,10.5.5,15.4,1.9Zm-273.3-1.2c.3.4.6.8.9,1.2h-.9v-1.2Zm29,3.7c-11-.3-17.3-.3-21,0-.8,0-2.3.1-4.1-.7-.1,0-.3-.1-.4-.2h27.6c-.7.3-1.4.6-2.1,1Zm277.3-.7c-1.7.8-3.3.7-4.1.7-3.7-.2-10-.2-21,0-.7-.3-1.4-.7-2.1-1h27.6c-.1,0-.3.2-.4.2Zm3-1.7c.2-.3.5-.6.7-.9v.9h-.7Zm.7-59.3v1.3c-.3-.5-.7-.9-1-1.3h1Zm-28.8-2.2c11,.3,17.3.3,21,0,.7,0,2.2-.1,3.9.6h-26.4c.5-.2,1-.4,1.5-.7Zm-186.2-1.1c.2,0,.4-.1.6-.2h55.4c.2.5.6.9,1.3.9s1.3-.6,1.3-1.3-.7-1.3-1.3-1.3-1.1.4-1.3.9h-53.1c1.7-.6,3.3-1.3,4.9-2h38.1c0-3.8-5.1-.6-9.7-.9h-26.2c2.7-1.2,5.3-2.4,8-3.6,4.1-1.9,8.2-3.8,12.2-5.7,3.7-1.7,7.4-3.4,11.2-5,3.3-1.3,6.8-2.2,10.4-2,7.2.5,9.9,8.5,6.2,12.7h0c0-1.5-1.2-2.7-2.6-2.7s-2.6,1.2-2.6,2.6c0,3.6,6.2,3.8,8.9,1.5,2.7,2.3,8.9,2.1,8.9-1.5s-1.2-2.6-2.6-2.6-2.6,1.2-2.6,2.6h0c-3.6-4.1-.9-12.2,6.2-12.7,3.5-.2,7.1.7,10.4,2,3.8,1.5,7.5,3.2,11.2,5,4.1,1.9,8.2,3.8,12.2,5.7,2.6,1.2,5.3,2.4,8,3.6h-26.2c-4.7.3-9.7-2.9-9.7.9h38.1c1.6.7,3.3,1.4,4.9,2h-53.1c-.2-.5-.6-.9-1.3-.9s-1.3.6-1.3,1.3.7,1.3,1.3,1.3,1.1-.4,1.3-.9h55.4c.2,0,.4.1.6.2,1.7.6,3.5,1.2,5.3,1.7H94.8c1.8-.5,3.5-1.1,5.3-1.7Zm-87,1.1c3.7.2,10,.2,21,0,.5.2,1,.5,1.5.7H9.1c1.7-.7,3.2-.6,3.9-.6Zm-6.9,2.1c-.4.4-.7.8-1,1.3v-1.3h1ZM.7,17.7h0c.5,1.4,1.3,2.7,2.4,3.7v65.8c-1.1,1-1.9,2.3-2.4,3.7h0s0-24.2,0-24.2c0-5.5.2-11,.2-16.7,0-5.6,0-11.2-.2-16.6v-15.7Zm-.7,16.8"/>
</svg>