<?xml version="1.0" encoding="UTF-8"?>
<svg id="Layer_2" data-name="Layer 2" xmlns="http://www.w3.org/2000/svg" width="181.1" height="234.8" viewBox="0 0 181.1 234.8">
  <defs>
    <style>
      .cls-1 {
        fill: #1f1f1f;
        fill-rule: evenodd;
      }
    </style>
  </defs>
  <path class="cls-1" d="m156.2,232.7c.7,1.9,3,.7,3,.3-1.5.7-3-.3-3-.3Z"/>
  <path class="cls-1" d="m161.5,228c2-.1,6.4-3.1,5-2.5-3.5,1.5-5.2,1.4-5.8,1.2-.6-.1-1.4,1.4.8,1.2Z"/>
  <path class="cls-1" d="m160.9,229.7c-1.8.5-1,1.9.6,1.4,2.9-1,8.3-6.7,6.5-5.3-3.6,2.7-5.8,3.6-7.1,4Z"/>
  <path class="cls-1" d="m20.4,226.7c-.7.1-2.3.2-5.8-1.2-1.4-.6,3,2.4,5,2.5,2.1.1,1.4-1.4.8-1.2Z"/>
  <path class="cls-1" d="m21.9,233c0,.4,2.3,1.6,3-.3,0,0-1.5,1.1-3,.3Z"/>
  <path class="cls-1" d="m20.2,229.7c-1.3-.3-3.5-1.2-7.1-4-1.8-1.4,3.6,4.4,6.5,5.3,1.6.5,2.4-.9.6-1.4Z"/>
  <path class="cls-1" d="m20.2,5.1c1.8-.5,1-1.9-.6-1.4-2.9,1-8.3,6.7-6.5,5.3,3.6-2.7,5.8-3.6,7.1-4Z"/>
  <path class="cls-1" d="m24.9,2.2c-.7-1.9-3-.7-3-.3,1.5-.7,3,.3,3,.3Z"/>
  <path class="cls-1" d="m19.6,6.8c-2,.1-6.4,3.1-5,2.5,3.5-1.5,5.2-1.4,5.8-1.2.6.1,1.4-1.4-.8-1.2Z"/>
  <path class="cls-1" d="m172,4.8c-1,1.3-1.1,3.3-.4,4.8-.4-.3-.8-.7-1.2-1-.2-.2-.5-.4-.7-.6,0-.1-.2-.2-.3-.3-1-.8-2.3-2.7-3.1-3.1-.3-.1-.6,0-.7.2h-.2c-1.2-1.1-2.5-2-3.8-2.8-1-.6-2.2-1.3-3.4-1.6-1.7-.5-3,.1-3.6,1.1-.4.6-.5,1.2-.4,1.7H26.8c.1-.5,0-1.1-.4-1.7-.7-.9-2-1.6-3.6-1.1-1.2.3-2.3,1-3.4,1.6-1.3.8-2.6,1.7-3.8,2.7h-.2c0-.1-.4-.2-.7,0-.8.5-2.1,2.4-3.1,3.1-.1.1-.2.2-.3.3-.2.2-.5.4-.7.6-.4.3-.8.7-1.2,1,.7-1.5.7-3.5-.4-4.8-.6-.8-2.2-1.6-3.8-.7h.2c1.2-.3,2.5,0,3.3,1,.2.2.3.5.4.8-.9-.5-1.6.4-1.2.5.9.1,1.4,1.1,1.4,1.7-.1,1.2-.5,1.9-.9,2.4h-.2v.2c-.1.2-.3.3-.4.4h.2c0-.1.1-.2.2-.2v9.8h0c-4.4,2.6-5.9,7.1-6.1,7.6-.4,1.3-.6,2.6-.6,4,0,4.8,2.5,9.2,6.7,11.6v18.9c0,0-.2,0-.3.1-1.2.7-2.3,1.9-3,3.1-.7,1.4-1,3-.7,4.6.2,1.2.7,2.3,1.4,3.3-.2,0-.4-.1-.6-.2-.8-.1-1.6,0-2.2.4-1.1.6-1.7,1.8-1.9,3-.1.9,0,1.8.3,2.6,1,2.1,3.5,2.5,5.3,1.2,1.8-1.3.7-4.1-1.3-3.9,1.2,2.3-1.8,5.1-3.4,2.4-.3-.7-.4-1.5-.3-2.2.2-1,.7-2,1.6-2.6,1.4-.9,3,0,4.1,1l.2.2c.2.2.5.5.7.7v7.8h0c-4.4,2.6-5.9,7.1-6.1,7.6-.4,1.3-.6,2.6-.6,4,0,4.8,2.5,9.2,6.7,11.6v9.7c0,0-.2,0-.3.1-1.2.7-2.3,1.9-3,3.1-.7,1.4-1,3-.7,4.6.2,1.2.7,2.3,1.4,3.3-.2,0-.4-.1-.6-.2-.8-.1-1.6,0-2.2.4-1.1.6-1.7,1.8-1.9,3-.1.9,0,1.8.3,2.6,1,2.1,3.5,2.5,5.3,1.2,1.8-1.3.7-4.1-1.3-3.9,1.2,2.3-1.8,5.1-3.4,2.4-.3-.7-.4-1.5-.3-2.2.2-1,.7-2,1.6-2.6,1.4-.9,3,0,4.1,1l.2.2c.2.2.5.5.7.7v8.9h0c-4.1,2.4-6.7,6.9-6.7,11.6s2.5,9.2,6.7,11.6v7.9c0,0-.2,0-.3.1-1.2.7-2.3,1.9-3,3.1-.7,1.4-1,3-.7,4.6.2,1.2.7,2.3,1.4,3.3-.2,0-.4-.1-.6-.2-.8-.1-1.6,0-2.2.4-1.1.6-1.7,1.8-1.9,3-.1.9,0,1.8.3,2.6,1,2.1,3.5,2.5,5.3,1.2,1.8-1.3.7-4.1-1.3-3.9,1.2,2.3-1.8,5.1-3.4,2.4-.3-.7-.4-1.5-.3-2.2.2-1,.7-2,1.6-2.6,1.4-.9,3,0,4.1,1l.2.2c.2.2.5.5.7.7v9.7h0c-4.4,2.6-5.9,7.1-6.1,7.6-.4,1.3-.6,2.6-.6,4,0,4.8,2.5,9.2,6.7,11.6v5.7c0,0-.1,0-.2,0h-.2c0,0,.2.1.3.3v.2h.1c.4.5.9,1.3,1,2.6,0,.7-.6,1.6-1.4,1.7-.4,0,.2,1,1.2.5-.1.3-.3.5-.4.8-.8,1-2.1,1.2-3.3,1h-.2c1.6.8,3.2,0,3.8-.8,1-1.3,1.1-3.3.4-4.8.4.3.8.7,1.2,1,.2.2.5.4.7.6,0,.1.2.2.3.3,1,.8,2.3,2.7,3.1,3.1.3.1.6,0,.7-.2h.2c1.2,1.1,2.5,2,3.8,2.8,1,.6,2.2,1.3,3.4,1.6,1.7.5,3-.1,3.6-1.1.2-.3.3-.6.4-.9h127.5c0,.3.2.6.4.9.7.9,2,1.6,3.6,1.1,1.2-.3,2.3-1,3.4-1.6,1.3-.8,2.6-1.7,3.8-2.7h.2c0,.1.4.2.7,0,.8-.5,2.1-2.4,3.1-3.1.1-.1.2-.2.3-.3.2-.2.5-.4.7-.6.4-.3.8-.7,1.2-1-.7,1.5-.7,3.5.4,4.8.6.8,2.2,1.6,3.8.7h-.2c-1.2.3-2.5,0-3.3-1-.2-.2-.3-.5-.4-.8.9.5,1.6-.4,1.2-.5-.9-.1-1.4-1.1-1.4-1.7.2-1.2.6-2,1-2.6h.2v-.3c0,0,.2-.2.2-.3h-.2c0,0,0,.1,0,.1v-5.6c4.1-2.4,6.7-6.8,6.7-11.6s-.2-2.7-.6-4c-.2-.5-1.7-5-6.1-7.6v-9.8c.2-.2.4-.4.5-.6l.2-.2c1.1-1,2.7-1.8,4.1-1,.9.5,1.4,1.6,1.6,2.6.1.7,0,1.5-.3,2.2-1.6,2.7-4.6-.1-3.4-2.4-1.9-.3-3.1,2.5-1.3,3.9,1.8,1.3,4.3.9,5.3-1.2.4-.8.5-1.7.3-2.6-.2-1.2-.8-2.4-1.9-3-.7-.4-1.5-.5-2.2-.4-.2,0-.4,0-.6.2.7-1,1.2-2.1,1.4-3.3.3-1.6,0-3.2-.7-4.6-.7-1.3-1.7-2.4-3-3.1,0,0,0,0,0,0v-8c4.1-2.4,6.7-6.8,6.7-11.6s-2.6-9.2-6.7-11.6v-9.2c.1-.2.3-.3.4-.5l.2-.2c1.1-1,2.7-1.8,4.1-1,.9.5,1.4,1.6,1.6,2.6.1.7,0,1.5-.3,2.2-1.6,2.7-4.6-.1-3.4-2.4-1.9-.3-3.1,2.5-1.3,3.9,1.8,1.3,4.3.9,5.3-1.2.4-.8.5-1.7.3-2.6-.2-1.2-.8-2.4-1.9-3-.7-.4-1.5-.5-2.2-.4-.2,0-.4,0-.6.2.7-1,1.2-2.1,1.4-3.3.3-1.6,0-3.2-.7-4.6-.7-1.3-1.7-2.4-3-3.1,0,0,0,0-.1,0v-9.8c4.1-2.4,6.7-6.8,6.7-11.6s-.2-2.7-.6-4c-.2-.5-1.7-5-6.1-7.6v-7.9c.2-.2.4-.4.5-.6l.2-.2c1.1-1,2.7-1.8,4.1-1,.9.5,1.4,1.6,1.6,2.6.1.7,0,1.5-.3,2.2-1.6,2.7-4.6-.1-3.4-2.4-1.9-.3-3.1,2.5-1.3,3.9,1.8,1.3,4.3.9,5.3-1.2.4-.8.5-1.7.3-2.6-.2-1.2-.8-2.4-1.9-3-.7-.4-1.5-.5-2.2-.4-.2,0-.4,0-.6.2.7-1,1.2-2.1,1.4-3.3.3-1.6,0-3.2-.7-4.6-.7-1.3-1.7-2.4-3-3.1,0,0,0,0-.1,0v-19c4.1-2.4,6.7-6.8,6.7-11.6s-.2-2.7-.6-4c-.2-.5-1.7-5-6.1-7.6v-9.7s0,0,0,0h.2c0,0-.1,0-.2-.2v-.3h-.2c-.4-.5-.8-1.3-1-2.6,0-.7.6-1.6,1.4-1.7.4,0-.2-1-1.2-.5.1-.3.3-.5.4-.8.8-1,2.1-1.2,3.3-1h.2c-1.6-.8-3.2,0-3.8.8Zm.4,5.9v10.4s.2.1.2.1c4.2,2.5,5.7,6.8,5.8,7.3.4,1.2.6,2.5.6,3.9,0,4.6-2.5,8.9-6.5,11.2h-.1v19.1c-1.3-.5-3.3-.6-3.8.7l.3-.2c.2-.1.4-.2.6-.2,1-.3,2,0,2.9.4v1.7c-.3.1-.5.4-.5.7s.3.8.8.8.8-.3.8-.8-.2-.6-.5-.7v-1.4c1,.7,1.9,1.6,2.5,2.7.7,1.3.9,2.8.7,4.2-.3,1.9-1.5,3.4-2.8,4.7,0,0-.1.1-.2.2h0s0,0,0,0c0,0,0,0,0,0v-2.2c.3-.1.5-.4.5-.7s-.3-.8-.8-.8-.8.3-.8.8.2.6.5.7v2.7c-.9,1-1.7,2.1-2.3,3.2-.7,1.4-2.4,5.5-.4,7.6v-.3c-.8-2.3,0-4.9,1-6.9.5-.9,1.1-1.7,1.7-2.5v7.6s.2.1.2.1c4.2,2.5,5.7,6.8,5.8,7.3.4,1.2.6,2.5.6,3.9,0,4.6-2.5,8.9-6.5,11.3h-.1v9.9c-1.3-.5-3.3-.6-3.8.7l.3-.2c.2-.1.4-.2.6-.2,1-.3,2,0,2.9.4v2.2c-.3.1-.5.4-.5.7s.3.8.8.8.8-.3.8-.8-.2-.6-.5-.7v-1.9c1,.7,1.9,1.6,2.5,2.7.7,1.3.9,2.8.7,4.2-.3,1.9-1.5,3.4-2.8,4.7,0,0-.1.1-.2.2v-1c.3-.1.5-.4.5-.7s-.3-.8-.8-.8-.8.3-.8.8.2.6.5.7v1.5c-1,1-1.8,2.1-2.4,3.3-.7,1.4-2.4,5.5-.4,7.6v-.3c-.8-2.3,0-4.9,1-6.9.5-.9,1.1-1.8,1.8-2.7v8.9h.2c4,2.5,6.4,6.7,6.4,11.3s-2.5,8.9-6.5,11.3h-.1v8.1c-1.3-.5-3.3-.7-3.9.6l.3-.2c.2-.1.4-.2.6-.2,1-.3,2.1,0,3,.5v3.9c-.3.1-.5.4-.5.7s.3.8.8.8.8-.3.8-.8-.2-.6-.5-.7v-3.6c1,.7,1.8,1.6,2.4,2.6.7,1.3.9,2.8.7,4.2-.3,1.9-1.5,3.4-2.8,4.7,0,0-.1.1-.2.2h0s0,0,0,0c0,0,0,0,0,0v-.3c.3-.1.5-.4.5-.7s-.3-.8-.8-.8-.8.3-.8.8.2.6.5.7v.8c-.9,1-1.7,2.1-2.3,3.2-.7,1.4-2.4,5.5-.4,7.6v-.3c-.8-2.3,0-4.9,1-6.9.5-.9,1.1-1.7,1.7-2.5v9.6s.2.1.2.1c4.2,2.5,5.7,6.8,5.8,7.3.4,1.2.6,2.5.6,3.9,0,4.6-2.5,8.9-6.5,11.3h-.1v6.4c-.1.1-.3.2-.4.3-.6.5-1.2,1-1.7,1.5-1.6,1.4-3.2,2.7-4.9,4-1.2.9-2.5,1.8-3.7,2.6-1,.6-2.1,1.3-3.3,1.6-3.3,1-4-3.9-.6-3.1-.7-1-1.9-.9-2.7-.3H26.4v.2h128.3c-.3.3-.4.7-.4,1.1H26.9c0-1.6-2.2-2.5-3.4-1,3.4-.8,2.7,4-.6,3.1-1.1-.3-2.3-1-3.3-1.6-1.3-.8-2.5-1.7-3.7-2.6-1.7-1.3-3.3-2.7-4.9-4-.6-.5-1.2-1-1.7-1.5-.1,0-.2-.2-.3-.3h0v-6.4h-.1c-4-2.4-6.5-6.7-6.5-11.3s.2-2.6.6-3.8c.2-.5,1.6-4.9,5.8-7.3h.3v-9.5c.6.7,1.1,1.5,1.6,2.4,1.1,2,1.8,4.7,1.1,6.9v.3c1.9-2.1.2-6.2-.5-7.6-.6-1.1-1.3-2.2-2.2-3.1v-1c.3-.1.5-.4.5-.7s-.3-.8-.8-.8-.8.3-.8.8.2.6.5.7v.5c0,0-.1-.1-.2-.2h0s0,0,0,0c0,0-.1-.1-.2-.2-1.4-1.3-2.5-2.8-2.8-4.7-.3-1.4,0-2.9.7-4.2.6-1.1,1.5-2.1,2.6-2.8v3.7c-.3.1-.5.4-.5.7s.3.8.8.8.8-.3.8-.8-.2-.6-.5-.7v-4c.9-.4,1.8-.6,2.8-.4.2,0,.4.1.6.2l.3.2c-.5-1.2-2.4-1.1-3.7-.7v-8h-.1c-4-2.4-6.5-6.7-6.5-11.3s2.5-8.9,6.4-11.2h.2v-8.7c.6.7,1.1,1.5,1.6,2.4,1.1,2,1.8,4.7,1.1,6.9v.3c1.9-2.1.2-6.2-.5-7.6-.6-1.1-1.3-2.2-2.2-3.1v-1.8c.3-.1.5-.4.5-.7s-.3-.8-.8-.8-.8.3-.8.8.2.6.5.7v1.2c0,0-.1-.1-.2-.2h0s0,0,0,0c0,0-.1-.1-.2-.2-1.4-1.3-2.5-2.8-2.8-4.7-.3-1.4,0-2.9.7-4.2.6-1.1,1.5-2.1,2.6-2.8v2c-.3.1-.5.4-.5.7s.3.8.8.8.8-.3.8-.8-.2-.6-.5-.7v-2.2c.9-.4,1.8-.6,2.8-.4.2,0,.4.1.6.2l.3.2c-.5-1.2-2.4-1.1-3.7-.7v-9.8h-.1c-4-2.4-6.5-6.7-6.5-11.3s.2-2.6.6-3.8c.2-.5,1.6-4.9,5.8-7.3h.2v-7.6c.6.7,1.1,1.5,1.6,2.4,1.1,2,1.8,4.7,1.1,6.9v.3c1.9-2.1.2-6.2-.5-7.6-.6-1.1-1.3-2.2-2.2-3.1v-2.9c.3-.1.5-.4.5-.7s-.3-.8-.8-.8-.8.3-.8.8.2.6.5.7v2.4c0,0-.1-.1-.2-.2h0s0,0,0,0c0,0-.1-.1-.2-.2-1.4-1.3-2.5-2.8-2.8-4.7-.3-1.4,0-2.9.7-4.2.6-1.1,1.5-2.1,2.6-2.8v1.5c-.3.1-.5.4-.5.7s.3.8.8.8.8-.3.8-.8-.2-.6-.5-.7v-1.8c.9-.4,1.8-.6,2.8-.4.2,0,.4.1.6.2l.3.2c-.5-1.2-2.4-1.1-3.7-.7v-19h-.1c-4-2.4-6.5-6.7-6.5-11.3s.2-2.6.6-3.8c.2-.5,1.6-4.9,5.8-7.3h.2v-10.6c0,0,.2-.1.3-.2.6-.5,1.2-1,1.7-1.5,1.6-1.4,3.2-2.7,4.9-4,1.2-.9,2.5-1.8,3.7-2.6,1-.6,2.1-1.3,3.3-1.6,3.3-1,4,3.9.6,3.1,1,1.3,2.8.8,3.3-.5h127.7c.5,1.2,2.3,1.8,3.3.5-1,.2-1.6,0-2-.5h1.2v-.2h-1.3c-.5-1.1.5-3,2.7-2.4,1.1.3,2.3,1,3.3,1.6,1.3.8,2.5,1.7,3.7,2.6,1.7,1.3,3.3,2.7,4.9,4,.6.5,1.2,1,1.7,1.5.1.1.3.2.4.3Z"/>
  <path class="cls-1" d="m159.2,1.8c0-.4-2.3-1.6-3,.3,0,0,1.5-1.1,3-.3Z"/>
  <path class="cls-1" d="m160.9,5.1c1.3.3,3.5,1.2,7.1,4,1.8,1.4-3.6-4.4-6.5-5.3-1.6-.5-2.4.9-.6,1.4Z"/>
  <path class="cls-1" d="m160.7,8.1c.7-.1,2.3-.2,5.8,1.2,1.4.6-3-2.4-5-2.5-2.1-.1-1.4,1.4-.8,1.2Z"/>
  <path class="cls-1" d="m159.9,120.4H21.5c-2.2-.9-4.5-1.5-6.6-1.2-1.2.2-2.4.7-3.3,1.6-1.5,1.5-2.2,4-1.4,6.1,1.3,3.9,6.6,4.4,8.6,1.4h143.9c2,3,7.3,2.4,8.6-1.4.7-2.2.1-4.6-1.4-6.1-.9-.9-2.1-1.4-3.3-1.6-2.1-.3-4.4.3-6.6,1.2Zm-.6.3c-.8.3-1.6.7-2.3,1.1H24.5c-.8-.4-1.5-.7-2.3-1.1h137.2Zm11.4,6c-1.2,3.4-6.2,3.8-7.7.9-.4-.8-.5-1.7-.2-2.5.4-.9,1.3-1.3,2.1-1.3,2.4.2.7,4-.7,1.7-.6,2.5,1.9,3.1,2.9,1.3.5-.9.4-2.2-.7-3.1-1.3-1.1-3.5-.6-4.2,1.1-.4,1-.3,2.2.2,3.2,0,0,0,0,0,.1H18.9s0,0,0-.1c.5-1,.6-2.2.2-3.2-.7-1.7-2.9-2.2-4.2-1.1-1.1.9-1.1,2.2-.7,3.1.9,1.8,3.5,1.3,2.9-1.3-1.4,2.3-3.1-1.5-.7-1.7.8,0,1.8.4,2.1,1.3.3.8.2,1.8-.2,2.5-1.4,2.9-6.5,2.5-7.7-.9-.6-1.9,0-4,1.2-5.3.8-.8,1.9-1.3,3-1.4,1.9-.3,3.9.2,5.9,1-.3.4-.2,1,.3,1.3,1.1.7,2.8.7,4.7,1,.7.3,1.5.7,2.2.9,2.6,1,5.1,1.6,7.7,1.7,1.2,0,3.6-.3,4-.9h-.3c-3.9.6-7.5,0-11.1-1.5-.8-.3-1.7-.7-2.6-1.1h130.3c-.9.4-1.8.8-2.6,1.1-3.7,1.4-7.3,2.1-11.1,1.5h-.3c.4.6,2.8,1,4,.9,2.6-.1,5.1-.7,7.7-1.7.7-.3,1.4-.6,2.2-.9,1.9-.3,3.6-.2,4.7-1,.4-.3.5-.9.3-1.3,2-.8,4-1.3,5.9-1,1.1.2,2.2.6,3,1.4,1.3,1.3,1.9,3.4,1.2,5.3Z"/>
  <path class="cls-1" d="m158.8,175.6H22.7c-2.6-1.2-5.3-2.1-7.8-1.7-1.2.2-2.4.7-3.3,1.6-1.5,1.5-2.2,4-1.4,6.1,1.3,3.8,6.6,4.4,8.6,1.4h144c2,3,7.3,2.4,8.6-1.4.7-2.2.1-4.6-1.4-6.1-.9-.9-2.1-1.4-3.3-1.6-2.5-.4-5.2.5-7.8,1.7Zm-.6.3c-.8.4-1.5.7-2.2,1.1H25.5c-.7-.3-1.5-.7-2.2-1.1h135Zm12.5,5.5c-1.2,3.4-6.2,3.8-7.7.9-.4-.8-.5-1.7-.2-2.5.4-.9,1.3-1.3,2.1-1.3,2.4.2.7,4-.7,1.7-.6,2.5,1.9,3.1,2.9,1.3.5-.9.4-2.2-.7-3.1-1.3-1.1-3.5-.6-4.2,1.1-.4,1-.3,2.2.2,3.2,0,0,0,.1,0,.2H18.9c0,0,0,0,0-.2.5-1,.6-2.2.2-3.2-.7-1.7-2.9-2.2-4.2-1.1-1.1.9-1.1,2.2-.7,3.1.9,1.8,3.5,1.3,2.9-1.3-1.4,2.3-3.1-1.5-.7-1.7.8,0,1.8.4,2.1,1.3.3.8.2,1.8-.2,2.5-1.4,2.9-6.5,2.5-7.7-.9-.6-1.9,0-4,1.2-5.3.8-.8,1.9-1.3,3-1.4,1.9-.3,3.9.2,5.9,1-.3.4-.2,1,.3,1.3.4.3.8.4,1.3.5h0s0,0,0,0c.9.2,2.1.3,3.3.4.7.3,1.5.7,2.2.9,2.6,1,5.1,1.6,7.7,1.7,1.2,0,3.6-.3,4-.9h-.3c-3.9.6-7.5,0-11.1-1.5-.5-.2-1-.4-1.6-.7h128.3c-.5.2-1.1.5-1.6.7-3.7,1.4-7.3,2.1-11.1,1.5h-.3c.4.6,2.8,1,4,.9,2.6-.1,5.1-.7,7.7-1.7.7-.3,1.4-.6,2.2-.9,1.2-.2,2.3-.2,3.3-.4h.7v-.2c.2,0,.5-.2.7-.3.4-.3.5-.9.3-1.3,2-.8,4-1.3,5.9-1,1.1.2,2.2.6,3,1.4,1.3,1.3,1.9,3.4,1.2,5.3Z"/>
  <path class="cls-1" d="m160,64.7h0s-138.6,0-138.6,0h0c-2.2-.9-4.4-1.5-6.5-1.1-1.2.2-2.4.7-3.3,1.6-1.5,1.5-2.2,4-1.4,6.1,1.3,3.9,6.8,4.4,8.7,1.3h143.8c1.9,3.1,7.4,2.6,8.7-1.3.7-2.2.1-4.6-1.4-6.1-.9-.9-2.1-1.4-3.3-1.6-2.1-.3-4.3.3-6.5,1.2Zm-.5.2c-.8.3-1.6.7-2.3,1.1H24.3c-.8-.4-1.6-.7-2.3-1.1h137.5Zm11.2,6.1c-1.2,3.4-6.2,3.8-7.7.9-.4-.8-.5-1.7-.2-2.5.4-.9,1.3-1.3,2.1-1.3,2.4.2.7,4-.7,1.7-.6,2.5,1.9,3.1,2.9,1.3.5-.9.4-2.2-.7-3.1-1.3-1.1-3.5-.6-4.2,1.1-.4,1-.3,2.2.2,3.2h0s-143.5,0-143.5,0h0c.5-1,.6-2.2.2-3.2-.7-1.7-2.9-2.2-4.2-1.1-1.1.9-1.1,2.2-.7,3.1.9,1.8,3.5,1.3,2.9-1.3-1.4,2.3-3.1-1.5-.7-1.7.8,0,1.8.4,2.1,1.3.3.8.2,1.8-.2,2.5-1.4,2.9-6.5,2.5-7.7-.9-.6-1.9,0-4,1.2-5.3.8-.8,1.9-1.3,3-1.4,1.9-.3,3.9.2,5.9,1-.3.4-.2,1,.3,1.3,1.1.7,2.8.7,4.7,1,.7.3,1.5.7,2.2.9,2.6,1,5.1,1.6,7.7,1.7,1.2,0,3.6-.3,4-.9h-.3c-3.9.6-7.5,0-11.1-1.5-.9-.3-1.8-.8-2.7-1.2h130.6c-.9.4-1.9.9-2.7,1.2-3.7,1.4-7.3,2.1-11.1,1.5h-.3c.4.6,2.8,1,4,.9,2.6-.1,5.1-.7,7.7-1.7.7-.3,1.4-.6,2.2-.9,1.9-.3,3.6-.2,4.7-1,.4-.3.5-.9.3-1.3,2-.8,4-1.3,5.9-1,1.1.2,2.2.6,3,1.4,1.3,1.3,1.9,3.4,1.2,5.3Z"/>
  <path class="cls-1" d="m1.4,128.1c.8-.1,2.3-.5,2.9-.7,0,0-2.1-.5-3.1-.5-1.5,0-1.7,1.5.2,1.2Z"/>
  <path class="cls-1" d="m3.9,126.7c-.3-.4-.6-1.5-1.2-2.1-1.4-1.3-2.1,0-.8.9.8.5,2,1.3,2,1.2Z"/>
  <path class="cls-1" d="m1.4,182.1c.8-.1,2.3-.5,2.9-.7,0,0-2.1-.5-3.1-.5-1.5,0-1.7,1.5.2,1.2Z"/>
  <path class="cls-1" d="m3.9,180.6c-.3-.4-.6-1.5-1.2-2.1-1.4-1.3-2.1,0-.8.9.8.5,2,1.3,2,1.2Z"/>
  <path class="cls-1" d="m179.8,182.1c1.9.3,1.7-1.3.2-1.2-.9,0-3.1.5-3.1.5.5.1,2,.5,2.9.7Z"/>
  <path class="cls-1" d="m178.4,178.5c-.6.6-.9,1.7-1.2,2.1,0,0,1.2-.7,2-1.2,1.3-.8.5-2.2-.8-.9Z"/>
  <path class="cls-1" d="m179.9,126.9c-.9,0-3.1.5-3.1.5.5.1,2,.5,2.9.7,1.9.3,1.7-1.3.2-1.2Z"/>
  <path class="cls-1" d="m178.4,124.6c-.6.6-.9,1.7-1.2,2.1,0,0,1.2-.7,2-1.2,1.3-.8.5-2.2-.8-.9Z"/>
  <path class="cls-1" d="m1.4,73.6c.8-.1,2.3-.5,2.9-.7,0,0-2.1-.5-3.1-.5-1.5,0-1.7,1.5.2,1.2Z"/>
  <path class="cls-1" d="m3.9,72.1c-.3-.4-.6-1.5-1.2-2.1-1.4-1.3-2.1,0-.8.9.8.5,2,1.3,2,1.2Z"/>
  <path class="cls-1" d="m179.9,72.4c-.9,0-3.1.5-3.1.5.5.1,2,.5,2.9.7,1.9.3,1.7-1.3.2-1.2Z"/>
  <path class="cls-1" d="m178.4,70c-.6.6-.9,1.7-1.2,2.1,0,0,1.2-.7,2-1.2,1.3-.8.5-2.2-.8-.9Z"/>
</svg>