<?xml version="1.0" encoding="UTF-8"?>
<svg id="Layer_2" data-name="Layer 2" xmlns="http://www.w3.org/2000/svg" width="100%" height="100%" preserveAspectRatio="none" viewBox="0 0 119.1 33.8">
  <defs>
    <style>
      .cls-1 {
        fill-rule: evenodd;
      }

      .cls-1, .cls-2 {
        fill: #1f1f1f;
      }
    </style>
  </defs>
  <circle class="cls-2" cx="3.8" cy="16.8" r=".4"/>
  <path class="cls-1" d="m7.7,4.3c.7-.8.7-1.9.2-2.7,0-.2-.2-.3-.4-.4-.4-.3-.9-.4-1.4-.4-.5,0-1.1.3-1.6.6-.4.3-.7.6-1,1-.4.6-.6,1.2-.6,1.9,0,1.6,1.1,2.8,2.3,3.3.1,0,.2,0,.3.1h0c.1.5,1,3.8,2.3,2.8h-.3c0,0-.2-.2-.3-.2-.2-.2-.3-.4-.4-.7-.3-.6-.5-1.2-.8-1.8.4,0,.8,0,1.2-.2.9-.3,1.6-1,2.1-1.9.2-.4.4-.7.6-1.1.5.3,1.1.6,1.7,1-1.3,1-2.1,2.5-2.1,4.3v16.8c0,1.4.6,2.7,1.5,3.7-.5.3-.9.5-1.3.7l-2.3.2.2-15.6c-.7.3-.5.3-1.1.9-.4.5-.8.9-1.2,1.4-1.1,1.2-2.1,2.5-3,4-.8,1.4-1.7,3.2-1.6,4.9,0,1.1.5,2.2,1.4,2.7,1.2.7,2.7.4,3.6-.8.5-.6.7-1.5.6-2.3,0-.8-.4-1.5-1-2-1.3-1.1-2.7,0-2.7,1.5,0,1.6.9,1.9,1.9,1.3-1.1-.8-.7-3.1.4-2.2.4.3.7.9.7,1.5,0,.6,0,1.3-.5,1.8-.7.9-1.9,1.2-2.9.6-.7-.4-1-1.2-1.1-2.1,0-1.6.8-3.3,1.5-4.5.9-1.4,1.9-2.7,3-3.9.4-.5.8-.9,1.2-1.4h0s-.2,14.3-.2,14.3l-5.8.3v.7s6.4-.3,6.4-.3h0c0-.1,2.4-.3,2.4-.3h.1c.4-.3.9-.6,1.4-.9,1,.9,2.2,1.4,3.6,1.4h3.3c0,.3.3.5.6.5s.6-.2.6-.5h3.6c1.3,0,2.5-.5,3.5-1.3.4.2.8.5,1.2.7h0s2.6.2,2.6.2h0c0,.1,6.3.5,6.3.5v-.7s-5.8-.3-5.8-.3l-.2-14.3h0c.4.5.8.9,1.2,1.4,1.1,1.2,2.1,2.5,3,3.9.7,1.2,1.5,2.9,1.5,4.5,0,.9-.4,1.7-1.1,2.1-.9.6-2.2.3-2.9-.6-.4-.5-.5-1.1-.5-1.8,0-.6.3-1.1.7-1.5,1.1-.9,1.5,1.4.4,2.2,1,.7,1.9.3,1.9-1.3,0-1.4-1.4-2.6-2.7-1.5-.5.5-.9,1.2-1,2,0,.8.1,1.7.6,2.3.9,1.2,2.4,1.5,3.6.8.3-.2.5-.4.7-.7h42.5c.1,0,.2.2.5.5.7-.7.3-.4,1.3-.9-1-.5-.6-.2-1.3-.9-.4.3-.4.4-.5.5h-42.1c.1-.4.2-.8.2-1.2,0-.2,0-.4,0-.6h38.7c11.4,0,22.2-.8,30.3-2.4,8.2-1.5,12.6-3.6,12.6-5.8s-4.5-4.3-12.6-5.8c-8.1-1.5-18.9-2.4-30.3-2.4h-40.9v-2h44.1c.1,0,.2.2.5.5.7-.7.3-.4,1.3-.9-1-.5-.6-.2-1.3-.9-.4.3-.4.4-.5.5h-44.9c.7-.6,1.2-1.5,1.2-2.6,0-.7-.2-1.3-.6-1.9-.3-.4-.6-.7-1-1-.5-.3-1-.6-1.6-.6-.5,0-1,0-1.4.4-.1.1-.3.3-.4.4-.5.8-.5,1.9.2,2.7.5.6,1.3,1,2,.8.1,0,.2,0,.3-.2,0,.1,0,.2,0,.3-.1.6-.3,1.3-.5,1.9-.4,0-.9,0-1.3-.2-.8-.3-1.4-.9-1.8-1.6-.2-.3-.4-.7-.5-1.1-.6-1.6-.4-3.1.7-4.1l.2-.2c-1.2,0-1.8,1.9-1.7,3,0,.3.1.6.2.9-.5.3-1.2.7-1.9,1.1-.8-.5-1.7-.7-2.7-.7h-3.6c0-.3-.3-.5-.6-.5s-.6.2-.6.5h-3.3c-1.1,0-2,.3-2.9.8-.8-.4-1.5-.7-2-1.1.1-.3.2-.7.2-1,.1-1.1-.5-2.9-1.7-3l.2.2c1.1,1,1.3,2.5.7,4.1-.1.4-.3.7-.5,1.1-.5.7-1.1,1.3-1.8,1.6-.4.2-.9.2-1.3.2-.2-.6-.4-1.2-.5-1.9,0-.1,0-.2,0-.3,0,0,.2.1.3.2.7.2,1.5-.2,2-.8Zm2.3,22.2V9.7c0-1.7.8-3.2,2.1-4.2,1.6.7,3.6,1.4,6,1.5.4,0,.7,0,1,0,3,0,5.5-.8,7.3-1.7,1.4.9,2.3,2.5,2.3,4.3v16.8c0,1.5-.6,2.8-1.6,3.7-1.7-.9-4-1.8-6.9-2-3.7-.2-6.7.8-8.7,1.8-.9-.9-1.4-2.2-1.4-3.6Zm13.4,5.2h-3.6c0-.3-.3-.6-.7-.6s-.6.2-.7.6h-3.3c-1.3,0-2.4-.5-3.3-1.3,2-1,4.8-1.9,8.3-1.7,2.7.2,4.9,1,6.5,1.8-.9.7-2,1.1-3.2,1.1Zm52.5-21.9c23.5,0,42.7,3.6,42.7,8s-19.2,8-42.7,8h-38.7c-.2-1.5-.9-2.9-1.5-4-.2-.3-.4-.7-.7-1v-10.9h40.9Zm-43.5-5.3c-.5.2-1.1-.1-1.5-.6-.5-.6-.5-1.4-.1-2,0-.1.1-.2.2-.3.3-.2.7-.3,1.1-.3.5,0,.9.2,1.3.5.3.2.6.5.8.8.3.4.5,1,.5,1.5,0,1.2-.8,2.2-1.7,2.6h-.2c.1-.5.3-1,.4-1.5,0-.3.1-.6.1-.9,0-.6-.2-.9-.5-1.1v.5c-.2.3-.3.6-.6.7Zm.3,3.2h0c0,0,0,0,.1-.1h1.9v2h-2.8c.4-.8.7-1.7.7-1.9Zm-4.6-3.3c.2.4.4.8.6,1.2.5.8,1.3,1.5,2.1,1.9.4.2.8.2,1.2.2-.2.6-.5,1.3-.8,1.8-.1.2-.3.5-.4.7,0,0-.2.2-.3.2h-.3c.6.5,1,0,1.4-.6h2.9v10.5c-.6-.9-1.4-1.8-2.1-2.6-.4-.5-.8-.9-1.2-1.4-.5-.6-.3-.6-1.1-.9l.2,15.6-2.4-.2c-.3-.2-.7-.4-1-.6,1-1,1.6-2.3,1.6-3.8V9.7c0-1.8-.9-3.4-2.3-4.4.6-.3,1.2-.6,1.6-.9Zm-13,.1h3.3c0,.3.3.5.6.5s.6-.2.6-.5h3.6c.9,0,1.7.2,2.4.6-1.9.9-4.6,1.6-7.7,1.4-2.1-.1-4-.7-5.5-1.3.8-.4,1.6-.7,2.6-.7Zm-9.8-.8v-.5c-.4.1-.6.5-.6,1.1,0,.3,0,.6.1.9.1.6.3,1.1.4,1.7-1-.4-1.9-1.4-1.9-2.7,0-.5.2-1.1.5-1.5.2-.3.5-.6.8-.8.4-.3.9-.5,1.3-.5.4,0,.8,0,1.1.3,0,0,.2.2.2.3.4.6.4,1.4-.1,2-.4.4-1,.8-1.5.6-.3-.1-.5-.4-.5-.7Z"/>
  <circle class="cls-2" cx="3.6" cy="15.5" r=".4"/>
  <circle class="cls-2" cx="4" cy="18.2" r=".4"/>
  <path class="cls-1" d="m.7,11.1c.3.2,1,.8,1.9,2.9.4.8-.3-2.2-1.1-3.1-.8-.9-1.2,0-.8.2Z"/>
  <path class="cls-1" d="m2,9.9c.4.7,1,1.9,1.4,4.6.2,1.3.3-3.3-.5-4.9-.4-.9-1.4-.6-.8.3Z"/>
  <path class="cls-1" d="m1,5.8c-1.6.3-1.1,2.4.2,2.2-1.8-1.1.5-2.8,1.5-1.1.3.6.6,1.4.7,2,.2.9.4,1.8.5,2.6.2,1.2.3,2.5.4,3.7,0,.4,0,.9.1,1.3,0,.1,0,.3,0,.4,0,0,0,.2,0,.3h0c0-.2,0-.9.7-1.8.3-.3.9-.4,1.3-.1.2.1.3-.5-.3-.7.2,0,.3-.1.5-.1.8-.1,1.4.3,1.8.9h0c-.3-.9-1.3-1.2-1.9-1.2-.9.1-1.8.9-2.1,1.9,0-.3,0-.6,0-.9,0-.2,0-.4,0-.5,0,0,0-.2,0-.3,0-.7.1-2.1,0-2.6,0-.2-.2-.3-.4-.2h0c-.1-1-.3-1.9-.5-2.8-.2-.7-.4-1.5-.7-2.1-.5-.9-1.3-1.2-2-1Z"/>
  <path class="cls-1" d="m1.3,6.8s1.1.2,1.4,1.1c.2-.2-.3-1.6-1.4-1.1Z"/>
  <path class="cls-1" d="m111.6,4.1c1.3,1,2.5,2.8,2.9,3.1.3.2-1.6-2.9-2.7-4.1-.8-.8-1.3.1-.2.9Z"/>
  <path class="cls-1" d="m116.9,4.8c-1.1,1.8-.6,4.7.3,6.5,0,0,0,.2.1.3h-.1c-.7-1-1.5-1.8-2.3-2.5h0c-1.8-1.6-3.7-3.9-5.6-4.3-.5-.1-1.1,0-1,.9-1.2-.3-2.4-.5-3.7-.6-4.3-.2-8.4.7-12.7,1.3-3.1.4-7.4.3-8.3-4.3v-.3c-.4.1,0,2,.3,2.6,0,.2.2.3.3.5-.5.4-.7,2,1,1.7.3,0,.6-.1.8-.2,1.8.9,4,.8,5.8.6,4.2-.6,8.4-1.6,12.6-1.3.6,0,1.3,0,1.9.2-.1,0-.3.2-.4.3-2,.6-4.3,1.9-5.6,2.6-1.2.7-3.1,1.5-4.4,1-1.6-.7-.5-2.4.4-1.9.3.1.5.5.7,1,.6-.9.1-1.9-.7-2-.6,0-1.3.3-1.5,1.1-.1.4,0,.9,0,1.2.2.5.6.8,1,1,1.4.6,3.4-.2,4.7-1,1.1-.6,3.1-1.8,5-2.4,0,0,0,0,0,.1-.3.6-.3,1.4-.1,2.1.5,2.4,3.8,2.5,4-.4,0-.2,0-.4,0-.6-.1-.6-.7-1-1.2-.8-.5.2-.8.8-.6,1.4.1.6.7,1,1.2.8,0,0,.1,0,.2,0-.3.8-1,1.2-1.6,1.1-.7,0-1.4-.6-1.6-1.5-.4-1.9.5-2.6,1.7-2.8,3.6.7,6.8,2.5,9.5,5.9.2.2.7.9,1,.6.3-.3-.1-1.2-.3-1.5-.2-.4-.4-.9-.6-1.4-.6-2.2-.4-5.1,1.8-5.5h.2c-.8-.5-1.7,0-2.2.8Z"/>
  <path class="cls-1" d="m114.6,3.6c-.4-.9-1.2-.5-.5.6.8,1.3,1.3,3.3,1.5,3.7.2.3-.4-2.9-1-4.3Z"/>
  <path class="cls-1" d="m89.6,5.1c-1.2-.3-1.7-1-1.7-1.7,0-2.9-2.9-1.4-1.9.4.9,1.7,4.3,1.5,3.5,1.3Z"/>
  <path class="cls-1" d="m111.6,31.4c-1.1.8-.6,1.7.2.9,1.2-1.2,3-4.3,2.7-4.1-.4.3-1.6,2.2-2.9,3.1Z"/>
  <path class="cls-1" d="m118.9,31.5c-2.2-.4-2.4-3.3-1.8-5.5.1-.5.3-1,.6-1.4.2-.3.6-1.2.3-1.5-.3-.3-.8.4-1,.6-2.8,3.4-6,5.2-9.5,5.9-1.1-.2-2-1-1.7-2.8.2-.9.9-1.4,1.6-1.5.6,0,1.3.2,1.6,1.1,0,0,0,0-.2,0-.5-.2-1,.2-1.2.8-.1.6.1,1.2.6,1.4.5.2,1-.2,1.2-.8,0-.2,0-.4,0-.6-.2-3-3.5-2.8-4-.4-.1.7-.2,1.4.1,2.1,0,0,0,.1,0,.1-1.8-.6-3.9-1.8-5-2.4-1.3-.7-3.3-1.6-4.7-1-.4.2-.8.5-1,1-.2.4-.2.8,0,1.2.2.7.9,1.1,1.5,1.1.8,0,1.3-1.1.7-2-.2.6-.4.9-.7,1-.9.5-2-1.2-.4-1.9,1.3-.6,3.2.3,4.4,1,1.3.7,3.6,2,5.6,2.6.1.1.3.2.4.3-.6,0-1.3.2-1.9.2-4.3.2-8.4-.7-12.6-1.3-1.8-.3-4-.3-5.8.6-.2,0-.5-.1-.8-.2-1.8-.3-1.6,1.3-1,1.7-.1.1-.2.3-.3.5-.4.7-.8,2.5-.4,2.6v-.3c1-4.6,5.3-4.7,8.4-4.3,4.2.6,8.4,1.6,12.7,1.3,1.3,0,2.5-.3,3.7-.6,0,.9.5,1,1,.9,1.9-.4,3.8-2.7,5.6-4.3h0c.8-.7,1.5-1.5,2.3-2.3h.1c0,0-.1,0-.1.1-.9,1.8-1.4,4.7-.3,6.5.5.8,1.3,1.2,2.2.8h-.2Z"/>
  <path class="cls-1" d="m115.7,27.6c-.2.4-.7,2.4-1.5,3.7-.7,1.1,0,1.6.5.6.6-1.4,1.2-4.6,1-4.3Z"/>
  <path class="cls-1" d="m87.9,32.2c0-.8.4-1.5,1.7-1.7.8-.2-2.6-.3-3.5,1.3-1,1.8,1.9,3.2,1.9.4Z"/>
</svg>