<?xml version="1.0" encoding="UTF-8"?>
<svg id="Layer_2" data-name="Layer 2" xmlns="http://www.w3.org/2000/svg" width="177.2" height="143.6" viewBox="0 0 177.2 143.6">
  <defs>
    <style>
      .cls-1 {
        fill-rule: evenodd;
      }

      .cls-1, .cls-2 {
        fill: #1f1f1f;
      }
    </style>
  </defs>
  <path class="cls-1" d="m1.9,47.4c.4,0,.7-.3.7-.7s-.2-.5-.4-.6V9.1c0-.7,0-1.4.7-1.8.5-.3,1-.6,1.7-.6.8,0,1.6,0,2.3.2.3,1.3,1.1,2.5,2.5,3.3.2.1.5.2.7.3.2,1.1,0,2.2-.5,3.1-.8,1.2-2.1,1.7-3.5,1.7-1.3,0-2.3-.7-2.4-2,0-.8.1-1.8.8-2.2,1.4-.8,2.8,1.3,2.5,2.8,2.9-2.4-.3-5.3-2.9-3.3-.8.6-1.2,1.7-1,2.7,0,.1,0,.2,0,.3.3,1.4,1.5,2.2,2.9,2.2,1.6,0,3.2-.5,4.1-2,.6-1,.8-2.1.7-3.3,1.3.3,2.8.2,3.9-.5,1.4-.9,2-2.4,2-4.1,0-1.4-.8-2.6-2.2-2.9-.1,0-.2,0-.3,0-1-.1-2.1.2-2.7,1-2,2.6.9,5.8,3.3,2.9-1.5.2-3.6-1.1-2.8-2.5.4-.7,1.4-.9,2.2-.8,1.3.2,2,1.2,2,2.4,0,1.4-.5,2.8-1.7,3.5-1.1.7-2.5.8-3.7.4-.1-.5-.3-.9-.5-1.3-.6-1.1-1.6-1.9-2.6-2.3-.1-.6-.1-1.2,0-1.8,0-.7.3-1.3.6-1.7.4-.6,1.1-.6,1.8-.6h37.3c0,.2.3.4.6.4s.7-.3.7-.7-.3-.7-.7-.7-.5.2-.6.4H9.7c-1.1,0-1.7,0-2.4.9-.4.5-.6,1.1-.7,1.9,0,.6,0,1.1,0,1.6-.7-.2-1.5-.2-2.3-.2-.8,0-1.4.3-1.9.7-.9.7-.9,1.3-.9,2.4v37c-.2,0-.4.3-.4.6s.3.7.7.7ZM9.5,9c.1.2.3.5.4.8,0,0-.2,0-.2-.1-1-.6-1.7-1.5-2-2.5.8.4,1.5,1,1.9,1.8Z"/>
  <rect class="cls-2" x="2.5" y="0" width="70.3" height=".3"/>
  <polygon class="cls-1" points=".3 2 0 2 0 27.6 0 27.6 0 97.3 0 97.3 0 141.1 .3 141.1 .3 97.3 .3 97.3 .3 27.6 .3 27.6 .3 2"/>
  <path class="cls-1" d="m13.5,13.5c0,0-.7-.9-.6-2.1-.5,0-1,0-1.5,0,0,.5,0,1,0,1.5.8-.1,2.3.6,2.3.6Z"/>
  <path class="cls-1" d="m5.7,2.5c.1-.2.2-.3.4-.4-1,.3-2.8.8-3.9,0,.7,1.6.5,2.3,0,3.4,0-.1.2-.3.4-.4.3-.2.7-.4,1.2-.4.5,0,1,0,1.5,0,0-.3,0-.7,0-1,0-.5.2-.9.4-1.2Z"/>
  <path class="cls-1" d="m171.7,2.2c.1,0,.3.2.4.4.2.3.4.7.4,1.2,0,.5,0,1,0,1.5.3,0,.7,0,1,0,.5,0,.9.2,1.2.4.2.1.3.2.4.4-.3-1-.8-2.8,0-3.9-1.6.7-2.3.5-3.4,0Z"/>
  <path class="cls-1" d="m165.7,12.8c0-.5,0-1,0-1.5-.5,0-1,0-1.5,0,.1.8-.6,2.3-.6,2.3,0,0,.9-.7,2.1-.6Z"/>
  <path class="cls-1" d="m174.5,47.7c0,.4.3.7.7.7s.7-.3.7-.7-.2-.5-.4-.6V9.7c0-1.1,0-1.7-.9-2.4-.5-.4-1.1-.6-1.9-.7-.6,0-1.1,0-1.6,0,.2-.7.2-1.5.2-2.3,0-.8-.3-1.4-.7-1.9-.7-.9-1.3-.9-2.4-.9h-37c0-.2-.3-.4-.6-.4s-.7.3-.7.7.3.7.7.7.5-.2.6-.4h37c.7,0,1.4,0,1.8.7.3.5.6,1,.6,1.7,0,.8,0,1.6-.2,2.3-1.3.3-2.5,1.1-3.3,2.5-.1.2-.2.5-.3.7-1.1.2-2.2,0-3.1-.5-1.2-.8-1.7-2.1-1.7-3.5,0-1.3.7-2.3,2-2.4.8,0,1.8.1,2.2.8.8,1.4-1.3,2.8-2.8,2.5,2.4,2.9,5.3-.3,3.3-2.9-.6-.8-1.8-1.2-2.7-1-.1,0-.2,0-.3,0-1.4.3-2.2,1.5-2.2,2.9,0,1.6.5,3.2,2,4.1,1,.6,2.1.8,3.3.7-.3,1.3-.2,2.8.5,3.9.9,1.4,2.4,2,4.1,2,1.4,0,2.6-.8,2.9-2.2,0-.1,0-.2,0-.3.1-1-.2-2.1-1-2.7-2.6-2-5.8.9-2.9,3.3-.2-1.5,1.1-3.6,2.5-2.8.7.4.9,1.4.8,2.2-.2,1.3-1.2,2-2.4,2-1.4,0-2.8-.5-3.5-1.7-.7-1.1-.8-2.5-.4-3.7.5-.1.9-.3,1.3-.5,1.1-.6,1.9-1.6,2.3-2.6.6-.1,1.2-.1,1.8,0,.7,0,1.3.3,1.7.6.6.4.6,1.1.6,1.8v37.3c-.2,0-.4.3-.4.6Zm-6.3-38.2c-.2.1-.5.3-.8.4,0,0,0-.2.1-.2.6-1,1.5-1.7,2.5-2-.4.8-1,1.5-1.8,1.9Z"/>
  <polygon class="cls-1" points="177.2 2.5 176.9 2.5 176.9 27.6 176.9 27.6 176.9 97.3 176.9 97.3 176.9 141.7 177.2 141.7 177.2 97.3 177.2 97.3 177.2 27.6 177.2 27.6 177.2 2.5"/>
  <path class="cls-1" d="m163.7,130.1c0,0,.7.9.6,2.1.5,0,1,0,1.5,0,0-.5,0-1,0-1.5-.8.1-2.3-.6-2.3-.6Z"/>
  <path class="cls-1" d="m175.4,96.2c-.4,0-.7.3-.7.7s.2.5.4.6v37c0,.7,0,1.4-.7,1.8-.5.3-1,.6-1.7.6-.8,0-1.6,0-2.3-.2-.3-1.3-1.1-2.5-2.5-3.3-.2-.1-.5-.2-.7-.3-.2-1.1,0-2.2.5-3.1.8-1.2,2.1-1.7,3.5-1.7,1.3,0,2.3.7,2.4,2,0,.8-.1,1.8-.8,2.2-1.4.8-2.8-1.3-2.5-2.8-2.9,2.4.3,5.3,2.9,3.3.8-.6,1.2-1.7,1-2.7,0-.1,0-.2,0-.3-.3-1.4-1.5-2.2-2.9-2.2-1.6,0-3.2.5-4.1,2-.6,1-.8,2.1-.7,3.3-1.3-.3-2.8-.2-3.9.5-1.4.9-2,2.4-2,4.1,0,1.4.8,2.6,2.2,2.9.1,0,.2,0,.3,0,1,.1,2.1-.2,2.7-1,2-2.6-.9-5.8-3.3-2.9,1.5-.2,3.6,1.1,2.8,2.5-.4.7-1.4.9-2.2.8-1.3-.2-2-1.2-2-2.4,0-1.4.5-2.8,1.7-3.5,1.1-.7,2.5-.8,3.7-.4.1.5.3.9.5,1.3.6,1.1,1.6,1.9,2.6,2.3.1.6.1,1.2,0,1.8,0,.7-.3,1.3-.6,1.7-.4.6-1.1.6-1.8.6h-37.3c0-.2-.3-.4-.6-.4s-.7.3-.7.7.3.7.7.7.5-.2.6-.4h37.4c1.1,0,1.7,0,2.4-.9.4-.5.6-1.1.7-1.9,0-.6,0-1.1,0-1.6.7.2,1.5.2,2.3.2.8,0,1.4-.3,1.9-.7.9-.7.9-1.3.9-2.4v-37c.2,0,.4-.3.4-.6s-.3-.7-.7-.7Zm-7.6,38.5c-.1-.2-.3-.5-.4-.8,0,0,.2,0,.2.1,1,.6,1.7,1.5,2,2.5-.8-.4-1.5-1-1.9-1.8Z"/>
  <path class="cls-1" d="m174.6,138.5c-.3.2-.7.4-1.2.4-.5,0-1,0-1.5,0,0,.3,0,.7,0,1,0,.5-.2.9-.4,1.2-.1.2-.2.3-.4.4,1-.3,2.8-.8,3.9,0-.7-1.6-.5-2.3,0-3.4,0,.1-.2.3-.4.4Z"/>
  <path class="cls-1" d="m5.5,141.4c-.1,0-.3-.2-.4-.4-.2-.3-.4-.7-.4-1.2,0-.5,0-1,0-1.5-.3,0-.7,0-1,0-.5,0-.9-.2-1.2-.4-.2-.1-.3-.2-.4-.4.3,1,.8,2.8,0,3.9,1.6-.7,2.3-.5,3.4,0Z"/>
  <path class="cls-1" d="m2.7,136.3c.5.4,1.1.6,1.9.7.6,0,1.1,0,1.6,0-.2.7-.2,1.5-.2,2.3,0,.8.3,1.4.7,1.9.7.9,1.3.9,2.4.9h37c0,.2.3.4.6.4s.7-.3.7-.7-.3-.7-.7-.7-.5.2-.6.4H9.1c-.7,0-1.4,0-1.8-.7-.3-.5-.6-1-.6-1.7,0-.8,0-1.6.2-2.3,1.3-.3,2.5-1.1,3.3-2.5.1-.2.2-.5.3-.7,1.1-.2,2.2,0,3.1.5,1.2.8,1.7,2.1,1.7,3.5,0,1.3-.7,2.3-2,2.4-.8,0-1.8-.1-2.2-.8-.8-1.4,1.3-2.8,2.8-2.5-2.4-2.9-5.3.3-3.3,2.9.6.8,1.7,1.2,2.7,1,.1,0,.2,0,.3,0,1.4-.3,2.2-1.5,2.2-2.9,0-1.6-.5-3.2-2-4.1-1-.6-2.1-.8-3.3-.7.3-1.3.2-2.8-.5-3.9-.9-1.4-2.4-2-4.1-2-1.4,0-2.6.8-2.9,2.2,0,.1,0,.2,0,.3-.1,1,.2,2.1,1,2.7,2.6,2,5.8-.9,2.9-3.3.2,1.5-1.1,3.6-2.5,2.8-.7-.4-.9-1.4-.8-2.2.2-1.3,1.2-2,2.4-2,1.4,0,2.8.5,3.5,1.7.7,1.1.8,2.5.4,3.7-.5.1-.9.3-1.3.5-1.1.6-1.9,1.6-2.3,2.6-.6.1-1.2.1-1.8,0-.7,0-1.3-.3-1.7-.6-.6-.4-.6-1.1-.6-1.8v-37.3c.2,0,.4-.3.4-.6s-.3-.7-.7-.7-.7.3-.7.7.2.5.4.6v37.4c0,1.1,0,1.7.9,2.4Zm6.3-2.1c.2-.1.5-.3.8-.4,0,0,0,.2-.1.2-.6,1-1.5,1.7-2.5,2,.4-.8,1-1.5,1.8-1.9Z"/>
  <path class="cls-1" d="m11.5,130.8c0,.5,0,1,0,1.5.5,0,1,0,1.5,0-.1-.8.6-2.3.6-2.3,0,0-.9.7-2.1.6Z"/>
  <polygon class="cls-1" points="123.2 0 72.8 0 72.8 .3 123.2 .3 123.2 .3 175.3 .3 175.3 0 123.2 0 123.2 0"/>
  <polygon class="cls-1" points="123.2 143.3 53.5 143.3 53.5 143.3 2 143.3 2 143.6 53.5 143.6 53.5 143.6 123.2 143.6 123.2 143.6 174.7 143.6 174.7 143.3 123.2 143.3 123.2 143.3"/>
</svg>