<?xml version="1.0" encoding="UTF-8"?>
<svg id="Title" xmlns="http://www.w3.org/2000/svg" width="253.9" height="126.1" viewBox="0 0 253.9 126.1">
  <defs>
    <style>
      .cls-1 {
        fill-rule: evenodd;
      }

      .cls-1, .cls-2 {
        fill: #1f1f1f;
      }
    </style>
  </defs>
  <path class="cls-1" d="m35.6,112.8c-1.6-.5-3.1-1.3-4.1-2.5-1.9-2-.6-5.2-2.4-7.3-3.2-4-12.9-4.4-17.8-4.2-3.5.2-7,.8-10.4,1.8,3.4-.8,6.9-1.3,10.4-1.4,5.1,0,10.6.6,15.2,2.9,1.4.8,2.5,2.2,2.6,3.8,0,.8,0,1.7.2,2.7.4,1.9,1.7,3.4,3.3,4.5C20.7,114.1,9.3,118.7,0,126c10.2-7.4,22.7-11.6,35.4-11.8.8,0,1-1.2.2-1.5Z"/>
  <path class="cls-1" d="m253.9,65.6c-1.6.5-3.8,1.1-6.5,1.7-.8.2-9.6,1.9-20,3-15.6,1.7-31.6,1.6-47.2-.2-29.3-2.8-57.3-13.8-86.8-14.4-7.7-.2-16,.5-23.7,1.9-10,1.9-19.8,4.9-29.1,9.1-.1,0-.2.2,0,.3,4.1,5.3,6,12.1,5.3,18.8,0,.5-.1.9-.2,1.4-.1,0-.2,0-.3.2-5.9,5.4-13.9,7.8-21.8,6.8-8-.9-16.3,1.4-22.6,6.4,4.9-3.5,10.6-5.7,16.6-5.9,4-.2,8,.7,12,.5,5.7-.2,11.2-2.4,15.7-5.9-1.1,5.3-3.2,10.5-6,15.2-1.4,1.6-3.2,4.7-.8,6.4,3.7,2.2,9.8-.3,12.3,4,.6,1.3.5,3,0,4.4-1.7,4.7-7.9,5.5-12.1,3.8C26,118.4,11.7,119.7,0,126.1H0c11.7-6.1,25.9-7.1,38.2-2.3,4.5,1.9,11.4,1,13.4-4.2,1.2-2.8.4-5.8-1.8-7.3-2.1-2.8-2.7-6.6-1.7-9.9,5.7-2.1,11.6-3.9,17.6-5.2,27.3-6.4,53.3-1.2,80.1,4.9,35.3,8.1,72,10.7,107.9,5.7,0,0,.2,0,.3,0M41,67c4-1.8,8.2-3.3,12.4-4.7,44.9-14.6,76.4,1.7,119.9,8.2,17.9,2.5,36.2,3.2,54.2,1.3,6.8-.7,13.5-1.7,20.2-3,2-.4,4.1-.8,6-1.5-.4,13.1-.7,26-.9,39-26.6,3.5-53.7,3.3-80.2-.8-26.8-3.8-52.9-12.9-80.3-12.9-15.2,0-30.2,2.9-44.4,8.2,0,0,0,0,0,0-2.1.8-4.2,1.6-6.3,2.5,1.2-2.4,2.3-4.9,3.1-7.5,3.5-9.6,3.1-20.8-3.6-28.9Zm-.7,38.5c2.4-1.1,4.9-2.1,7.4-3-.8,3-.3,6.3,1.1,9.1-.4-.2-.8-.3-1.3-.4-3.8-1.2-12.3.5-7.1-5.7Z"/>
  <polygon class="cls-1" points="0 126.1 0 126.1 0 126 0 126.1"/>
  <g>
    <g>
      <path class="cls-2" d="m58.4,32.2c0,.6,0,1.2,0,1.8,0,.6,0,1.2,0,1.7,0,.6-.1,1.2-.4,1.7-.2.5-.6.9-.9,1.3-.4.3-.8.6-1.3.8-.5.2-.9.2-1.3.1-.4,0-.8-.3-1.1-.7-.3-.4-.6-.9-.7-1.6.3.2.6.3.9.2.3,0,.6-.2.8-.5.2-.2.4-.5.6-.9.2-.3.2-.7.2-1,0-.6-.2-1-.5-1.3-.3-.2-.7-.3-1.1-.2-.4,0-.8.3-1.2.6-.4.4-.7.8-.8,1.3-.1.4-.2.9-.2,1.4,0,.5,0,1.1,0,1.8,0,4.9,0,9.8,0,14.7,0,.2,0,.5.2.7,0,.3.2.5.4.6.2.2.3.3.5.3.2,0,.4,0,.6-.3,0,0,.1.1.1.3,0,.2,0,.4-.1.6,0,.2-.3.4-.5.6-.2.2-.6.3-1,.5,0,0-.2,0-.2,0-1.2.3-2.4.6-3.6,1,0,0-.1,0-.2,0-.4.1-.8.2-1,0-.2,0-.4-.2-.5-.3,0-.2-.1-.3-.1-.5,0-.2,0-.3.1-.4.2,0,.4,0,.6,0,.2-.1.4-.3.5-.6.2-.3.3-.6.4-.9,0-.3.2-.6.2-.9,0-4.9,0-9.8,0-14.7,0-.7,0-1.3,0-1.8,0-.5,0-1-.2-1.3-.1-.5-.4-.8-.8-.9-.4-.1-.8-.1-1.2,0-.4.2-.8.4-1.1.8-.3.4-.5.9-.5,1.5,0,.3,0,.6.2.9.1.3.3.4.6.5.2.1.5.1.8,0,.3,0,.6-.3.9-.7-.1.8-.4,1.4-.7,2-.3.5-.7,1-1.1,1.3-.4.3-.8.5-1.3.6-.5,0-.9,0-1.2,0-.4-.1-.7-.4-.9-.8-.2-.4-.4-.8-.4-1.5,0-.6,0-1.1,0-1.7,0-.6,0-1.2,0-1.8,0-.3,0-.6.1-.8,0-.2.2-.4.3-.5.1-.1.2-.2.4-.3.1,0,.3-.2.5-.2,4.9-1.7,9.8-3,14.8-4,.2,0,.3,0,.5,0,.1,0,.3,0,.4.1.1,0,.2.2.3.4,0,.2.1.4.1.8Zm-16,9.6c.2.2.5.3.8.3-.3-.2-.6-.4-.8-.8-.2-.4-.3-.8-.3-1.3,0-.6,0-1.1,0-1.7,0-.6,0-1.2,0-1.8,0-.1,0-.3,0-.4,0-.1,0-.2,0-.3-.1,0-.2.1-.3.2,0,0,0,0,0,.2,0,0,0,.2,0,.3,0,0,0,.2,0,.3,0,0,0,.1,0,.2,0,.6,0,1.2,0,1.7,0,.6,0,1.1,0,1.7,0,.7.2,1.2.7,1.6Zm5.6,14.5c.3-.2.5-.5.7-1,.2-.5.3-.9.3-1.3,0-4.9,0-9.8,0-14.7,0-.7,0-1.3,0-1.8,0-.5,0-1-.2-1.3,0-.3-.3-.6-.5-.8-.2-.2-.5-.3-.8-.3.4.2.6.6.8,1.1.1.5.2,1,.2,1.6,0,.6,0,1.2,0,1.7,0,4.9,0,9.8,0,14.7,0,0,0,0,0,0,0,0,0,0,0,0,0,.4-.1.8-.3,1.2,0,.3-.2.5-.3.8Zm7.6-19.5c.3-.2.5-.5.7-.9.2-.4.3-.7.3-1.1,0-.5-.1-.9-.3-1.1-.2-.2-.5-.4-.8-.4.5.3.7.9.7,1.8,0,0,0,.2,0,.2,0,0,0,.2,0,.2,0,.5-.3.9-.5,1.3Z"/>
      <path class="cls-2" d="m72.9,48.2c0,0,.1.2.2.3,0,.2,0,.3,0,.5,0,.2-.2.3-.4.5-.2.2-.5.2-.9.3,0,0-.2,0-.2,0-1.2.1-2.4.2-3.7.4,0,0-.1,0-.2,0-.4,0-.8,0-1,0-.3-.1-.5-.2-.6-.4-.1-.2-.2-.3-.3-.5,0-.2,0-.3,0-.3.3.1.5.1.7,0,.2,0,.3-.3.4-.5.1-.2.2-.5.2-.8,0-.3,0-.5,0-.8,0-.3-.1-.6-.2-.9,0,.4-.3.7-.6,1-.3.3-.7.5-1.3.7,0-.3,0-.6,0-.8,0-.2-.2-.4-.4-.5-.2-.1-.3-.2-.5-.2-.2,0-.4,0-.6.2-.2.2-.3.3-.4.5,0,.2-.1.4-.2.6,0,.3,0,.5,0,.8,0,.3.1.5.2.7.1.2.2.3.4.4.2,0,.4,0,.7-.2,0,0,0,.2,0,.3,0,.2-.1.4-.3.6-.1.2-.3.4-.6.6s-.6.3-1,.4c0,0-.2,0-.2,0-1.2.2-2.4.4-3.7.6,0,0-.1,0-.2,0-.4,0-.7,0-1,0-.2,0-.3-.2-.4-.4,0-.2,0-.3,0-.5,0-.2.1-.3.2-.4,1,.4,1.7-.4,2.2-2.3.4-1.7.8-3.4,1.2-5,0-.3.2-.7.3-1,.5-1.9.9-3.8,1.4-5.7,0-.3,0-.5,0-.7,0-.2-.1-.4-.3-.5-.1-.1-.3-.2-.5-.1-.2,0-.4.1-.7.3,0,0,0-.2,0-.3,0-.2.1-.4.3-.6.1-.2.3-.4.6-.6.3-.2.6-.3,1-.4,0,0,.2,0,.2,0,.2,0,.5,0,.7-.1,0,0,.2,0,.2,0,.9-.1,1.8-.3,2.7-.4,0,0,.1,0,.2,0,.3,0,.5,0,.8,0,0,0,.2,0,.2,0,.4,0,.8,0,1,0,.3.1.5.2.6.4.1.2.2.3.3.5,0,.2,0,.3,0,.3-.3-.1-.5-.2-.7-.1-.2,0-.4.1-.5.3-.1.1-.2.3-.3.6,0,.2,0,.5,0,.7.4,1.8.9,3.5,1.3,5.3,0,.3.1.6.2.9.4,1.6.8,3.1,1.2,4.7.2.9.5,1.5.9,1.7.4.3.8.2,1.3,0Zm-9.7-12.1c0-.4,0-.7-.1-1-.1-.3-.4-.4-.7-.3.2.2.3.5.3.8,0,.3,0,.6,0,.9,0,0,0,0,0,0-.5,1.9-.9,3.8-1.4,5.7-.5,2-1,4-1.4,6,0,.3-.2.6-.3.9-.1.3-.2.6-.4.9.5-.3.9-1,1.2-2.2.4-1.7.8-3.3,1.2-5,0-.3.2-.7.3-1,.5-1.9.9-3.8,1.4-5.7Zm.6,7.6c.6-.2,1.1-.2,1.5-.1.4.1.8.4,1.1.7-.2-.7-.3-1.4-.5-2.1,0-.3-.1-.6-.2-.9-.2-.9-.4-1.8-.7-2.6-.2.9-.5,1.9-.7,2.8,0,.3-.2.6-.2,1-.1.4-.2.8-.3,1.2Zm1.8,3c.2-.1.3-.2.3-.3,0,0,0-.2,0-.2,0,0-.2-.1-.3-.2-.1,0-.2,0-.3,0,0,0,0,0,0,.1,0,0,.2.2.2.3,0,.1.1.2.1.4Zm1.3-3.2c.3.2.5.3.6.5-.2-.7-.3-1.4-.5-2.1,0-.3-.1-.6-.2-.9-.4-1.7-.8-3.4-1.2-5.1,0,.3-.2.6-.3,1,.5,2.2,1.1,4.4,1.6,6.6Zm.5,5.2c.1,0,.3-.1.4-.3.1-.2.2-.3.2-.5,0-.2,0-.4.1-.6,0-.2,0-.4,0-.6,0-.3-.1-.6-.2-.9,0,.3-.1.5-.3.7,0,.3,0,.7,0,1.1,0,.4-.1.8-.3,1.2Z"/>
      <path class="cls-2" d="m85.5,32c.4,0,.7,0,.9.2.2.1.3.3.4.5,0,.2,0,.3,0,.5,0,.2-.1.3-.2.3-1-.6-1.7,0-2.2,1.8-.4,1.6-.8,3.2-1.2,4.8,0,.3-.2.6-.2.9-.5,1.8-.9,3.6-1.4,5.5,0,.2,0,.5,0,.7,0,.2.1.4.3.5.1.1.3.2.5.2.2,0,.4,0,.7-.2,0,0,0,.2,0,.3,0,.2-.1.3-.3.5-.1.2-.3.3-.6.5-.3.1-.6.2-1,.2,0,0-.2,0-.2,0,0,0,0,0,0,0,0,0,0,0,0,0,0,0-.1,0-.2,0-1.1,0-2.2,0-3.4.1,0,0-.2,0-.2,0,0,0,0,0,0,0,0,0-.2,0-.2,0-.4,0-.8,0-1-.2-.3-.1-.5-.3-.6-.4-.1-.2-.2-.3-.3-.5,0-.2,0-.3,0-.3.3.1.5.2.7.2.2,0,.4-.1.5-.2.1-.1.2-.3.3-.5,0-.2,0-.5,0-.7-.4-1.8-.9-3.6-1.3-5.4,0-.3-.2-.6-.2-.9-.4-1.6-.8-3.2-1.1-4.7-.5-1.8-1.2-2.3-2.2-1.7,0,0-.1-.1-.2-.3,0-.2,0-.3,0-.5,0-.2.2-.3.4-.5.2-.2.5-.3,1-.3,0,0,.1,0,.2,0,1.2,0,2.4-.2,3.7-.2h.2c.4,0,.8,0,1,.2.3.1.5.3.6.4.1.2.2.3.3.5,0,.2,0,.3,0,.3-.3-.2-.5-.2-.7-.1-.2,0-.3.2-.4.4-.1.2-.2.5-.2.7,0,.3,0,.5,0,.8.4,1.6.8,3.2,1.2,4.8,0,.3.1.6.2.9.1.4.2.9.3,1.3.1-.4.2-.9.3-1.3,0-.3.2-.6.2-.9.4-1.6.8-3.3,1.2-4.9,0-.2,0-.5,0-.8,0-.3-.1-.5-.2-.7-.1-.2-.2-.3-.4-.4-.2,0-.4,0-.7.2,0,0,0-.2,0-.3,0-.2.1-.3.3-.5.1-.2.3-.3.6-.5.3-.1.6-.2,1.1-.2,0,0,.1,0,.2,0,1.2,0,2.4,0,3.7,0,0,0,.2,0,.2,0Zm-8.6,16.1c.2,0,.4-.2.5-.5.1-.3.1-.6,0-.9-.4-1.8-.9-3.6-1.3-5.4,0-.3-.2-.6-.2-.9-.4-1.6-.8-3.2-1.1-4.8-.3-1.3-.8-1.9-1.4-2,.2.3.4.6.6.9.1.4.3.7.3,1,.5,1.9.9,3.8,1.4,5.7.4,1.8.9,3.6,1.3,5.4h0c.1.5,0,1-.2,1.5Zm5-12.9c0-.2,0-.4,0-.7,0-.2,0-.4-.1-.6,0-.2-.2-.4-.3-.5-.1-.1-.3-.2-.5-.1.2.3.4.6.4,1.1,0,.4,0,.8,0,1.1,0,0,0,0,0,0-.7,2.8-1.4,5.7-2.1,8.5,0,.3.1.5.2.8.3-1.2.6-2.5.9-3.7,0-.3.2-.6.2-.9.4-1.6.8-3.3,1.2-4.9Z"/>
      <path class="cls-2" d="m95.5,45.1c.1-.7.4-1.1.9-1.4.5-.3.9-.4,1.5-.4.5,0,1,.3,1.4.7.4.4.7,1,.8,1.8,0,.3,0,.5,0,.7,0,.2,0,.4,0,.6,0,.2,0,.4,0,.6,0,.2,0,.5,0,.8,0,.3,0,.6-.2.8,0,.2-.2.3-.3.4-.1,0-.2.1-.4.2-.1,0-.3,0-.5,0-2.9-.2-5.9-.4-8.8-.5,0,0-.2,0-.2,0-.4,0-.8,0-1-.2-.2-.1-.4-.3-.5-.5,0-.2-.1-.3-.1-.5,0-.2,0-.3,0-.3.2.2.4.2.7.1.2,0,.4-.2.5-.4.2-.2.3-.4.4-.7.1-.3.2-.6.2-.8,0,0,0-.2,0-.3,0-1.7,0-3.3,0-5,0-1.7,0-3.3,0-5,0,0,0-.2,0-.3,0-.2,0-.5-.2-.8,0-.3-.2-.5-.4-.8-.2-.2-.3-.4-.5-.4-.2,0-.4,0-.7.1,0,0,0-.2,0-.3,0-.2,0-.3.1-.5,0-.2.3-.3.5-.5.2-.1.6-.2,1-.2,0,0,.2,0,.2,0,2.9,0,5.9.3,8.8.5.2,0,.3,0,.5,0,.1,0,.3.1.4.2.1.1.2.3.3.5,0,.2.1.5.1.8,0,.3,0,.6,0,.8,0,.2,0,.4,0,.6,0,.2,0,.4,0,.6,0,.2,0,.4,0,.7,0,.8-.3,1.3-.8,1.7-.4.3-.9.5-1.4.5-.5,0-1-.2-1.5-.6-.5-.4-.7-.9-.8-1.5.3,0,.5,0,.7,0,.2,0,.4-.1.5-.3.1-.1.2-.3.3-.5,0-.2,0-.4,0-.6,0-.4-.3-.8-.6-1.1-.4-.3-.7-.4-1.1-.4-.4,0-.8.2-1.1.6-.3.4-.5,1.1-.5,2,0,.8,0,1.6,0,2.4,0,.5,0,1.1,0,1.6.2-.3.4-.6.6-.7.2-.1.5-.2.8-.2.3,0,.6,0,.9,0,.3,0,.6.1.9.2.3,0,.5,0,.8,0,.2,0,.5-.1.6-.3.1.3.2.6.2,1,0,.3,0,.6-.2.9-.1.3-.3.5-.5.7-.2.2-.5.3-.8.3-.3,0-.6,0-.8,0-.3,0-.6-.1-.8-.2-.3,0-.5,0-.8,0-.2,0-.5.3-.7.6,0,.7,0,1.4,0,2.1,0,.9.2,1.6.5,2.1.3.4.7.7,1.1.7.4,0,.8,0,1.2-.3.4-.2.6-.6.6-1,0-.2,0-.4,0-.6,0-.2-.1-.3-.3-.5-.1-.1-.3-.3-.5-.3-.2,0-.4-.1-.7,0Zm-4.5-4.5c0-1.7,0-3.3,0-5,0,0,0-.2,0-.3,0-.2,0-.4-.1-.7,0-.2-.2-.5-.3-.7-.1-.2-.2-.4-.4-.5-.2-.1-.3-.2-.5-.2.2.3.4.6.6,1,.1.4.2.8.3,1.1,0,.1,0,.2,0,.3,0,1.7,0,3.3,0,5,0,1.7,0,3.3,0,5v.3c0,.2,0,.4,0,.5,0,.2,0,.4-.2.5-.1.3-.2.5-.4.7.3-.1.5-.4.7-.8.2-.4.3-.8.3-1.2,0,0,0-.2,0-.3,0-1.7,0-3.3,0-5Zm7.1-5.1c0-.3-.2-.6-.4-.8-.2-.2-.5-.4-.8-.5.4.4.6.8.7,1.4,0,.5,0,.9-.2,1.3.3,0,.5-.2.6-.5.1-.2.1-.5,0-.8Zm0,11c0-.3,0-.6-.1-.9-.1-.3-.4-.5-.7-.6.4.5.5,1,.4,1.7,0,0,0,.2,0,.3,0,0,0,.2-.1.3,0,.1-.1.2-.2.3.2-.1.4-.3.5-.4.2-.2.2-.4.3-.6Z"/>
      <path class="cls-2" d="m115.2,47.6c.2.3.3.5.4.8,0,.3.1.6,0,.9,0,.3,0,.6-.2.9-.1.3-.2.5-.4.7-.3.3-.6.5-1,.6-.4.1-.8.2-1.2.2-.4,0-.8-.1-1.2-.2-.4-.1-.8-.3-1.1-.6-.3-.2-.7-.6-1-1.2-.4-.5-.7-1.1-1.1-1.7-.3-.6-.6-1.2-.9-1.9-.3-.6-.5-1.1-.7-1.5,0,.9,0,1.8,0,2.7,0,.2,0,.5.2.8.1.3.2.5.4.8.2.2.3.4.5.5.2,0,.4,0,.6,0,0,0,0,.2,0,.3,0,.2,0,.3-.1.5,0,.2-.3.3-.5.4-.2.1-.6.1-1,0,0,0-.2,0-.2,0-1.2-.1-2.4-.3-3.7-.4,0,0-.2,0-.2,0-.4,0-.8-.1-1-.3-.2-.2-.4-.3-.5-.5,0-.2-.1-.4-.1-.5,0-.2,0-.3.1-.3.2.2.4.2.7.2.2,0,.4-.2.5-.4.2-.2.3-.4.4-.7,0-.3.2-.5.2-.8,0-3.5,0-7,0-10.6,0-.2,0-.5-.2-.8,0-.3-.2-.6-.4-.8-.2-.2-.3-.4-.5-.5-.2-.1-.4,0-.7,0,0,0,0-.2,0-.3,0-.2,0-.3.1-.5.1-.2.3-.3.5-.4.2-.1.6-.2,1-.1,0,0,.2,0,.2,0,1.2.1,2.4.2,3.7.4,0,0,.2,0,.2,0,.1,0,.2,0,.3,0,0,0,.1,0,.2,0,0,0,.1,0,.2,0,.9.1,1.7.2,2.6.3.6,0,1.1.2,1.6.5.5.3.9.6,1.4,1,.5.6,1,1.2,1.3,1.9.3.7.5,1.5.6,2.3,0,.8,0,1.5-.2,2.3-.2.7-.5,1.4-1,2-.4.6-1,1-1.7,1.3-.7.3-1.5.5-2.5.4.3.6.5,1.1.9,1.5.3.4.7.7,1.1.9.2,0,.4,0,.6,0,.2,0,.3-.2.4-.3,0-.2.2-.4.2-.6,0-.2,0-.5-.1-.7.5.1,1,.3,1.4.5.4.2.7.5.9.8Zm-10.8-11.2c0-.2,0-.4-.1-.7,0-.2-.2-.5-.3-.7-.1-.2-.3-.4-.4-.5-.2-.1-.3-.2-.5-.2.2.3.4.7.6,1.1.1.4.2.8.3,1.1,0,0,0,0,0,0,0,3.5,0,7,0,10.6h0s0,0,0,0c0,.2,0,.4,0,.5,0,.2,0,.3-.2.5-.1.3-.2.5-.4.7.3,0,.5-.3.7-.7.2-.4.3-.8.3-1.1,0-3.5,0-7,0-10.6Zm2.6,2.7c.4-.2.8-.3,1.2-.2.4,0,.8.2,1.2.4.3.2.6.6.7,1,.2.4.1,1,0,1.5-.3-.2-.6-.4-.8-.5-.3,0-.5,0-.7,0-.2,0-.4.2-.5.4-.1.2-.1.4,0,.7,0,.2.2.4.4.5.2.1.4.2.6.2.2,0,.4,0,.6,0,.2,0,.4,0,.5-.2.4-.2.7-.6.9-1.2.2-.6.3-1.2.3-1.8,0-.6,0-1.2-.1-1.8-.1-.6-.2-1-.4-1.2-.3-.4-.6-.7-1-.9-.4-.2-.9-.3-1.3-.3-.4,0-.8.2-1.1.4-.3.3-.5.6-.5,1.1,0,.6,0,1.2,0,1.8Zm3.9,11.3c.1.1.3.2.4.3-.4-.4-.8-.9-1.1-1.4-.3-.5-.6-1-.8-1.6-.3-.5-.6-1-.8-1.6-.3-.5-.6-1-1.1-1.4,0,0,0,.1.1.3,0,.1.2.3.2.4,0,.2.2.3.2.4,0,.1.1.2.2.3.2.4.4.8.6,1.3.2.4.4.8.7,1.2.2.4.5.7.7,1,.2.3.4.5.6.7Zm1.1-13.3c-.2-.4-.6-.7-1-.9.2.2.3.4.5.6.1.2.3.5.3.8,0,.3.1.7.2,1,0,.4,0,.7,0,1,0,.3,0,.6,0,.9,0,.5-.1.9-.2,1.4-.1.5-.3.9-.6,1.3,0,0,0,0,0,0,0,0,0,0,0,0,.4-.2.7-.6.9-1.2.2-.6.3-1.2.3-1.8,0-.6,0-1.2-.1-1.8-.1-.6-.2-1-.4-1.2Z"/>
      <path class="cls-2" d="m132.8,53.1c0,0,.1.2.1.4,0,.2,0,.3-.1.5,0,.2-.3.3-.5.4-.2,0-.6.1-1,0,0,0-.1,0-.2,0-1.2-.2-2.4-.4-3.7-.6,0,0-.2,0-.2,0-.4,0-.8-.2-1-.4-.2-.2-.4-.4-.5-.6,0-.2-.1-.4-.1-.5,0-.2,0-.3.1-.3.3.3.5.3.8.2.2-.1.4-.3.6-.6-.3,0-.6.1-1,.1-.3,0-.7-.1-1.1-.3-.3-.2-.6-.4-.9-.7-.3-.3-.4-.6-.6-1-.1-.3-.2-.7-.1-1.1,0-.4.2-.7.5-1,0,.4.2.7.4.9.2.2.4.3.6.3.2,0,.4,0,.5-.2.1-.1.2-.3.3-.6,0-.4,0-.7-.3-1.1-.2-.4-.5-.8-.9-1.1-.4-.4-.7-.7-1.1-1.1-.4-.4-.7-.7-.9-1,0,.3,0,.6,0,.9,0,1.6,0,3.2,0,4.9,0,.2,0,.5.2.8.1.3.2.6.4.8.2.2.3.4.5.5.2.1.4,0,.6,0,0,0,0,.2,0,.3,0,.2,0,.3-.1.5,0,.2-.3.3-.5.4-.2.1-.6.1-1,0,0,0-.2,0-.2,0-1.2-.2-2.4-.4-3.7-.6,0,0-.2,0-.2,0-.4,0-.8-.2-1-.4-.2-.2-.4-.4-.5-.5,0-.2-.1-.4-.1-.5,0-.2,0-.3.1-.3.2.2.4.3.7.2.2,0,.4-.2.5-.4.2-.2.3-.4.4-.7.1-.3.2-.5.2-.8,0-3.5,0-7,0-10.6,0-.2,0-.5-.2-.8,0-.3-.2-.6-.4-.8-.2-.2-.3-.4-.5-.5-.2-.1-.4-.1-.7,0,0,0,0-.2,0-.3,0-.2,0-.3.1-.5,0-.2.3-.3.5-.4.2-.1.6-.1,1,0,0,0,.2,0,.2,0,1.2.2,2.4.4,3.7.6,0,0,.2,0,.2,0,.4,0,.8.2,1,.4.2.2.4.4.5.6,0,.2.1.4.1.5,0,.2,0,.3-.1.3-.3-.2-.5-.3-.8-.2-.2.1-.4.3-.6.5-.2.4-.4.8-.3,1.3,0,.4.2.9.4,1.4.2.5.5.9.9,1.4.4.5.8,1,1.2,1.4.4.5.8.9,1.3,1.4.4.5.8.9,1.1,1.3,0-.1,0-.3,0-.4,0-.3,0-.6,0-.9,0-1.6,0-3.2,0-4.8,0-.3,0-.5-.2-.8,0-.3-.2-.6-.4-.8-.2-.2-.3-.4-.6-.5-.2-.1-.4-.1-.6,0,0,0-.1-.2-.1-.4,0-.2,0-.3.1-.5,0-.2.3-.3.5-.4.2-.1.6-.1,1,0,0,0,.2,0,.2,0,1.2.2,2.4.4,3.7.6,0,0,.1,0,.2,0,.4,0,.8.2,1,.4.2.2.4.4.5.6,0,.2.1.4.1.5,0,.2,0,.3-.1.3-.2-.2-.4-.3-.6-.2-.2,0-.4.1-.5.3-.2.2-.3.4-.4.7-.1.3-.2.5-.2.8,0,1.6,0,3.2,0,4.9,0,.3,0,.6,0,.9,0,1.6,0,3.2,0,4.9,0,.2,0,.5.2.8.1.3.2.6.4.8.2.2.3.4.5.5.2.1.4.1.6,0Zm-12.8-14.7c0-.2,0-.4-.1-.7,0-.2-.2-.5-.3-.7-.1-.2-.3-.4-.4-.6-.2-.2-.3-.2-.5-.3.2.3.4.7.6,1.1.1.4.2.8.3,1.1,0,0,0,0,0,0,0,0,0,0,0,0,0,3.5,0,7,0,10.6,0,0,0,0,0,0,0,0,0,0,0,0,0,.2,0,.4,0,.5,0,.2,0,.3-.2.5-.1.2-.2.5-.4.7.3,0,.5-.3.7-.7.2-.4.3-.8.3-1.1,0-3.5,0-7,0-10.6Zm6.9,9.7c0-.3,0-.6-.3-1-.2-.4-.5-.8-.9-1.2-.3-.4-.7-.8-1.1-1.1-.4-.3-.7-.6-.9-.7.3.3.6.6.9.9.3.3.6.7.9,1,.3.4.5.7.7,1.1.2.4.3.8.2,1.2,0,.2,0,.5-.2.7.2,0,.3-.1.4-.2.1-.1.2-.3.2-.5Zm-1.6,2.5c-.3-.4-.5-.8-.6-1.2-.2,0-.3-.1-.5-.3,0,.3.1.5.2.7.2.3.5.6.8.8,0,0,0,0,0,0Zm3.4-10.8c0-.2,0-.4-.1-.7,0-.3-.2-.5-.3-.7-.1-.2-.3-.4-.4-.6-.2-.2-.3-.3-.5-.3.2.3.4.7.6,1.1.1.4.2.8.2,1.1,0,0,0,0,0,0,0,2.4,0,4.7,0,7.1,0,0,.2.2.2.3,0,0,.1.2.2.3,0-.1,0-.3,0-.4,0-.8,0-1.6,0-2.4,0-1.6,0-3.2,0-4.8Z"/>
      <path class="cls-2" d="m144.8,51.3c0,.7,0,1.4-.2,2.1-.2.7-.5,1.3-1,1.7-.5.5-1,.8-1.7,1.1-.7.2-1.5.3-2.5.1-.6,0-1.2-.3-1.9-.5-.6-.3-1.2-.6-1.7-1-.5-.4-.9-.8-1.3-1.3-.4-.5-.6-1.1-.7-1.7,0-.5-.1-.9,0-1.4,0-.4.3-.8.5-1.1.3-.3.6-.5,1-.6.4,0,.8,0,1.2,0,.4.1.7.3,1,.7.3.3.5.7.5,1.1-.3,0-.5,0-.7,0-.2.1-.3.3-.4.5,0,.2-.1.4-.1.7,0,.2,0,.5,0,.7,0,.4.2.7.4.9.2.2.5.4.8.6.3.1.6.2.9.2.3,0,.6-.1.8-.3.1-.1.3-.3.4-.5.1-.2.2-.5.2-.8,0-.7,0-1.3-.3-1.9-.3-.5-.6-1-1-1.4-.4-.4-.9-.8-1.5-1.2-.6-.4-1.1-.8-1.6-1.2-.5-.4-1-.9-1.4-1.5-.4-.6-.7-1.3-.8-2.1-.1-.7-.1-1.3,0-1.9.1-.6.4-1.2.7-1.6.4-.5.8-.9,1.4-1.2.6-.3,1.2-.5,2-.5.6,0,1.2,0,1.8.2.6.1,1.2.3,1.8.6.4.2.8.3,1.2.3.4,0,.7-.1,1-.5.3.4.4.8.4,1.2,0,.4-.2.7-.4.8.4.5.6,1,.7,1.6,0,.5.1.9,0,1.4,0,.4-.3.8-.5,1.1-.3.3-.6.5-1,.6-.4,0-.8,0-1.2,0-.4-.1-.7-.4-1-.7-.3-.3-.5-.7-.5-1.1.3,0,.5,0,.7,0,.2,0,.3-.2.4-.4,0-.2.1-.4.2-.7,0-.2,0-.5,0-.7-.1-.6-.4-1-.8-1.3-.4-.3-.8-.4-1.3-.3-.4,0-.8.3-1.1.7-.3.4-.3,1.1-.1,2,.1.5.3,1,.7,1.4.3.4.7.8,1.2,1.2.5.4.9.7,1.4,1.1.5.3,1,.7,1.4,1.2.4.4.8,1,1.1,1.5.3.6.5,1.3.6,2.1Zm-10.2.5c.1.6.4,1.1.7,1.5.4.5.8.8,1.3,1.2-.4-.3-.7-.7-1-1.2-.3-.4-.5-.9-.6-1.4,0-.4,0-.9,0-1.3,0-.4.2-.8.4-1.1-.2,0-.4.2-.5.3-.2.2-.4.5-.4.9,0,.4,0,.7,0,1.1Zm2.5-5.1c0,0,0,0,.1.1,0,0,0,0,.1.1-.5-.5-1-1-1.4-1.5-.4-.6-.7-1.3-.8-2.1-.1-.8,0-1.5.1-2.2.2-.7.6-1.3,1.1-1.8-.5.3-.9.7-1.2,1.1-.3.5-.5,1-.6,1.6,0,.2,0,.4,0,.6,0,.2,0,.4,0,.6.1.8.4,1.4.8,2,.4.5.9,1,1.6,1.5Zm4.7,5.9c0-.5,0-.9,0-1.3-.1-.4-.3-.7-.5-1.1-.2-.3-.5-.6-.8-.9-.3-.3-.6-.5-1-.8.2.2.4.4.6.6.2.2.4.4.5.6.3.5.5,1,.6,1.4,0,.5.1,1,0,1.5,0,.5-.2,1-.5,1.3,0,0,.1,0,.2,0,0,0,.1,0,.2-.1.3-.2.5-.7.6-1.2Zm1-10.8c0-.3-.2-.6-.4-.9-.2-.2-.4-.4-.7-.5.3.4.5.8.6,1.3,0,.3,0,.7,0,1,0,.4-.1.7-.3.9.2,0,.3-.1.4-.2.1-.1.2-.3.2-.5,0-.2,0-.4,0-.6,0-.2,0-.4,0-.6Z"/>
      <path class="cls-2" d="m164.3,49.7c.5-.4,1-.6,1.5-.6.5,0,1,.2,1.4.5.4.3.7.7,1,1.2.2.5.3,1,.1,1.5-.1.5-.4.8-.7,1.1-.4.3-.8.5-1.4.6.4.7.6,1.4.6,2.2,0,.8-.2,1.5-.6,2.1-.4.6-1,1.1-1.7,1.5-.8.4-1.7.5-2.9.3-1.4-.2-2.5-.5-3.4-1.1-.9-.6-1.6-1.2-2.1-2-.5-.8-.8-1.6-1-2.4-.1-.8-.1-1.6,0-2.4.2-.7.5-1.4,1-1.9.5-.5,1.1-.8,1.7-.9-.6-.4-1.1-.9-1.5-1.5-.4-.6-.6-1.3-.6-1.9,0-.7,0-1.3.3-2,.3-.6.7-1.2,1.3-1.6.4-.3.8-.4,1.4-.6.5-.1,1.1-.1,1.6-.1.6,0,1.1.1,1.7.3.6.2,1.1.4,1.6.7.6.3,1.1.8,1.4,1.2.4.5.6,1,.8,1.4.1.4.1.9,0,1.3,0,.5-.2.8-.5,1.1-.3.3-.7.5-1.2.5-.5,0-1.2-.2-2.1-.6.3-.2.4-.5.5-.9,0-.4,0-.8,0-1.1-.1-.4-.3-.7-.6-1-.3-.3-.6-.4-1-.4-.4,0-.8,0-1,.2-.3.2-.5.4-.6.7-.1.3-.2.6-.3,1,0,.4,0,.8.1,1.1.1.4.3.8.6,1,.3.3.6.5,1,.6.4.1.8.2,1.2.2.4,0,.8,0,1.2-.1,0,.1.2.3.2.5,0,.2,0,.5,0,.7,0,.2-.2.4-.4.6-.2.2-.5.2-1,.2-.8,0-1.4,0-1.9.3-.5.3-.8.7-1.1,1.1-.2.5-.3,1-.3,1.6,0,.6.1,1.2.4,1.7.2.5.5,1,1,1.4.4.4.9.7,1.5.8.5.1.9,0,1.2-.1.3-.2.5-.4.6-.8.1-.3.1-.7,0-1.1,0-.4-.2-.8-.4-1.1-.2-.3-.5-.5-.8-.7-.3-.2-.7-.2-1.2,0,0-.8.2-1.3.7-1.6.4-.3.9-.5,1.4-.5.2,0,.3,0,.5,0,.1,0,.3,0,.4,0,.1,0,.3,0,.4,0,.1,0,.3-.1.5-.2.1-.1.2-.3.3-.5,0-.2.1-.4.1-.7,0-.2,0-.4-.2-.6-.1-.2-.4-.3-.7-.4Zm-6.8,8.2c0,0,.2.2.3.2.1,0,.2.1.3.2-.6-.6-1.1-1.3-1.5-2-.3-.7-.5-1.5-.6-2.2,0-.7,0-1.4.2-2.1.2-.7.5-1.2.9-1.6-.4.2-.7.5-.9.8-.2.3-.4.7-.5,1.2-.1.4-.2.9-.2,1.4,0,.5,0,.9.2,1.4.3,1.1.8,2,1.7,2.8Zm-.6-10.2c.3.5.7.9,1.2,1.2,0,0,0,0,0,0-.4-.4-.7-.9-1-1.4-.2-.5-.4-1.1-.4-1.6,0-.5,0-1.1.3-1.6.2-.5.5-1,.9-1.4,0,0-.2,0-.2.1-.4.3-.7.6-.9,1-.2.4-.4.8-.5,1.3,0,.4,0,.8,0,1.2,0,.4.2.8.5,1.2Zm6.6-.2c.2-.2.3-.5.3-.8,0-.3,0-.6,0-.9,0-.3-.2-.6-.4-.8-.2-.3-.4-.4-.7-.6.4.4.6.9.7,1.5,0,.6,0,1.1-.1,1.6,0,0,.1,0,.2,0,0,0,.1,0,.2,0Zm.2,10.6c.3-.1.6-.4.7-.7.1-.3.2-.7.1-1.1,0-.4-.2-.8-.4-1.1-.2-.4-.5-.6-.9-.7.2.3.4.6.6.9.1.3.2.7.3,1,0,.4,0,.7,0,1,0,.3-.2.5-.4.8Zm2.3-6.1c.1,0,.2-.2.3-.4,0-.2.1-.4.1-.6,0-.2,0-.4-.2-.6-.1-.2-.3-.4-.5-.5,0,0,0,0,0,0,0,0,0,0,0,0,0,.1.1.2.1.3.2.3.2.7.2,1.1,0,.4-.2.7-.4,1,0,0,.1,0,.2,0,0,0,.1,0,.2-.1Z"/>
      <path class="cls-2" d="m195.8,44.6c0,.6,0,1.2,0,1.8,0,.6,0,1.2,0,1.7,0,.6-.1,1.1-.4,1.6-.2.4-.6.8-.9,1-.4.2-.8.4-1.3.4-.5,0-.9,0-1.3-.3-.4-.2-.8-.5-1.1-1-.3-.5-.6-1.1-.7-1.8.3.3.6.5.9.5.3,0,.6,0,.8-.2.2-.2.4-.4.6-.7.2-.3.2-.6.2-.9,0-.6-.2-1.1-.5-1.4-.3-.3-.7-.5-1.1-.6-.4,0-.8,0-1.2.2-.4.2-.7.6-.8,1.1-.1.4-.2.8-.2,1.4,0,.5,0,1.1,0,1.8,0,4.9,0,9.8,0,14.7,0,.2,0,.5.2.8,0,.3.2.5.4.8.2.2.3.4.5.5.2,0,.4,0,.6,0,0,0,.1.2.1.3,0,.2,0,.3-.1.5,0,.2-.3.3-.5.4-.2.1-.6.2-1,.1,0,0-.2,0-.2,0-1.2-.1-2.4-.2-3.6-.4,0,0-.1,0-.2,0-.4,0-.8-.2-1-.3-.2-.2-.4-.3-.5-.5,0-.2-.1-.4-.1-.5,0-.2,0-.3.1-.3.2.2.4.3.6.2.2,0,.4-.2.5-.4.2-.2.3-.4.4-.7.1-.3.2-.5.2-.8,0-4.9,0-9.8,0-14.6,0-.7,0-1.3,0-1.8,0-.5,0-1-.2-1.4-.1-.5-.4-.9-.8-1.2-.4-.3-.8-.5-1.2-.5-.4,0-.8,0-1.1.4-.3.3-.5.7-.5,1.3,0,.3,0,.7.2,1,.1.3.3.6.6.8.2.2.5.3.8.4.3,0,.6,0,.9-.3-.1.7-.4,1.3-.7,1.7-.3.4-.7.7-1.1.8-.4.1-.8.1-1.3,0-.5-.1-.9-.3-1.2-.6-.4-.3-.7-.7-.9-1.2-.2-.5-.4-1-.4-1.6,0-.6,0-1.1,0-1.7,0-.6,0-1.2,0-1.8,0-.3,0-.6.1-.8,0-.2.2-.3.3-.4.1,0,.2-.1.4-.1.1,0,.3,0,.5,0,4.9.6,9.8,1.1,14.8,1.4.2,0,.3,0,.5,0,.1,0,.3.1.4.2.1.1.2.3.3.5,0,.2.1.5.1.8Zm-16,3.8c.2.3.5.5.8.6-.3-.3-.6-.7-.8-1.1-.2-.4-.3-.9-.3-1.5,0-.6,0-1.1,0-1.7,0-.6,0-1.2,0-1.8,0-.1,0-.2,0-.4,0-.1,0-.2,0-.3-.1,0-.2,0-.3,0,0,0,0,0,0,.1,0,0,0,.2,0,.2,0,0,0,.2,0,.2,0,0,0,.1,0,.2,0,.6,0,1.1,0,1.7,0,.6,0,1.1,0,1.7,0,.7.2,1.3.7,1.9Zm5.6,16.9c.3-.1.5-.3.7-.7.2-.4.3-.8.3-1.1,0-4.9,0-9.8,0-14.6,0-.7,0-1.3,0-1.8,0-.5,0-1-.2-1.4,0-.4-.3-.7-.5-.9-.2-.3-.5-.4-.8-.6.4.4.6.8.8,1.4.1.5.2,1.1.2,1.7,0,.6,0,1.2,0,1.7,0,4.9,0,9.8,0,14.6h0s0,0,0,0c0,.4-.1.7-.3,1.1,0,.2-.2.5-.3.7Zm7.6-16.9c.3-.2.5-.4.7-.7.2-.3.3-.7.3-1,0-.5-.1-.9-.3-1.2-.2-.3-.5-.5-.8-.6.5.5.7,1.1.7,2,0,0,0,.2,0,.2,0,0,0,.2,0,.2,0,.4-.2.8-.5,1.2Z"/>
      <path class="cls-2" d="m210.4,62.8c0,0,.1.2.2.3,0,.2,0,.3,0,.5,0,.2-.2.3-.4.5-.2.1-.5.2-.9.2,0,0-.2,0-.2,0-1.2,0-2.4,0-3.7,0,0,0-.1,0-.2,0-.4,0-.8,0-1-.2-.3-.1-.5-.3-.6-.5-.1-.2-.2-.4-.3-.5,0-.2,0-.3,0-.3.3.2.5.2.7.1.2,0,.3-.2.4-.4.1-.2.2-.4.2-.7,0-.3,0-.5,0-.8,0-.3-.1-.6-.2-1,0,.4-.3.7-.6.9-.3.3-.7.4-1.3.5,0-.3,0-.6,0-.8,0-.2-.2-.4-.4-.6-.2-.1-.3-.2-.5-.3-.2,0-.4,0-.6,0-.2.1-.3.3-.4.4,0,.2-.1.4-.2.6,0,.2,0,.5,0,.8,0,.3.1.5.2.7.1.2.2.4.4.4.2,0,.4,0,.7-.1,0,0,0,.2,0,.3,0,.2-.1.3-.3.5-.1.2-.3.3-.6.5-.3.1-.6.2-1,.2,0,0-.2,0-.2,0-1.2,0-2.4-.1-3.7-.2,0,0-.1,0-.2,0-.4,0-.7-.1-1-.3-.2-.2-.3-.3-.4-.5,0-.2,0-.3,0-.5,0-.2.1-.3.2-.3,1,.6,1.7,0,2.2-1.7.4-1.6.8-3.2,1.2-4.8,0-.3.2-.6.3-.9.5-1.8.9-3.6,1.4-5.4,0-.2,0-.5,0-.7,0-.2-.1-.4-.3-.5-.1-.1-.3-.2-.5-.2-.2,0-.4,0-.7.2,0,0,0-.2,0-.3,0-.2.1-.3.3-.5.1-.2.3-.3.6-.4.3-.1.6-.2,1-.2,0,0,.2,0,.2,0,.2,0,.5,0,.7,0,0,0,.2,0,.2,0,.9,0,1.8,0,2.7,0,0,0,.1,0,.2,0,.3,0,.5,0,.8,0,0,0,.2,0,.2,0,.4,0,.8,0,1,.2.3.1.5.3.6.5.1.2.2.3.3.5,0,.2,0,.3,0,.3-.3-.2-.5-.2-.7-.2-.2,0-.4,0-.5.2-.1.1-.2.3-.3.5,0,.2,0,.5,0,.7.4,1.8.9,3.6,1.3,5.4,0,.3.1.6.2.9.4,1.6.8,3.2,1.2,4.8.2.9.5,1.5.9,1.8.4.3.8.3,1.3,0Zm-9.7-13.2c0-.4,0-.7-.1-1-.1-.3-.4-.5-.7-.5.2.2.3.5.3.8,0,.3,0,.6,0,.9h0c-.5,1.8-.9,3.6-1.4,5.4-.5,1.9-1,3.8-1.4,5.7,0,.3-.2.6-.3.9-.1.3-.2.6-.4.8.5-.2.9-.8,1.2-1.9.4-1.6.8-3.2,1.2-4.8,0-.3.2-.6.3-.9.5-1.8.9-3.6,1.4-5.4Zm.6,7.7c.6-.1,1.1,0,1.5.1.4.2.8.5,1.1.9-.2-.7-.3-1.5-.5-2.2,0-.3-.1-.6-.2-.9-.2-.9-.4-1.8-.7-2.7-.2.9-.5,1.8-.7,2.7,0,.3-.2.6-.2.9-.1.4-.2.8-.3,1.2Zm1.8,3.3c.2,0,.3-.2.3-.3,0,0,0-.2,0-.2,0,0-.2-.1-.3-.2-.1,0-.2,0-.3-.1,0,0,0,0,0,.1,0,.1.2.2.2.3,0,.1.1.2.1.4Zm1.3-3c.3.2.5.4.6.6-.2-.7-.3-1.5-.5-2.2,0-.3-.1-.6-.2-.9-.4-1.8-.8-3.5-1.2-5.3,0,.3-.2.6-.3.9.5,2.3,1.1,4.6,1.6,6.8Zm.5,5.3c.1,0,.3,0,.4-.2.1-.1.2-.3.2-.5,0-.2,0-.4.1-.6,0-.2,0-.4,0-.6,0-.3-.1-.6-.2-1,0,.2-.2.5-.3.7,0,.3,0,.7,0,1.1,0,.4-.1.8-.3,1.2Z"/>
      <path class="cls-2" d="m223.9,57.7c0,.5,0,1,0,1.6,0,.6,0,1,0,1.4,0,.4-.1.7-.2,1.1-.1.3-.3.7-.5.9-.2.3-.5.5-.9.7-.4.2-.8.3-1.4.3-.6,0-1.2.1-1.8.2-.6,0-1.1,0-1.7.1-.6,0-1.2,0-1.8.1s-1.2,0-1.9.1c0,0-.2,0-.2,0-.4,0-.8,0-1-.2-.2-.1-.4-.3-.5-.5,0-.2-.1-.3-.1-.5,0-.2,0-.3,0-.3.2.2.4.2.7,0,.2,0,.4-.2.5-.5.2-.2.3-.5.4-.8,0-.3.2-.6.2-.8,0-.1,0-.2,0-.3,0-3.4,0-6.8,0-10.3,0-.2,0-.5-.2-.8,0-.3-.2-.5-.4-.7-.2-.2-.3-.3-.5-.4-.2,0-.4,0-.6.1,0,0-.1-.2-.1-.3,0-.2,0-.3.1-.5,0-.2.3-.3.5-.5.2-.1.6-.2,1-.3,0,0,.1,0,.2,0,1.2,0,2.4-.1,3.6-.2,0,0,.2,0,.2,0,.4,0,.8,0,1,.1.2.1.4.3.5.4,0,.2.1.3.1.5,0,.2,0,.3-.1.3-.2-.1-.4-.2-.6,0-.2,0-.4.2-.5.5-.2.2-.3.5-.4.8,0,.3-.2.6-.2.8,0,3.2,0,6.4,0,9.5,0,.7.1,1.3.4,1.8.3.5.6.7,1.1.7.4,0,.8-.2,1.1-.4.3-.3.5-.6.7-.9.2-.3.2-.7.3-1.1,0-.4,0-.7-.1-1-.1-.3-.3-.6-.5-.7-.2-.2-.5-.2-.9-.1.1-.7.4-1.2.9-1.6.5-.4.9-.6,1.5-.6.5,0,1,0,1.4.4.4.3.7.9.8,1.7Zm-9-7.6c0-.2,0-.4-.1-.6,0-.2-.2-.4-.3-.6-.1-.2-.2-.3-.4-.5-.2-.1-.3-.2-.5-.2.3.3.5.6.6,1,.1.4.2.7.2,1.1,0,3.4,0,6.9,0,10.3,0,.1,0,.2,0,.4,0,.2,0,.4,0,.5,0,.2,0,.4-.2.5-.1.3-.2.5-.4.7.3-.1.5-.4.7-.8.2-.4.3-.8.3-1.2,0-.1,0-.2,0-.3,0-3.4,0-6.8,0-10.3Zm6.8,4.2c-.2-.1-.4-.3-.7-.5-.2-.2-.4-.4-.6-.7-.2-.3-.3-.5-.4-.8,0-.3,0-.6,0-1,.1-.3.2-.5.4-.7.2-.2.3-.4.4-.6.1-.2.2-.5.2-.7,0-.3,0-.6-.3-.9,0,0,0-.2,0-.2,0,0,0,0,0,0,0,0,.1,0,.2,0,.2.1.4.3.7.5.2.2.5.4.6.7.2.2.3.5.4.8,0,.3,0,.6,0,1,0,.3-.2.5-.4.7-.2.2-.3.4-.4.6-.1.2-.2.5-.2.7,0,.3,0,.6.3.9,0,0,0,.2,0,.2,0,0,0,0,0,0,0,0-.1,0-.2,0Zm0-4.5c0,.3-.2.5-.4.8-.2.2-.3.5-.4.7-.1.2-.2.4-.2.7,0,.2.1.5.3.8,0-.3,0-.7,0-1,0-.3.2-.6.3-.8.1-.3.2-.5.3-.7,0-.2,0-.4,0-.5Zm-.7,11.8c.4-.3.6-.6.8-1,.2-.4.3-.9.3-1.3,0-.4-.1-.8-.3-1.2-.2-.3-.5-.5-.8-.5.3.3.5.7.6,1.2,0,.5,0,.9,0,1.4,0,.3-.1.5-.2.8,0,.2-.2.5-.4.7Z"/>
      <path class="cls-2" d="m232.7,57.4c.1-.7.4-1.2.9-1.7.5-.4.9-.7,1.5-.8.5,0,1,0,1.4.3.4.3.7.8.8,1.6,0,.3,0,.5,0,.7,0,.2,0,.4,0,.6,0,.2,0,.4,0,.6,0,.2,0,.5,0,.8,0,.3,0,.6-.2.8,0,.2-.2.4-.3.5-.1.1-.2.2-.4.3-.1,0-.3.1-.5.2-2.9.7-5.9,1.2-8.8,1.6,0,0-.2,0-.2,0-.4,0-.8,0-1,0-.2-.1-.4-.2-.5-.4,0-.2-.1-.3-.1-.5,0-.2,0-.3,0-.3.2.1.4.1.7,0,.2-.1.4-.3.5-.5.2-.2.3-.5.4-.8.1-.3.2-.6.2-.8,0,0,0-.2,0-.3,0-1.7,0-3.3,0-5,0-1.7,0-3.3,0-5,0,0,0-.2,0-.3,0-.2,0-.5-.2-.8,0-.3-.2-.5-.4-.7-.2-.2-.3-.3-.5-.4-.2,0-.4,0-.7.2,0,0,0-.1,0-.3,0-.2,0-.4.1-.5,0-.2.3-.4.5-.6.2-.2.6-.3,1-.4,0,0,.2,0,.2,0,2.9-.4,5.9-1,8.8-1.6.2,0,.3,0,.5,0,.1,0,.3,0,.4.1.1,0,.2.2.3.4,0,.2.1.4.1.8,0,.3,0,.5,0,.8,0,.2,0,.4,0,.6,0,.2,0,.4,0,.6,0,.2,0,.5,0,.7,0,.8-.3,1.5-.8,1.9-.4.5-.9.8-1.4.9-.5.1-1,0-1.5-.2-.5-.2-.7-.7-.8-1.3.3,0,.5,0,.7-.2.2-.1.4-.2.5-.4.1-.2.2-.3.3-.5,0-.2,0-.4,0-.6,0-.4-.3-.7-.6-.9-.4-.2-.7-.2-1.1-.1-.4.1-.8.4-1.1.9-.3.5-.5,1.2-.5,2.1,0,.8,0,1.6,0,2.4,0,.5,0,1.1,0,1.6.2-.4.4-.7.6-.9.2-.2.5-.3.8-.4.3,0,.6-.1.9-.1.3,0,.6,0,.9,0,.3,0,.5,0,.8-.2.2,0,.4-.2.6-.5.1.3.2.6.2.9,0,.3,0,.6-.2.9-.1.3-.3.6-.5.8-.2.2-.5.4-.8.5-.3,0-.6.1-.8.1-.3,0-.6,0-.8,0-.3,0-.5.1-.8.3-.2.1-.5.4-.7.8,0,.7,0,1.4,0,2.1,0,.9.2,1.6.5,1.9.3.4.7.5,1.1.4.4,0,.8-.2,1.2-.6.4-.3.6-.7.6-1.1,0-.2,0-.4,0-.6,0-.2-.1-.3-.3-.4-.1-.1-.3-.2-.5-.2-.2,0-.4,0-.7.1Zm-4.5-3.5c0-1.7,0-3.3,0-5,0,0,0-.2,0-.3,0-.2,0-.4-.1-.6,0-.2-.2-.4-.3-.6-.1-.2-.2-.3-.4-.4-.2-.1-.3-.2-.5-.1.2.2.4.6.6.9.1.4.2.7.3,1,0,.1,0,.2,0,.3,0,1.7,0,3.3,0,5,0,1.7,0,3.3,0,5,0,.1,0,.2,0,.3,0,.2,0,.4,0,.6,0,.2,0,.4-.2.6-.1.3-.2.5-.4.8.3-.2.5-.5.7-.9.2-.4.3-.8.3-1.2,0,0,0-.2,0-.3,0-1.7,0-3.3,0-5Zm7.1-6.8c0-.3-.2-.5-.4-.7-.2-.2-.5-.3-.8-.3.4.3.6.7.7,1.2,0,.5,0,.9-.2,1.4.3-.2.5-.4.6-.6.1-.3.1-.5,0-.8Zm0,11c0-.3,0-.6-.1-.8-.1-.2-.4-.4-.7-.3.4.3.5.9.4,1.5,0,.1,0,.2,0,.3,0,.1,0,.2-.1.3,0,.1-.1.3-.2.4.2-.2.4-.4.5-.6.1-.2.2-.5.3-.7Z"/>
      <path class="cls-2" d="m249.5,51.9c0,.7,0,1.4-.2,2.2-.2.8-.5,1.5-1,2.3-.5.7-1,1.4-1.7,2-.7.6-1.5,1.1-2.5,1.4-.6.2-1.2.3-1.9.3-.6,0-1.2,0-1.7-.2-.5-.2-.9-.4-1.3-.8-.4-.4-.6-.8-.7-1.3,0-.4-.1-.9,0-1.3,0-.5.3-.9.5-1.4.3-.4.6-.8,1-1,.4-.2.8-.4,1.2-.4.4,0,.7,0,1,.2.3.2.5.5.5.9-.3,0-.5.2-.7.4-.2.2-.3.4-.4.6,0,.2-.1.5-.1.7,0,.2,0,.5,0,.6,0,.3.2.6.4.7.2.1.5.2.8.2.3,0,.6-.1.9-.3.3-.2.6-.4.8-.7.1-.2.3-.4.4-.7.1-.3.2-.6.2-.9,0-.8,0-1.3-.3-1.7-.3-.4-.6-.7-1-.9-.4-.2-.9-.4-1.5-.5-.6-.1-1.1-.3-1.6-.5-.5-.2-1-.5-1.4-.9-.4-.4-.7-1-.8-1.8-.1-.6-.1-1.3,0-1.9.1-.7.4-1.3.7-2,.4-.6.8-1.2,1.4-1.8.6-.6,1.2-1,2-1.4.6-.3,1.2-.6,1.8-.7.6-.2,1.2-.3,1.8-.3.4,0,.8-.2,1.2-.4.4-.2.7-.5,1-1,.3.3.4.6.4,1,0,.4-.2.8-.4,1.1.4.3.6.7.7,1.3,0,.4.1.9,0,1.3,0,.5-.3,1-.5,1.4-.3.5-.6.8-1,1.1-.4.3-.8.5-1.2.5-.4,0-.7,0-1-.2-.3-.2-.5-.5-.5-.9.3,0,.5-.2.7-.4.2-.2.3-.4.4-.6,0-.2.1-.5.2-.7,0-.2,0-.5,0-.6-.1-.5-.4-.8-.8-.8-.4,0-.8,0-1.3.3-.4.3-.8.7-1.1,1.2-.3.6-.3,1.2-.1,2,.1.5.3.9.7,1.1.3.2.7.4,1.2.6.5.1.9.3,1.4.3.5,0,1,.2,1.4.5.4.2.8.5,1.1.9.3.4.5,1,.6,1.8Zm-10.2,5.5c.1.5.3.9.7,1.2.4.3.8.5,1.3.6-.4-.2-.7-.4-1-.7-.3-.3-.5-.7-.6-1.2,0-.4,0-.8,0-1.3,0-.4.2-.9.4-1.3-.2.2-.4.3-.5.6-.2.3-.4.7-.4,1.1,0,.4,0,.7,0,1.1Zm2.5-6.2c0,0,0,0,.1,0,0,0,0,0,.1,0-.5-.2-1-.5-1.4-.9-.4-.4-.7-1-.8-1.8-.1-.7,0-1.5.1-2.3.2-.8.6-1.6,1.1-2.3-.5.5-.9,1.1-1.2,1.7-.3.6-.5,1.2-.6,1.9,0,.2,0,.4,0,.6,0,.2,0,.4,0,.6.1.7.4,1.2.8,1.6.4.4.9.6,1.6.8Zm4.7,3.6c0-.5,0-.9,0-1.3-.1-.3-.3-.6-.5-.8-.2-.2-.5-.4-.8-.5-.3-.1-.6-.2-1-.3.2,0,.4.2.6.3.2.1.4.2.5.4.3.3.5.7.6,1.1,0,.4.1.9,0,1.4,0,.6-.2,1.1-.5,1.6,0,0,.1-.1.2-.2,0,0,.1-.1.2-.2.3-.4.5-.9.6-1.6Zm1-11.3c0-.3-.2-.5-.4-.7-.2-.1-.4-.2-.7-.2.3.2.5.5.6,1,0,.3.1.6,0,1,0,.4-.1.7-.3,1.1.2-.1.3-.3.4-.5.1-.2.2-.4.2-.6,0-.2,0-.4,0-.6,0-.2,0-.4,0-.5Z"/>
    </g>
    <path class="cls-1" d="m239.2,28.4c-3.8.7-5.9,7.3,1.5,8.2-2.7-1.8-3.7-4.7-1.5-8.2h0Zm-23.5,2.4c-14.8,8.3-30.7,10.6-45.6,2.9-2.2-1.1-6-4.6-6-5.4l.5.4c1.7,1.3,3.5,2.4,5.3,3.4-.2-1.1.7-2.1,2.8-.8,2.2,1.4,2.8,3,5.6,4.3,11.6,3.3,23.5,1.1,34.8-4.9l-16.7-1h0c0,0-.6,0-.6,0h-.6s0-.1,0-.1h0s.1-.6.1-.6v-.5c0-.5-.2-1-.3-1.5-.3-.8-.8-1.5-1.4-2.1-.5-.5-1.2-1-1.9-1.2-1.4-.5-2.7,0-3.8.9-1,.8-1.5,2.3-1.3,3.6.3,2.1,2.3,3,4.1,3.5-2.6.6-5.1-1.2-5.4-3.3-.2-1.8.4-3.7,1.8-4.8,2.5-2,5.3-1.8,7.5.4.7.7,1.3,1.6,1.7,2.6.2.6.4,1.3.5,1.9l18.9,1.1c1.1-.6,2.2-1.3,3.4-2,5.5-3.5,12.4-6.1,18.9-4.3,2.2.6,4.3,1.7,5.9,3.3,1.4,1.4,2.4,3.1,2.8,5,.6,2.9,0,5.8-2.5,7.6-1.4,1-3.1,1.5-4.7,1.5-2.3,0-4.8-.8-6.2-2.6-1.5-1.8-1.6-4-.9-6.1l-16.2-.9h0Zm-25-4.8c-.9,0-1.7.6-1.7,1.5s.6,1.7,1.5,1.7,1.7-.6,1.7-1.5-.6-1.7-1.5-1.7h0Zm22-1.5c-.7,0-1.4.5-1.4,1.2s.5,1.4,1.2,1.4,1.4-.5,1.4-1.2-.5-1.4-1.2-1.4h0Zm-4.4.2c-.6,0-1.1.4-1.2,1s.4,1.1,1,1.2,1.1-.4,1.2-1-.4-1.1-1-1.2h0Zm-3.7,0c-.5,0-.9.3-.9.8s.3.9.8.9.9-.3.9-.8-.3-.9-.8-.9h0Zm-3.3,0c-.4,0-.8.3-.8.7s.3.8.7.8.8-.3.8-.7-.3-.8-.7-.8h0Zm19,16.4c-1.8.2-3.6-.4-4.4-2.2-.5-1.1-.5-2.3-.1-3.4.5-1.2,1.4-2.2,2.6-2.7.2,0,.3-.1.5-.2,2.8-.8,5.9,1.1,7.9,2.9,1.9,1.6,3,3.8,2.5,5.4l-.3-.6c-.7-1.4-1.9-2.7-3.1-3.8-1.6-1.4-4.4-3.2-6.6-2.6-.1,0-.2,0-.4.1-.9.3-1.5,1-1.9,1.9-.3.7-.3,1.6,0,2.3.6,1.2,1.8,1.6,3.1,1.4,1.4-.3,2.1-2.4-.6-2.9,1.5-1.6,4.2-1,4.2,1.1,0,1.8-1.4,2.9-3.4,3.1h0Zm-14.2-4.2c2.4-.2,4.7-.7,6.5-2.4.8,2.6-4.1,4.5-6.5,2.4h0Zm11.6-7.5l16.1.9-.4.9c-.8,1.9-1,3.9.4,5.6,1.2,1.5,3.3,2.2,5.2,2.1,1.4,0,2.8-.4,4-1.2,2.1-1.5,2.4-3.9,2-6.3-.3-1.6-1.2-3.1-2.4-4.3-1.5-1.4-3.3-2.4-5.3-3-6.1-1.7-12.7.9-17.8,4.2-.5.4-1.1.7-1.7,1h0Z"/>
    <g>
      <path class="cls-1" d="m104,28.1c5.6.2,11.3.5,16.9,1,5.1.4,10.2.9,15.2,1.7,7,1,17.8,4.1,22.6,8.4-11.3-5.7-18-6.4-22.8-7.1-5-.7-10.1-1.3-15.1-1.7-5.6-.4-11.2-.8-16.8-1-10.5-.4-21-.6-31.5-.7-2.5,0-17.1.3-19.7-1.4h.7c2.4,0,4.8,0,7.2,0,4,0,7.9,0,11.9,0,4.1,0,8.1,0,12.2.1,6.4.1,12.9.3,19.3.5h0Z"/>
      <path class="cls-1" d="m84.7,27.6c-.9,0-1.8,0-2.7,0-4-.6-7.9-1.3-11.8-2.3-6.7-1.6-20.7-5.7-22.7-13.4-.5-1.8-.2-3.6.5-5.3,1.4-3.6,4.4-6,8.3-6.4,3.2-.4,6.8.8,8.9,3.3.7.9,1.3,1.9,1.6,3,.8,3-.6,6.5-3.4,7.9-1.9,1-4.1.9-6,0-1.6-.8-3-2.3-3.1-4.2-.3-4.6,6.8-5.6,7.6-1.8.3,1.4-.7,3.4-2,3.2,1.8-4.4-5.1-5.4-4.9-1.4,0,1.6,1.4,2.9,2.8,3.6,1.7.9,3.7.9,5.4,0,2.5-1.3,3.8-4.4,3.1-7.2-.3-1-.8-2-1.5-2.8-2-2.4-5.3-3.4-8.3-3.1-3.6.4-6.4,2.7-7.7,6-.6,1.6-.9,3.2-.4,4.9,1.9,7.4,15.8,11.4,22.2,12.9,4.6,1.1,9.3,2,14,2.6,1.2.2,2.4.3,3.6.4-1.1,0-2.2,0-3.3,0h0Z"/>
      <path class="cls-1" d="m64.1,23c-.6-.8.3-2.2,2.4-1.3,2.2,1,6,3.1,10.2,4.4-2.2-.4-4.4-.9-6.6-1.4-1.6-.4-3.7-.9-6-1.7h0Z"/>
      <path class="cls-1" d="m148.1,33.8c4.4.3,7.9-2.2,9-5.9,2.2,1.1,1.6,8.6-5.1,7.8-1.2-.7-2.5-1.3-3.9-1.9h0Z"/>
      <path class="cls-1" d="m69.9,13.1c-1-.2-1.9.5-2.1,1.5-.2,1,.5,1.9,1.5,2.1,1,.2,1.9-.5,2.1-1.5.2-1-.5-1.9-1.5-2.1h0Z"/>
      <path class="cls-1" d="m73.4,16.8c-.8-.1-1.5.4-1.7,1.2s.4,1.5,1.2,1.7c.8.1,1.5-.4,1.7-1.2.1-.8-.4-1.5-1.2-1.7h0Z"/>
      <path class="cls-1" d="m53.6,21.4c-6.8-1.6-11.8-7.5-10.9-13.4.5-3.5,3.2-4.5,2.4-2.4-1.9,4.5.6,12.6,8.5,15.8h0Z"/>
      <path class="cls-1" d="m115.7,22.2c0-.8-5.7-4.6-7-5.7-2.9-2.4-4.2.5-1.5,1.9,1.7.9,8.5,3.8,8.5,3.8h0Z"/>
      <path class="cls-1" d="m116.7,19.8c.4-.7-2-4.7-2.7-6.3-1.5-3.5-3.9-1.5-2.2,1,1.1,1.5,4.8,5.3,4.8,5.3h0Z"/>
      <path class="cls-1" d="m136.1,31.9c-3.5-.2-7.5-.9-10.5-2.9-2.7-1.8-4.6-4.9-4.7-8.1-.3-8.2,11-12.4,16.4-7,2.2,2.2,2.6,6.2,1,8.9-3.3,5.4-12.3,2.5-9.8-4.7,5.1,6.5,11.7.6,7.9-3.2-4.4-4.4-13.9-1.2-14.1,5.6,0,2.2.9,4.5,2.6,6.2.5.5,1,.9,1.6,1.3,2.8,1.8,6.5,2.5,9.8,2.7,4.1.2,8.4-.4,12.3-1.4,1.7-.5,3.4-1,5.1-1.7l.6-.2c-4,4.1-13.9,4.9-18.1,4.7h0Z"/>
      <path class="cls-1" d="m50.3,29.3c.2-1-1-3.4-2.4-4.9-3.1-3.5-5.5.4-2.5,2.7,1.9,1.4,4.9,2.3,4.9,2.2h0Z"/>
    </g>
    <path class="cls-1" d="m171.6,18c2.9-.2,4.7,2.5,4.7,2.5.1-3.5-4.4-3.1-4.7-2.5h0Zm-4.1-1.6c-2.6.5-5.3,1.2-7.8,1.9h-.3c0-.4-.5-.7-1-.6-1.5.2-4.9,2.5-7,3.1-.3,0-.5.2-.7.3-.5.2-1,.3-1.5.5-.9.3-1.7.6-2.6.9,2.2-2,3.3-5.2,2.5-8-.5-1.7-2.6-4-5.7-3.6h.4c2.1.5,4,1.7,4.7,3.9.1.5.2,1,.2,1.5-1.2-1.5-2.8-.3-2.2,0,1.3.8,1.5,2.6,1.2,3.7-1.6,2.8-3.6,3.7-4.4,4.1h.3c.3,0,.6-.1.8-.2.4-.1.8-.2,1.3-.4,1.3-.4,2.5-.8,3.8-1.3,3.5-1.2,7-2.3,10.5-3.3,2.6-.7,5.2-1.4,7.8-1.9,2-.4,4.3-.7,6.3-.5,5.9.6,3.9,8.8-1.1,5.4,1.1,4,7.4,2.8,6.3-2-.4-2-2.2-3.8-5.2-4.1-2.1-.2-4.5.1-6.5.5h0Zm-.9,3.2c-5.3-.3-17.7,5.5-13.9,4.5,7.6-2.1,11.7-2.1,14-1.8,3.3.4,2.8-2.5,0-2.6h0Zm-2,5.1c-3.4-1.1-12.4.8-9.8.8,6.7,0,9.2,1.1,10.2,1.7.9.6,3.1-1.4-.5-2.5h0Z"/>
    <path class="cls-1" d="m77.8,22.7c2.8-.1,5.5-.7,8.2-1.6.7-.2,1.5-.6,2.3-.9,2-.2,3.8-.2,5-.9.5-.3.6-.9.3-1.2,2.1-.7,4.3-1.2,6.3-.9,1.2.2,2.3.6,3.2,1.4,1.4,1.2,2,3.2,1.3,5-1.2,3.2-6.7,3.6-8.2.8-.4-.7-.5-1.6-.2-2.4.4-.8,1.4-1.2,2.3-1.2,2.5.2.7,3.8-.8,1.6-.7,2.4,2.1,2.9,3,1.2.5-.8.4-2-.7-2.9-1.4-1.1-3.7-.6-4.5,1-.5,1-.3,2.1.2,3,1.8,3.3,8,2.9,9.4-.9.8-2,.1-4.3-1.5-5.8-1-.9-2.2-1.4-3.5-1.5-4.6-.7-9.8,2.4-14.1,3.9-3.9,1.3-7.8,1.9-11.9,1.4h-.3c.4.5,3,.9,4.3.9h0Z"/>
  </g>
</svg>