<?xml version="1.0" encoding="UTF-8"?>
<svg id="Layer_2" data-name="Layer 2" xmlns="http://www.w3.org/2000/svg" width="100%" height="100%" preserveAspectRatio="none" viewBox="0 0 64.2 67.8">
  <defs>
    <style>
      .cls-1 {
        fill: #1f1f1f;
        fill-rule: evenodd;
      }
    </style>
  </defs>
  <path class="cls-1" d="m12.8,62c-.6.6-1.3,1-2.1,1.2-1.1.3-2.2.2-3.3,0-.4,0-.8-.2-1.2-.4-.5-.2-2.8-1.3-3.2-.8,1.4.3,2.7,1.2,4.3,1.6,1.1.2,2.3.3,3.5,0,.9-.2,1.6-.7,2.3-1.3.5-.5.9-1.2,1-1.9,0-.5,0-1.1-.1-1.6.5-.3,1-.7,1.5-.9.7-.4,1.4-.6,2.2-.6.6,0,1.1.3,1.5.7.4.3.7.8.8,1.3.1.4.1.9,0,1.4,0,.2-.2.4-.4.5-.5.5-1.4.6-2,.3-.8-.3-.6-2.5,1.1-2.2-1.2-1.8-3.1-.4-2.6,1.1.2.7.7,1.2,1.4,1.5.8.3,1.8.2,2.4-.4.2-.2.4-.4.5-.7.2-.5.3-1.1.1-1.6-.1-.6-.5-1.1-.9-1.5-.5-.4-1.1-.7-1.8-.8-.8,0-1.7.2-2.4.6-.5.3-1,.6-1.5.9-.4-.7-1.6-1.3-2.6-.8h.2c.8,0,1.6.3,2,1h0c-.8.6-1.7,1.2-2.5,1.7,0,0,.1-.2.2-.2.2-.4.3-.8.3-1.3,0-.8-.5-1.5-1.1-2-.4-.3-.9-.4-1.4-.5.2-.7.4-1.3.5-2,.4-.4.6-1,.4-1.6,2.1-9.2,1.9-18.3-.4-27.1-.2-.9-.5-1.8-.8-2.6.2-.3.4-.7.5-1.2.2-.8.3-1.6.2-2.4l-.7-1.9c.2-1.5.5-2.9.9-4.3.4-1.1.8-2.2,1.3-3.2.4-.9.9-1.8,1.3-2.7.4-.8.7-1.7.8-2.6,0-.1,0-.3,0-.4h38.4c0,.1,0,.3,0,.4.1.9.4,1.7.8,2.6.4.9.8,1.8,1.3,2.7.5,1.1.9,2.1,1.3,3.2.4,1.2.7,2.4.8,3.6l-1,2.7c0,.8,0,1.6.2,2.4.1.4.3.8.5,1.2-.3.9-.5,1.8-.8,2.7-2.5,9.7-2.4,20,.5,30.6-.4,0-.8.2-1.1.4-.7.5-1.1,1.2-1.1,2,0,.5,0,.9.3,1.3,0,0,.1.2.2.2-.9-.5-1.7-1.1-2.5-1.7h0c.4-.7,1.2-1,2-1h.2c-1-.5-2.2.1-2.6.8-.5-.3-1-.6-1.5-.9-.7-.4-1.6-.7-2.4-.6-.7,0-1.3.3-1.8.8-.4.4-.8.9-.9,1.5-.1.5-.1,1.1.1,1.6.1.3.3.5.5.7.7.6,1.6.7,2.4.4.7-.3,1.2-.8,1.4-1.5.4-1.4-1.5-2.8-2.6-1.1,1.7-.3,1.9,1.9,1.1,2.2-.7.2-1.5.1-2-.3-.2-.1-.3-.3-.4-.5-.2-.4-.2-.9,0-1.4.1-.5.4-1,.8-1.3.4-.4,1-.6,1.5-.7.8,0,1.5.2,2.2.6.5.3,1,.6,1.5.9-.2.5-.2,1-.1,1.6.1.7.5,1.4,1,1.9.6.6,1.4,1.1,2.3,1.3,1.1.3,2.3.2,3.5,0,1.6-.3,2.9-1.3,4.3-1.6-.4-.4-2.7.7-3.2.8-.4.1-.8.3-1.2.4-1.1.2-2.2.3-3.3,0-.8-.2-1.5-.6-2.1-1.2-.4-.5-.8-1.1-.9-1.7,0-.4,0-.9,0-1.3.9.6,1.8,1.3,2.8,1.8.3.1.7.3,1.1.4-.2.2-.1.6.3.8.8.3,2.4-.6,3.1-1.1.7-.3,1.3-.6,1.8-1,1-.6,1.9-1.3,2.8-2.1.4-.4,1-.9,1.8-1.4-.5,0-1.6.7-2,1.1-.9.8-1.8,1.5-2.8,2.1-1.1.7-2.5,1.4-3.8,1.4-.9,0-1.8-.5-2.2-1.2-.2-.3-.3-.7-.3-1.1,0-.7.4-1.3,1-1.7.5-.4,1.1-.5,1.7-.4h0s0,0,0,0c.2,0,.4,0,.6.1.6.2,1,.6,1.2,1.1,0,0,0,.1,0,.2,0,0,0,0-.1,0-.3,0-.6,0-.9-.1h-.2c0,.2.4.4,1.1.5,0,0,.1,0,.2,0,0,.3,0,.6-.3.8-.3.4-.9.5-1.4.5-.2,0-.4,0-.6-.2-.8-.5,0-1.3.6-1.1-.4-1.2-1.6-.6-1.5.3,0,.2.1.5.3.7.3.4.7.6,1.2.7.6,0,1.3-.1,1.7-.6.2-.3.3-.7.3-1,1,0,2.8-.6,2.6-1.8v.2c-.4.9-1.8,1.3-2.7,1.3,0,0,0-.2,0-.3-.2-.7-.8-1.1-1.5-1.4-.2,0-.3,0-.5,0,0-.5,0-1,0-1.5,0,0,.2,0,.3,0,1.6-.2,2.2-1.8,2.4-4.3,0-.8,0-1.9,0-2.7v-11.4c-1.9,0-.8,2.6-.6,3.5v7.8c0,.9.1,2.1-.1,3.3-.2,1.2-1.1,2.1-2.1,2,0-2.6,0-5.2.2-7.9.1-2.8.3-5.6.5-8.4.3-3.9.7-7.9,1.1-11.8h0c0,0,0-.1,0-.1-.3-.2-1-.6-1.5-1.2v-1.5c.3-.9.6-1.8,1-2.7h0c0,0-.6-6.3-.6-6.3h-.4s0-2.9,0-2.9c.2,0,.3-.3.3-.5,0-.3-.2-.5-.5-.5-.3,0-.5.2-.5.5,0,.2.1.4.3.4v4.2c-.1-.5-.3-1.1-.5-1.5-.4-1.1-.8-2.2-1.3-3.3-.4-.9-.9-1.8-1.3-2.7-.2-.5-.4-1-.5-1.4.3.5.7,1,1.3,1.5.1,0,.2.1.4.2,0,0,0,.1,0,.2,0,.2.2.4.4.4.2,0,.3,0,.3-.2.4.2.7.3,1,.3,0,.2.3.4.5.4.3,0,.6-.2.6-.5s-.2-.6-.5-.6c-.2,0-.4,0-.5.2-.5-.1-1.2-.3-1.8-.8,0,0,0,0-.1-.1,0,0,.2-.2.2-.3,0-.2-.2-.4-.4-.4-.1,0-.2,0-.3.2-.7-.8-1-1.7-1.1-2.1v-.2h-.2c0-.3,0-.5,0-.8,0-.8.5-1.5,1.1-2,.6-.4,1.4-.6,2.1-.5,1.1.1,1.8.9,2,1.9.2.8,0,1.6-.4,2.2,0,.1-.2.2-.3.3-1.3,1.1-3.6-.7-2.4-2.1.3-.4,1.4,0,1,1.3,1.6.1,1.4-1.4.8-1.9-.3-.2-.8-.4-1.2-.3-.2,0-.4,0-.5.2-.2,0-.3.2-.5.4-1,1.1-.3,2.6.9,3.1.2.1.5.2.8.2.5,0,1-.1,1.4-.4,1.1-.9,1.3-2.6.7-3.9-.5-.9-1.2-1.4-2.2-1.5-.8-.1-1.7,0-2.4.6-.8.5-1.3,1.4-1.4,2.3,0,.3,0,.6,0,.9H13c0-.3,0-.6,0-.9,0-1-.6-1.8-1.4-2.3C10.9.1,10,0,9.2,0c-1,.1-1.8.7-2.2,1.5-.6,1.2-.5,3,.7,3.9.4.3.9.5,1.4.4.3,0,.5,0,.8-.2,1.3-.5,1.9-2,.9-3.1-.1-.2-.3-.3-.5-.4-.2,0-.3-.1-.5-.2-.5,0-.9,0-1.2.3-.6.4-.8,2,.8,1.9-.4-1.3.7-1.7,1-1.3,1.2,1.4-1.1,3.2-2.4,2.1-.1,0-.2-.2-.3-.3-.5-.6-.6-1.5-.4-2.2.2-1,1-1.7,2-1.9.7,0,1.5,0,2.1.5.7.5,1.1,1.1,1.1,2,0,.3,0,.5,0,.8h-.2v.2c-.1.4-.4,1.3-1.1,2.1,0,0-.2-.1-.3-.1-.2,0-.4.2-.4.4,0,.1,0,.2.1.3,0,0,0,0-.1.1-.6.5-1.3.7-1.8.8-.1-.2-.3-.3-.5-.2-.3,0-.6.3-.5.6s.3.6.6.5c.2,0,.4-.2.5-.4.3,0,.7-.2,1.1-.4,0,.1.2.2.3.2.2,0,.4-.2.4-.4,0,0,0-.2,0-.2.1,0,.2-.1.3-.2.7-.5,1.1-1.1,1.4-1.6-.2.5-.4,1.1-.6,1.6-.4.9-.8,1.8-1.3,2.7-.5,1.1-1,2.2-1.3,3.3-.1.5-.3,1-.5,1.5v-4.2c.2,0,.3-.3.3-.4,0-.3-.2-.5-.5-.5-.3,0-.5.2-.5.5,0,.2.1.4.3.5v5.9s-.3,0-.3,0l.2.6c0,.1,0,.3,0,.4v4.2c-.3-.7-.5-1.4-.8-2.1l.6-6.1h-.6c0,0-.6,6.2-.6,6.2h0c.5,1.3.9,2.6,1.3,3.8-.7.9-1.5,1.4-1.9,1.6h0s0,.1,0,.1c.8,6.6,1.3,13.4,1.6,20,.1,2.7.1,5.4.2,8.1-.8-.2-1.6-1-1.7-2-.2-1.1-.2-2.4-.2-3.3v-7.8c.4-.9,1.5-3.5-.4-3.5v11.4c0,.8,0,1.9,0,2.7.2,2.5.8,4.1,2.3,4.3,0,.5,0,1.1,0,1.6,0,0-.2,0-.3,0-.7.2-1.2.7-1.5,1.4,0,0,0,.2,0,.3-.9,0-2.3-.4-2.6-1.3v-.2c-.2,1.2,1.6,1.8,2.6,1.8,0,.4,0,.7.3,1,.4.5,1.1.7,1.7.6.5,0,.9-.3,1.2-.7.1-.2.2-.4.3-.7.1-.9-1-1.5-1.5-.3.6-.2,1.4.6.6,1.1-.2.1-.4.2-.6.2-.5,0-1.1,0-1.4-.5-.2-.2-.3-.5-.3-.8,0,0,.1,0,.2,0,.6,0,1-.2,1.1-.5h-.2c-.3.1-.6.1-.9.1,0,0,0,0-.1,0,0,0,0-.1,0-.2.2-.6.7-1,1.2-1.1.8-.2,1.6-.2,2.3.3.6.4,1,1,1,1.7,0,.4,0,.8-.3,1.1-.4.8-1.3,1.2-2.2,1.2-1.3,0-2.7-.7-3.8-1.4-1-.6-1.9-1.4-2.8-2.1-.4-.3-1.5-1.1-2-1.1.9.5,1.4,1.1,1.8,1.4.9.7,1.8,1.5,2.8,2.1.5.3,1.2.7,1.8,1,.7.5,2.3,1.4,3.1,1.1.4-.2.5-.6.3-.8.4-.1.9-.3,1.1-.4,1-.5,1.8-1.2,2.8-1.8.1.4.2.8,0,1.3-.1.7-.4,1.3-.9,1.7ZM55.1,21.8c-.2-.7-.3-1.5-.2-2.3l.8-2.2c0,.3,0,.5,0,.8v3.5c0,.3-.2.7-.3,1-.1-.3-.3-.6-.4-.9Zm.7,34.5c0,0-.1,0-.2,0-.2-.6-.3-1.2-.5-1.8.2.1.4.2.6.3,0,.5,0,1,0,1.5Zm1.8-31.1c-.5,3.9-.8,7.8-1.1,11.7-.2,2.8-.4,5.6-.5,8.4-.1,2.6-.1,5.2-.2,7.8-.4,0-.8-.3-1.1-.7-1.9-9.2-1.8-18.1.4-26.6.2-.7.4-1.4.6-2.2,0,0,0,0,0,0v3.8s0,0,0,0c0,.1-.2.2-.2.4l.2.4c0,.1.2.2.2.4l.2-.4c0-.1.2-.2.2-.4l-.2-.4h0s0-3.4,0-3.4c.5.5,1,.8,1.3,1Zm-1-5.7c-.1.3-.2.7-.4,1.1v-3.2c0-.2,0-.4,0-.6v-1.2s.4,4,.4,4Zm-47.5,0c0,.8,0,1.6-.2,2.3,0,.3-.2.6-.4.8v-4.4s0,0,0,0l.5,1.4Zm-1.1,25.6c-.3-6.6-.8-13.4-1.6-20,.4-.2,1.1-.7,1.7-1.4v3.8s0,0,0,0l-.2.4c0,.1.2.2.2.4l.2.4c0-.1.2-.2.2-.4l.2-.4c0-.1-.2-.2-.2-.4h0s0-2.7,0-2.7c0,.3.2.6.3.9,2.3,8.8,2.4,17.9.3,27.1-.3.2-.6.3-1,.3,0-2.7,0-5.4-.2-8.1Zm.2,9.7c.2,0,.3,0,.5,0-.1.5-.3,1.1-.4,1.6,0,0,0,0,0,0,0-.5,0-1,0-1.5Z"/>
  <path class="cls-1" d="m14,57c-.1.3-.2.8,0,1,0,0,.4-.3.7-.7.4-.6-.3-1.1-.6-.3Z"/>
  <path class="cls-1" d="m1.9,56.5c0,.2.2.3.3.3s.3-.2.3-.3-.2-.3-.3-.3-.3.2-.3.3Z"/>
  <path class="cls-1" d="m50.3,58c0-.2,0-.6,0-1-.3-.8-.9-.3-.6.3.2.3.7.7.7.7Z"/>
  <path class="cls-1" d="m61.6,56.5c0,.2.2.3.3.3s.3-.2.3-.3-.2-.3-.3-.3-.3.2-.3.3Z"/>
  <path class="cls-1" d="m18.4,66.3c.2,0,.2-.3.2-.5,0-.2-.3-.2-.5-.2-.2,0-.2.3-.2.5,0,.2.3.2.5.2Z"/>
  <path class="cls-1" d="m16.8,65.6c.1.2.4.3.6.2.2-.1.3-.4.2-.6-.1-.2-.4-.3-.6-.2-.2.1-.3.4-.2.6Z"/>
  <path class="cls-1" d="m19.4,66.6c0,0,.1-.2,0-.3s-.2-.1-.3,0c0,0-.1.2,0,.3,0,0,.2.1.3,0Z"/>
  <path class="cls-1" d="m16.4,61.7c-.5-.2-1.1-.2-1.6,0-.4.2-.8.5-1,.9-.3.7-.3,1.5,0,2.2.1.5.4.9.7,1.3,1.1,1.3,2.9,1.9,4.6,1.7,2.2-.3,4-1.5,6-2.2.3-.1.6-.2.9-.2h.2c-.3-.4-1.9.2-2.3.4-1.5.6-3,1.4-4.5,1.7-1.8,0-2.6-.9-3.1-1.3-.3-.3-1-.1-.8.4-.2-.2-.4-.4-.6-.6-.3-.4-.5-.8-.6-1.2-.2-.6-.3-1.3,0-1.9.2-.3.5-.6.8-.7.4-.2,1-.2,1.4,0,.6.3.9.9.7,1.4-.2.9-1.7.9-1.7-.6-.9.4-.7,1.7.3,1.9.4,0,.8,0,1.1-.3,1-.8.8-2.2-.3-2.7Z"/>
  <path class="cls-1" d="m47.2,65.6c.1-.2,0-.5-.2-.6-.2-.1-.5,0-.6.2-.1.2,0,.5.2.6.2.1.5,0,.6-.2Z"/>
  <path class="cls-1" d="m45,66.5c0,0,0-.2,0-.3,0,0-.2,0-.3,0,0,0,0,.2,0,.3,0,0,.2,0,.3,0Z"/>
  <path class="cls-1" d="m46.1,66.2c0-.2,0-.4-.2-.5-.2,0-.4,0-.5.2,0,.2,0,.4.2.5.2,0,.4,0,.5-.2Z"/>
  <path class="cls-1" d="m37.9,65.3h.2c.3,0,.6.1.9.2,2,.7,3.9,1.9,6,2.2,1.7.3,3.5-.3,4.6-1.7.3-.4.6-.9.7-1.3.2-.7.3-1.5,0-2.2-.2-.4-.6-.7-1-.9-.5-.2-1.1-.2-1.6,0-1.1.5-1.3,1.9-.3,2.7.3.2.7.4,1.1.3,1-.2,1.2-1.5.3-1.9,0,1.5-1.5,1.4-1.7.6-.1-.5.1-1.1.7-1.4.4-.2,1-.2,1.4,0,.4.1.6.4.8.7.3.6.2,1.3,0,1.9-.1.4-.4.9-.6,1.2-.2.2-.4.4-.6.6.1-.5-.5-.7-.8-.4-.5.4-1.3,1.4-3.1,1.3-1.6-.3-3.1-1.1-4.5-1.7-.4-.2-2-.8-2.3-.4Z"/>
  <path class="cls-1" d="m54.1,15.5c.2-.4,0-1.4-.5-2.2-.9-1.7-2.2-.4-1.2.8.6.7,1.7,1.4,1.7,1.4Z"/>
  <path class="cls-1" d="m54.5,8.7c0,.2.2.4.4.4.2,0,.4-.2.4-.4,0-.2-.2-.4-.4-.4-.2,0-.4.2-.4.4Z"/>
  <path class="cls-1" d="m10.7,13.3c-.4.7-.6,1.8-.5,2.2,0,0,1.1-.6,1.7-1.4,1-1.2-.3-2.5-1.2-.8Z"/>
  <path class="cls-1" d="m9.9,8.7c0-.2-.2-.4-.4-.4-.2,0-.4.2-.4.4,0,.2.2.4.4.4.2,0,.4-.2.4-.4Z"/>
</svg>