<?xml version="1.0" encoding="UTF-8"?>
<svg id="Layer_2" data-name="Layer 2" xmlns="http://www.w3.org/2000/svg" width="185.5" height="391.9" viewBox="0 0 185.5 391.9">
  <defs>
    <style>
      .cls-1 {
        fill: #1f1f1f;
        fill-rule: evenodd;
      }
    </style>
  </defs>
  <path class="cls-1" d="m16.6,1.8c1.5-.7,3,.3,3,.3-.7-1.9-3-.7-3-.3Z"/>
  <path class="cls-1" d="m9.3,9.4c3.5-1.5,5.2-1.4,5.8-1.2.6.1,1.4-1.4-.8-1.2-2,.1-6.4,3.1-5,2.5Z"/>
  <path class="cls-1" d="m14.3,3.7c-2.9,1-8.3,6.7-6.5,5.3,3.6-2.7,5.8-3.6,7.1-4,1.8-.5,1-1.9-.6-1.4Z"/>
  <path class="cls-1" d="m171.2,6.8c-2.1-.1-1.4,1.4-.8,1.2.7-.1,2.3-.2,5.8,1.2,1.4.6-3-2.4-5-2.5Z"/>
  <path class="cls-1" d="m165.9,2.2s1.5-1.1,3-.3c0-.4-2.3-1.6-3,.3Z"/>
  <path class="cls-1" d="m170.6,5.1c1.3.3,3.5,1.2,7.1,4,1.8,1.4-3.6-4.4-6.5-5.3-1.6-.5-2.4.9-.6,1.4Z"/>
  <path class="cls-1" d="m185.3,4h.2c-1.6-.8-3.2,0-3.8.8-1,1.3-1.1,3.3-.4,4.8-.4-.3-.8-.7-1.2-1-.2-.2-.5-.4-.7-.6,0-.1-.2-.2-.3-.3-1-.8-2.3-2.7-3.1-3.1-.3-.1-.6,0-.7.2h-.2c-1.2-1.1-2.5-2-3.8-2.8-1-.6-2.2-1.3-3.4-1.6-1.7-.5-3,.1-3.6,1.1-.2.4-.4.7-.4,1H21.5c0-.3-.2-.7-.4-1-.7-.9-2-1.6-3.6-1.1-1.2.3-2.3,1-3.4,1.6-1.3.8-2.6,1.7-3.8,2.7h-.2c0-.1-.4-.2-.7,0-.8.5-2.1,2.4-3.1,3.1-.1.1-.2.2-.3.3-.2.2-.5.4-.7.6-.4.3-.8.7-1.2,1,.7-1.5.7-3.5-.4-4.8-.6-.8-2.2-1.6-3.8-.7h.2c1.2-.3,2.5,0,3.3,1,.2.2.3.5.4.8-.9-.5-1.6.4-1.2.5.9.1,1.4,1.1,1.4,1.7-.2,1.9-1.1,2.7-1.5,3.1h.2c.1-.1.3-.3.4-.3.2-.1.3-.3.5-.4l-.8,6.7h0c.3,1.4.6,2.8.9,4.2,0,0,0,0,0,.1-.2.3-.4.5-.7.7-.3.3-.7.5-1.1.7h0s0,.1,0,.1c1.5,8.4,2.3,16.9,2.6,25.4.2,6.5,0,82.6-.5,162.2-.3,46-1,153.7-2,159.4h0c0,0,0,.1,0,.1.3.1.6.3.9.5.1,0,.2.2.3.3-.1,2.4-.3,4-.4,4.5h0s0,0,0,0c.1,1.3.3,2.3.4,3.4,0,.8.2,1.7.3,2.6-.1-.1-.3-.2-.4-.3-.1,0-.3-.2-.4-.3h-.2c.3.3,1.2,1.2,1.5,3,0,.7-.6,1.6-1.4,1.7-.4,0,.2,1,1.2.5-.1.3-.3.5-.4.8-.8,1-2.1,1.2-3.3,1h-.2c1.6.8,3.2,0,3.8-.8,1-1.3,1.1-3.3.4-4.8.3.2.5.4.8.6v.8h.2v-.5c0,0,.1.1.2.2.2.2.5.4.7.6,0,.1.2.2.3.3,1,.8,2.3,2.7,3.1,3.1.3.1.6,0,.7-.2h.2c1.2,1.1,2.5,2,3.8,2.8,1,.6,2.2,1.3,3.4,1.6,1.7.5,3-.1,3.6-1.1.2-.3.3-.5.4-.8h142.5c0,.3.2.5.4.8.7.9,2,1.6,3.6,1.1,1.2-.3,2.3-1,3.4-1.6,1.3-.8,2.6-1.7,3.8-2.7h.2c0,.1.4.2.7,0,.8-.5,2.1-2.4,3.1-3.1.1-.1.2-.2.3-.3.2-.2.5-.4.7-.6.4-.3.8-.7,1.2-1-.7,1.5-.7,3.5.4,4.8.6.8,2.2,1.6,3.8.7h-.2c-1.2.3-2.5,0-3.3-1-.2-.2-.3-.5-.4-.8.9.5,1.6-.4,1.2-.5-.9-.1-1.4-1.1-1.4-1.7.2-1.9,1.1-2.7,1.5-3.1h-.2c-.1.1-.3.3-.4.3-.1,0-.3.2-.4.3.1-1,.2-1.9.3-2.8.1-1.1.3-2.2.4-3.4h0s0,0,0,0c-.1-.6-.3-2.1-.4-4.5.1-.1.2-.2.3-.3.3-.2.6-.3.9-.5h0s0-.1,0-.1c-1-5.7-1.8-113.4-2-159.4-.5-79.6-.7-155.8-.5-162.2h0s0,0,0,0c0-1.9,0-10.5,2.7-25.4h0c0,0,0-.1,0-.1-.4-.2-.8-.5-1.1-.7-.2-.2-.5-.4-.7-.7,0,0,0,0,0-.1.3-1.4.6-2.8.9-4.2h0s-.7-6.5-.7-6.5c.2.1.4.3.5.4.1,0,.3.2.4.3h.2c-.3-.3-1.2-1.2-1.5-3,0-.7.6-1.6,1.4-1.7.4,0-.2-1-1.2-.5.1-.3.3-.5.4-.8.8-1,2.1-1.2,3.3-1Zm-3.9,8.6c-.2.6-.3,1.2-.6,1.8-.1.4-.2.6-.3.9v-5.9c.2.2.4.3.6.5l.3,2.7Zm-1.2,6.6c-.2-.7-.4-1.4-.2-2.1,0-.3.1-.5.2-.7v2.8Zm-15.8-15.5H21.1c.2-.3.4-.6.4-.9h142.5c0,.4.2.7.4.9ZM5.2,16.6c.1.2.2.4.2.7.1.7,0,1.4-.2,2.1v-2.8Zm-.8-6.7c.2-.2.4-.3.6-.5v6.1c-.1-.2-.2-.5-.3-.9-.2-.6-.4-1.2-.6-1.8l.3-2.9Zm-.8,7.1l.4-3.6c.1.4.3.8.4,1.2.2.7.4,1.1.6,1.4v3.9c-.2.3-.3.6-.5.9-.3-1.3-.5-2.6-.8-3.9Zm1.4,3.5v3.1c-.2-.8-.3-1.6-.5-2.4.2-.2.3-.5.5-.7Zm-2.5,2.5c.4-.2.7-.4,1.1-.7.2-.2.4-.4.6-.6.3,1.6.6,3.2.9,4.8v21.1c-.3-8.2-1.1-16.5-2.5-24.6Zm2.8,5c1.2,7.7,1.9,15.6,2,23.4.1,12.2-.7,145.9-2,237.7V28Zm-1.9,342.4c-.3-.2-.5-.3-.8-.5,1-6.8,1.7-113.5,2-159.3.2-36.1.4-71.5.5-100v196.2c-.5,30.2-.9,53.9-1.5,63.8,0,0-.1-.1-.2-.2Zm1.7-34.5v36.4c-.2-.4-.5-.7-.6-.9-.1-.1-.2-.3-.3-.4.3-6.4.7-18.8,1-35.1Zm-1,35.5c0,0,.1.1.2.2.2.3.6.7.8,1.3v3.9c0,0,0,.1,0,.2-.3.7-.6,1.5-.9,2.2,0,0,0-.2,0-.3-.1-1.1-.3-2.1-.4-3.4.1-.6.2-2,.4-4.1Zm1.3,2c.2.5.3,1.1.3,1.8,0,.2,0,.3-.3.9v-2.7Zm-.9,8.6c0-.8-.2-1.6-.3-2.3.3-.7.6-1.5.9-2.2v5.1c-.2-.2-.4-.4-.6-.5Zm17,6.5h142.9c-.2.3-.3.6-.2.9H21.5c0-.3,0-.7-.3-.9Zm158.5-5.4c-1.6,1.4-3.2,2.7-4.9,4-1.2.9-2.5,1.8-3.7,2.6-1,.6-2.1,1.3-3.3,1.6-3.3,1-4-3.9-.6-3.1-.8-1.1-2.3-.9-3,0H21.1c-.7-.8-2.1-1.1-2.9,0,3.4-.8,2.7,4-.6,3.1-1.1-.3-2.3-1-3.3-1.6-1.3-.8-2.5-1.7-3.7-2.6-1.7-1.3-3.3-2.7-4.9-4-.1-.1-.3-.3-.5-.4v-5.9c.4-1.1.5-1.3.5-1.6,0-.9-.2-1.8-.5-2.4v-50.7c1.5-88.6,2.6-256.9,2.5-270.6,0-8.8-.9-17.7-2.5-26.4v-4.9c.4-.9.6-1.9.5-2.9,0-.4-.2-.6-.3-.9,0,0,0-.2-.1-.3v-6.8c.1-.1.3-.3.5-.4,1.6-1.4,3.2-2.7,4.9-4,1.2-.9,2.5-1.8,3.7-2.6,1-.6,2.1-1.3,3.3-1.6,3.3-1,4,3.9.6,3.1.7,1,1.9.9,2.7.3h143.9c.8.6,1.9.7,2.7-.3-.3,0-.5,0-.7,0h0s-.3,0-.3,0c-2.1-.4-1.2-4,1.6-3.1,1.1.3,2.3,1,3.3,1.6,1.3.8,2.5,1.7,3.7,2.6,1.7,1.3,3.3,2.7,4.9,4,.1.1.3.2.4.3v6.7c0,.1-.1.2-.1.3-.2.3-.3.5-.3.9-.2,1,0,2,.5,2.9v4.8c-2.9,15.9-2.6,25-2.4,26.5h0s0,0,0,0h0c-.1,13.8,1,182.1,2.5,270.6v50.7c-.3.7-.6,1.5-.5,2.4,0,.3,0,.5.5,1.6v6.1c-.2.1-.3.3-.5.4Zm.8-362.8c.1.2.3.5.5.7-.2.8-.3,1.6-.5,2.4v-3.1Zm-.2,268.6c-1.2-91.8-2.1-225.5-2-237.8h-.3s.2,0,.2,0c0,0-.6-8.3,2-23.6v261.4Zm.2,46.7c.3,16.4.7,28.7,1,35.1-.1.1-.2.2-.3.4-.2.2-.4.5-.6.9v-36.4Zm0,41.5c.3.8.6,1.5.9,2.2,0,.8-.2,1.6-.3,2.5-.2.2-.4.4-.6.5v-5.3Zm-.2-4v2.7c-.2-.6-.3-.7-.3-.9,0-.7,0-1.3.3-1.8Zm1.2,5.5c0,.1,0,.2,0,.3-.3-.7-.6-1.5-.9-2.2,0,0,0-.1,0-.2v-3.9c.3-.6.6-1,.8-1.3,0,0,.1-.1.2-.2.1,2.2.2,3.6.4,4.1-.1,1.2-.2,2.3-.4,3.4Zm-.5-168.2c.3,45.8,1,152.6,2,159.3-.3.1-.6.3-.8.5,0,0-.1.1-.2.2-.5-9.9-1-33.6-1.5-63.7V110.5c0,28.5.3,63.8.5,99.9Zm1-188.3c.3.3.7.5,1.1.7-1.6,8.9-2.3,15.8-2.5,20.2v-16.9c.3-1.5.6-3,.9-4.6.2.2.4.4.6.6Zm-.9-1.4c-.2-.3-.4-.6-.5-.9v-3.9c.1-.3.3-.7.6-1.4.1-.4.3-.8.4-1.2l.4,3.6c-.3,1.3-.6,2.6-.8,3.9Z"/>
  <path class="cls-1" d="m170.5,386.8c-1.8.5-1,1.9.6,1.4,2.9-1,8.3-6.7,6.5-5.3-3.6,2.7-5.8,3.6-7.1,4Z"/>
  <path class="cls-1" d="m170.3,383.8c-.6-.1-1.4,1.4.8,1.2,2-.1,6.4-3.1,5-2.5-3.5,1.5-5.2,1.4-5.8,1.2Z"/>
  <path class="cls-1" d="m165.8,389.8c.7,1.9,3,.7,3,.3-1.5.7-3-.3-3-.3Z"/>
  <path class="cls-1" d="m16.6,390.1c0,.4,2.3,1.6,3-.3,0,0-1.5,1.1-3,.3Z"/>
  <path class="cls-1" d="m14.3,385.1c2.1.1,1.4-1.4.8-1.2-.7.1-2.3.2-5.8-1.2-1.4-.6,3,2.4,5,2.5Z"/>
  <path class="cls-1" d="m14.9,386.9c-1.3-.3-3.5-1.2-7.1-4-1.8-1.4,3.6,4.4,6.5,5.3,1.6.5,2.4-.9.6-1.4Z"/>
</svg>